<?xml version="1.0" encoding="UTF-8" standalone="no"?>
<!-- Created with Inkscape (http://www.inkscape.org/) -->

<svg
   width="100.698mm"
   height="92.85717mm"
   viewBox="0 0 100.698 92.85717"
   version="1.1"
   id="svg20482"
   inkscape:export-filename="yu.svg"
   inkscape:export-xdpi="96"
   inkscape:export-ydpi="96"
   xmlns:inkscape="http://www.inkscape.org/namespaces/inkscape"
   xmlns:sodipodi="http://sodipodi.sourceforge.net/DTD/sodipodi-0.dtd"
   xmlns="http://www.w3.org/2000/svg"
   xmlns:svg="http://www.w3.org/2000/svg">
  <sodipodi:namedview
     id="namedview20484"
     pagecolor="#ffffff"
     bordercolor="#000000"
     borderopacity="0.25"
     inkscape:showpageshadow="2"
     inkscape:pageopacity="0.0"
     inkscape:pagecheckerboard="0"
     inkscape:deskcolor="#d1d1d1"
     inkscape:document-units="mm"
     showgrid="false" />
  <defs
     id="defs20479" />
  <g
     inkscape:label="圖層 1"
     inkscape:groupmode="layer"
     id="layer1"
     transform="translate(-4.4606534,-6.774865)">
    <g
       id="g223990"
       transform="matrix(10.906927,0,0,10.906927,39.382756,-148.41272)"
       style="fill:#f4eed7">
      <g
         id="g133282"
         transform="matrix(0.73027393,0,0,0.73027393,-70.641951,-2.4494203)"
         style="fill:#d5e5ff">
        <g
           id="g150079"
           transform="matrix(1.6422608,0,0,1.6422608,17.252181,-36.698521)">
          <path
             style="fill:#ffffff;stroke:#000000;stroke-width:0.3;stroke-linecap:round;stroke-dasharray:none"
             d="m 49.071162,36.527692 c -0.369536,-0.04806 -1.048063,-0.185965 -1.42435,-0.0919 -0.286962,0.07174 -0.55136,0.214418 -0.82704,0.321627 -0.07687,0.0299 -0.159012,0.04946 -0.229735,0.0919 -0.354661,0.212797 -0.120036,0.120037 -0.367575,0.367575 -0.102992,0.102992 -0.186031,0.156147 -0.27568,0.27568 -0.159115,0.212154 0.01169,0.718418 0.09189,0.918935 0.199364,0.498404 0.195226,0.950487 0.643255,1.28651 0.0649,0.04868 0.459507,0.321551 0.413523,0.41352 -0.04828,0.09656 -0.02371,0.139306 -0.04595,0.183788 -0.279733,0.559469 -0.41352,1.165235 -0.41352,1.791925 0,0.07016 -0.04262,0.310745 0,0.367575 0.185613,0.247483 0.34562,0.2697 0.597308,0.41352 0.249089,0.142338 0.576117,0.258006 0.872987,0.183787 0.216506,-0.05413 0.432737,-0.511265 0.551363,-0.689202 0.06762,-0.101436 0.214225,-0.24466 0.27568,-0.367573 0.02167,-0.04332 0.01688,-0.09909 0.04595,-0.13784 0.04085,-0.05447 0.181166,-0.08927 0.229735,-0.137842 0.03905,-0.03905 0.05876,-0.09366 0.09189,-0.13784 0.105555,-0.140743 -0.02939,0.07534 0.13784,-0.09189 0.02421,-0.02421 0.02695,-0.0634 0.04595,-0.0919 0.02225,-0.03338 0.34195,-0.304543 0.367575,-0.321627 0.08378,-0.05585 0.141219,0.13744 0.229733,0.367575 0.06435,0.167317 0.13662,0.332467 0.183787,0.505415 0.0245,0.08988 0.01648,0.187301 0.04595,0.27568 0.0093,0.02796 0.363085,0.517739 0.41352,0.551362 0.02849,0.019 0.06768,0.02172 0.09189,0.04594 0.02421,0.02421 0.01746,0.0729 0.04595,0.0919 0.02548,0.01699 0.06739,-0.01839 0.0919,0 0.04417,0.03313 0.05284,0.09879 0.09189,0.13784 0.03376,0.03376 0.183179,0.122322 0.229735,0.13784 0.06616,0.02207 0.212937,0 0.27568,0 0.01892,0 0.125677,0.01217 0.13784,0 0.02421,-0.02421 0.02172,-0.06768 0.04595,-0.09189 0.02421,-0.02421 0.0634,-0.02695 0.09189,-0.04595 0.119568,-0.07971 0.424191,-0.337629 0.505415,-0.459467 0.120277,-0.180414 0.207687,-0.755346 0.13784,-0.964883 -0.0105,-0.03153 -0.07622,-0.214058 -0.09189,-0.229735 -0.02421,-0.02421 -0.0729,-0.01746 -0.0919,-0.04595 -0.01775,-0.02665 0.152604,-0.428287 0.183794,-0.459468 0.06117,-0.06117 0.10766,-0.191674 0.183786,-0.229734 0.128061,-0.06403 0.285096,-0.243856 0.367575,-0.367575 0.0085,-0.01275 -0.01082,-0.03512 0,-0.04595 0.02421,-0.02421 0.07289,-0.01746 0.09189,-0.04595 0.01699,-0.02548 -0.01138,-0.06345 0,-0.0919 0.03294,-0.08235 0.115541,-0.140533 0.13784,-0.229732 0.04679,-0.187177 0,-0.451969 0,-0.643255 0,-0.455951 -0.06992,-0.920949 -0.27568,-1.332458 -0.107082,-0.214164 -0.326964,-0.316706 -0.505415,-0.459467 -0.216194,-0.172956 -0.403013,-0.36127 -0.643255,-0.505415 -0.100002,-0.06 -0.225642,-0.08985 -0.321627,-0.13784 -0.01937,-0.0097 -0.0254,-0.0391 -0.04594,-0.04595 -0.02906,-0.0097 -0.06284,0.0097 -0.0919,0 -0.117536,-0.03918 -0.294931,-0.206015 -0.41352,-0.229732 -0.10378,-0.02077 -0.261591,0 -0.367575,0 h -1.056775 c -0.252566,0 -0.137811,0.06433 -0.45947,0 z"
             id="path147895"
             sodipodi:nodetypes="csscsscssssssssssssssssscssssscssccssscssscssssssscsccsscc" />
          <path
             style="fill:none;stroke:#000000;stroke-width:0.3;stroke-linecap:round;stroke-dasharray:none"
             d="m 48.014387,36.941212 c 0.321577,0.01257 0.408352,0.302868 0.643255,0.459467 0.01275,0.0085 0.03512,-0.01082 0.04595,0 0.02421,0.02421 0.02172,0.06768 0.04594,0.0919 0.04378,0.04377 0.276347,0.165675 0.321628,0.183788 0.05688,0.02275 0.125669,-0.01937 0.183787,0 0.262644,0.08755 -0.277762,0.0088 0.13784,0.09189 0.118674,0.02373 0.636887,0.03605 0.781098,0 0.187404,-0.04685 0.377327,-0.21767 0.55136,-0.27568 0.02906,-0.0097 0.07023,0.02167 0.09189,0 0.05729,-0.05729 -0.07071,-0.13784 0.183785,-0.13784"
             id="path150075" />
        </g>
      </g>
    </g>
  </g>
</svg>
