<?xml version="1.0" encoding="UTF-8" standalone="no"?>
<!-- Created with Inkscape (http://www.inkscape.org/) -->

<svg
   width="100.348mm"
   height="79.879578mm"
   viewBox="0 0 100.348 79.879578"
   version="1.1"
   id="svg20482"
   inkscape:export-filename="eh.svg"
   inkscape:export-xdpi="96"
   inkscape:export-ydpi="96"
   xmlns:inkscape="http://www.inkscape.org/namespaces/inkscape"
   xmlns:sodipodi="http://sodipodi.sourceforge.net/DTD/sodipodi-0.dtd"
   xmlns="http://www.w3.org/2000/svg"
   xmlns:svg="http://www.w3.org/2000/svg">
  <sodipodi:namedview
     id="namedview20484"
     pagecolor="#ffffff"
     bordercolor="#000000"
     borderopacity="0.25"
     inkscape:showpageshadow="2"
     inkscape:pageopacity="0.0"
     inkscape:pagecheckerboard="0"
     inkscape:deskcolor="#d1d1d1"
     inkscape:document-units="mm"
     showgrid="false" />
  <defs
     id="defs20479" />
  <g
     inkscape:label="圖層 1"
     inkscape:groupmode="layer"
     id="layer1"
     transform="translate(-6.5787927,-7.3975089)">
    <g
       id="g223990"
       transform="matrix(10.906927,0,0,10.906927,39.382756,-148.41272)"
       style="fill:#f4eed7">
      <g
         id="g133282"
         transform="matrix(0.73027393,0,0,0.73027393,-70.641951,-2.4494203)"
         style="fill:#d5e5ff">
        <g
           id="g161733"
           transform="matrix(0.90192442,0,0,0.99968137,9.1053835,-35.392242)">
          <path
             style="fill:#ff0000;stroke:#000000;stroke-width:0.0916409;stroke-linecap:round;stroke-dasharray:none"
             d="m 98.243819,68.21322 c -0.0604,-0.05936 -0.195176,-0.18662 -0.307854,-0.282395 -0.111668,-0.09557 -0.330983,-0.288432 -0.48793,-0.42817 -0.155927,-0.139738 -0.302814,-0.253923 -0.324943,-0.253923 -0.0201,0 -0.375252,-0.298894 -0.783704,-0.664287 -0.408452,-0.365392 -0.847083,-0.741953 -0.97385,-0.837023 -0.281684,-0.210362 -0.342053,-0.275453 -0.542249,-0.581792 -0.102618,-0.156639 -0.245475,-0.317001 -0.411471,-0.462173 -0.52515,-0.45825 -0.953721,-0.980484 -1.290041,-1.574348 -0.228365,-0.402213 -0.263584,-0.494165 -0.308854,-0.789537 -0.0201,-0.130282 -0.0604,-0.303522 -0.0905,-0.385011 -0.224355,-0.562676 0.0101,-1.71156 0.49899,-2.416189 0.173036,-0.250806 0.4497,-0.530786 0.639837,-0.64648 0.135817,-0.0825 1.293872,-0.433502 1.643163,-0.497384 0.131787,-0.02415 0.300804,-0.02817 0.531189,-0.01308 0.186116,0.01207 0.406441,0.02616 0.49095,0.03219 0.199186,0.01308 0.661966,0.153421 0.97887,0.297586 0.367202,0.1666 0.614687,0.343863 0.876262,0.625755 0.127767,0.137525 0.312873,0.305433 0.412471,0.373039 0.243465,0.165593 0.456741,0.406036 0.763584,0.860564 0.236416,0.350805 0.348083,0.458451 0.399393,0.387425 0.0101,-0.01509 0.0604,-0.03622 0.105638,-0.04628 0.0704,-0.01509 0.1157,-0.07344 0.2485,-0.3165 0.27866,-0.511871 0.76257,-0.983702 1.22625,-1.195886 0.26862,-0.122736 1.40453,-0.483904 1.81993,-0.578471 0.65995,-0.150101 1.23551,-0.167808 1.64778,-0.0503 0.10161,0.02918 0.31188,0.118913 0.46881,0.200503 0.15695,0.08149 0.32596,0.156339 0.37526,0.166197 0.20321,0.04024 0.47686,0.41811 0.58953,0.814086 0.12274,0.429779 0.10061,0.760665 -0.11066,1.626148 -0.1992,0.815796 -0.34809,1.200222 -0.61569,1.584228 -0.0805,0.11338 -0.47787,0.506841 -1.18582,1.169106 -0.23944,0.224446 -0.56137,0.540542 -0.71429,0.702213 -0.33098,0.349699 -0.50403,0.490644 -0.69819,0.566903 -0.0805,0.03119 -0.2163,0.11841 -0.30584,0.193964 -0.21528,0.182998 -0.52916,0.380986 -0.80784,0.510362 -0.12475,0.05835 -0.34004,0.189939 -0.47787,0.292958 -0.13682,0.103018 -0.33199,0.22676 -0.43159,0.274949 -0.2324,0.111671 -0.80986,0.500303 -1.01861,0.685716 -0.168014,0.149195 -0.695173,0.504528 -0.748492,0.504528 -0.0201,0 -0.0905,0.03421 -0.153927,0.07545 -0.0704,0.04427 -0.178066,0.07847 -0.256544,0.0835 -0.0704,0.0045 -0.160967,0.02113 -0.195166,0.03722 -0.0302,0.0161 -0.130788,0.03722 -0.214286,0.04628 -0.145877,0.0171 -0.156947,0.01308 -0.256545,-0.09055 z"
             id="path3508" />
        </g>
      </g>
    </g>
  </g>
</svg>
