<?xml version="1.0" encoding="UTF-8" standalone="no"?>
<!-- Created with Inkscape (http://www.inkscape.org/) -->

<svg
   width="100.09855mm"
   height="104.95748mm"
   viewBox="0 0 100.09855 104.95748"
   version="1.1"
   id="svg20482"
   inkscape:export-filename="ou.svg"
   inkscape:export-xdpi="96"
   inkscape:export-ydpi="96"
   xmlns:inkscape="http://www.inkscape.org/namespaces/inkscape"
   xmlns:sodipodi="http://sodipodi.sourceforge.net/DTD/sodipodi-0.dtd"
   xmlns="http://www.w3.org/2000/svg"
   xmlns:svg="http://www.w3.org/2000/svg">
  <sodipodi:namedview
     id="namedview20484"
     pagecolor="#ffffff"
     bordercolor="#000000"
     borderopacity="0.25"
     inkscape:showpageshadow="2"
     inkscape:pageopacity="0.0"
     inkscape:pagecheckerboard="0"
     inkscape:deskcolor="#d1d1d1"
     inkscape:document-units="mm"
     showgrid="false" />
  <defs
     id="defs20479" />
  <g
     inkscape:label="圖層 1"
     inkscape:groupmode="layer"
     id="layer1"
     transform="translate(-9.0941231,-6.484618)">
    <g
       id="g223990"
       transform="matrix(10.906927,0,0,10.906927,39.382756,-148.41272)"
       style="fill:#f4eed7">
      <g
         id="g133282"
         transform="matrix(0.73027393,0,0,0.73027393,-70.641951,-2.4494203)"
         style="fill:#d5e5ff">
        <g
           id="g161733"
           transform="matrix(0.90192442,0,0,0.99968137,9.1053835,-35.392242)">
          <g
             id="g42028"
             transform="matrix(1.0455677,0,0,0.9433236,83.389456,-18.607899)">
            <g
               id="g45867"
               transform="matrix(1.1934627,0,0,1.1934627,-83.745097,-13.776149)">
              <g
                 id="g221723"
                 transform="translate(47.226445,18.105457)">
                <path
                   style="fill:none;stroke:#000000;stroke-width:0.3;stroke-linecap:round;stroke-dasharray:none"
                   d="m 38.337352,66.927919 c 0,0.177262 0.04198,0.416892 0,0.584808 -0.02832,0.113295 -0.101637,0.211597 -0.129957,0.324892 -0.02839,0.113541 0.01869,0.277752 0,0.389872 -0.02988,0.179282 -0.127306,0.285767 -0.194936,0.45485 -0.215966,0.539916 -0.23022,1.134527 -0.584808,1.624462 0.211498,0 1.020462,-0.07458 1.169614,0 0.0274,0.0137 0.03526,0.05758 0.06498,0.06498 0.268191,0.06705 0.570155,0.06132 0.844721,0.129957 0.132897,0.03323 0.252885,0.129957 0.389871,0.129958 0.327768,0 0.649785,-0.08664 0.974678,-0.129955 0,-0.213471 0.03637,-0.361259 0.194937,-0.519829 0.03425,-0.03425 0.103086,-0.02468 0.129956,-0.06498 0.02402,-0.03605 -0.02402,-0.09391 0,-0.129958 0.02687,-0.04029 0.103088,-0.02468 0.129958,-0.06498 0.02402,-0.03605 -0.01371,-0.08886 0,-0.129955 0.02906,-0.08718 0.153844,-0.112747 0.194934,-0.194937 0.15859,-0.317185 0.06498,-0.8294 0.06498,-1.169615 0,-0.630023 -0.0032,-1.136808 -0.06498,-1.75442 -0.01077,-0.107759 0.02125,-0.218699 0,-0.324892 -0.04575,-0.228751 -0.186143,-0.428477 -0.259913,-0.649788 -0.212606,-0.637818 -0.403683,-1.39115 -0.974678,-1.819399 -0.494511,-0.370883 0.09191,0.07272 -0.389871,-0.194935 -0.136536,-0.07585 -0.259916,-0.173276 -0.389872,-0.259916 -0.08664,-0.08664 -0.15485,-0.196873 -0.259916,-0.259913 -0.117464,-0.07048 -0.267345,-0.06869 -0.389871,-0.129955 -0.236474,-0.11824 -0.413308,-0.336614 -0.649785,-0.454851 -0.122523,-0.06127 -0.262014,-0.08079 -0.389872,-0.129958 -0.315227,-0.12124 -0.633833,-0.341182 -0.974677,-0.389872 -0.429204,-0.06131 -1.154142,-0.04557 -1.559486,0.06498 -1.034637,0.282163 0.192098,-0.01912 -0.714764,0.259913 -0.687268,0.211468 -1.402982,0.332936 -2.079315,0.584808 -0.06685,0.345305 -0.204462,0.797085 -0.129956,1.169615 0.05,0.249972 0.255666,0.275909 0.389872,0.45485 0.02906,0.03875 0.03073,0.09571 0.06498,0.129957 0.07918,0.07918 0.245715,0.115758 0.324893,0.194935 0.118481,0.118482 0.0056,0.120296 0.129957,0.194936 0.461613,0.276968 0.977196,0.508701 1.494507,0.649786 0.127107,0.03466 0.262764,0.03031 0.389871,0.06498 0.576643,0.157266 1.099884,0.466895 1.689443,0.584807 0.229775,0.04596 0.875455,0.09571 1.039657,0.259915 0.03425,0.03425 0.03811,0.08966 0.06498,0.129957 0.09384,0.140754 0.257774,0.219215 0.389871,0.324892 z"
                   id="path217345" />
                <path
                   style="fill:none;stroke:#000000;stroke-width:0.282343;stroke-linecap:round;stroke-dasharray:none"
                   d="m 32.33965,63.521849 c 0.06284,0.396228 -0.17631,0.735438 -0.308112,1.092405 -0.08216,0.222528 -0.177405,0.440785 -0.246491,0.667582 -0.133885,0.439518 -0.01756,0.155792 -0.06162,0.546201 -0.02709,0.24004 -0.128738,0.446468 -0.184869,0.667581 -0.08217,0.323677 -0.02055,-0.0607 -0.184867,0.182069 -0.02844,0.04202 0.02844,0.140051 0,0.182066 -0.04834,0.07142 -0.145893,0.105302 -0.184869,0.18207 -0.01837,0.03618 0.02905,0.09277 0,0.121376 -0.01453,0.01432 0.458535,-0.842983 0.444005,-0.828663 -0.02057,0.02026 -0.686187,1.188555 -0.752119,1.253489 -0.03247,0.03198 -0.09077,0.0287 -0.123244,0.06069 -0.01631,0.01606 0.337083,0.409891 0.393264,0.561287 0.308443,-0.04481 -0.35141,-0.295655 -0.139041,-0.202697 0.637369,0.278982 1.59361,0.636195 2.272317,0.794507 0.757996,0.176805 1.521348,0.264709 2.280042,0.424824 0.241762,0.05103 0.449208,0.167697 0.677851,0.242756 0.115233,0.03783 0.477107,0.02252 0.554606,0.0607 0.227197,0.111877 0.335987,0.113069 0.616227,0.182067 0.283234,0.06973 0.01398,0.06069 0.184868,0.06069"
                   id="path219527"
                   sodipodi:nodetypes="ccsscscsccscccscsccc" />
                <ellipse
                   style="fill:none;stroke:#000000;stroke-width:0.3;stroke-linecap:round;stroke-dasharray:none"
                   id="path219529"
                   cx="38.457455"
                   cy="66.381615"
                   rx="0.39054766"
                   ry="0.44798112" />
                <path
                   style="fill:none;stroke:#000000;stroke-width:0.3;stroke-linecap:round;stroke-dasharray:none"
                   d="m 38.756111,70.160736 c 0.02625,0.354698 -0.05205,0.690652 -0.13784,1.033801 -0.05618,0.224703 -0.116472,0.44505 -0.183787,0.666229 -0.08294,0.27251 -0.1308,0.5461 -0.298654,0.781095 -0.09572,0.134011 -0.03829,0.01275 -0.114869,0.114866 -0.01027,0.01371 -0.0087,0.03645 -0.02297,0.04595 -0.01019,0.0068 -0.09539,-0.007 -0.06892,0.04595 0.03622,0.07244 0.164883,0.105415 0.229732,0.13784 0.02906,0.01453 0.04189,0.0509 0.06892,0.06892 0.0285,0.019 0.06196,0.02931 0.09189,0.04594 0.06809,0.03783 0.347548,0.168236 0.436496,0.114869 0.09631,-0.05778 0.270579,-0.257818 0.321628,-0.344601 0.02434,-0.0414 0.08834,-0.247372 0.13784,-0.321628 0.09201,-0.138017 0.186041,-0.280945 0.252706,-0.436496 0.06106,-0.14246 0.03228,-0.309144 0.04595,-0.459467 0.01669,-0.183724 0.02363,-0.0486 0.06892,-0.229733 0.01312,-0.05253 0.01408,-0.107402 0.02297,-0.160814 0.01982,-0.118885 -0.01093,-0.247258 0,-0.367575 0.0062,-0.0681 0.05883,-0.525589 0.02297,-0.597307 -0.11059,-0.221181 -0.421963,-0.37048 -0.666229,-0.321628 -0.06474,0.01294 -0.183642,0.160671 -0.206758,0.183788 z"
                   id="path220257" />
              </g>
              <path
                 style="fill:#ff9955;stroke:#ff9955;stroke-width:0.139231;stroke-linecap:round;stroke-dasharray:none"
                 d="m 311.48779,324.15605 c -0.045,-0.045 -0.0819,-0.25611 -0.0819,-0.46907 0,-0.54336 -0.68704,-1.30931 -1.48065,-1.65071 -0.90602,-0.38976 -1.84327,-0.37059 -2.39333,0.049 -0.23129,0.17641 -0.47847,0.42901 -0.54928,0.56134 -0.11771,0.21994 -0.26545,0.2406 -1.72077,0.2406 -0.8756,0 -1.59198,-0.0138 -1.59194,-0.0307 3e-5,-0.0169 0.11467,-0.33224 0.25475,-0.7008 0.14007,-0.36855 0.44644,-1.39081 0.68081,-2.27169 0.23436,-0.88088 0.64467,-2.07635 0.91179,-2.65661 0.41962,-0.91153 0.48567,-1.17244 0.48567,-1.9184 0,-0.63551 0.0728,-1.02144 0.27595,-1.46226 0.21924,-0.47582 0.27593,-0.81903 0.27588,-1.67023 l -6e-5,-1.07134 0.34103,-0.0749 c 0.48751,-0.10707 1.07029,-0.6388 1.33227,-1.21556 0.41045,-0.90358 0.24041,-1.98871 -0.4216,-2.69065 -1.02429,-1.08606 -2.76274,-0.71935 -3.35279,0.70725 l -0.22205,0.53686 -0.49575,-0.17538 c -0.27266,-0.0965 -1.2776,-0.31229 -2.23321,-0.47962 -1.80338,-0.3158 -2.57507,-0.54413 -4.64783,-1.37523 -1.42291,-0.57053 -2.9766,-1.04381 -4.1136,-1.25306 -1.75153,-0.32235 -5.40619,-2.03158 -5.83424,-2.72858 -0.13591,-0.22131 -0.49508,-0.53781 -0.79816,-0.70334 -0.30308,-0.16553 -0.57228,-0.35963 -0.59822,-0.43134 -0.0259,-0.0717 -0.39892,-0.47181 -0.82886,-0.88912 L 283.9,299.57376 v -0.88838 c 0,-0.48861 0.0934,-1.37561 0.20756,-1.97112 l 0.20756,-1.08274 0.92828,-0.30414 c 0.51056,-0.16728 2.19921,-0.63513 3.75256,-1.03967 2.87393,-0.74846 4.15623,-1.14287 4.41562,-1.35814 0.33883,-0.2812 2.2787,-0.63222 3.87298,-0.70082 2.3269,-0.10012 3.13468,0.0495 5.11336,0.94705 0.88754,0.4026 1.68877,0.73254 1.78051,0.7332 0.33776,0.002 1.42104,0.61093 2.36213,1.32684 0.68696,0.52259 1.18531,0.79681 1.71911,0.94593 0.58543,0.16354 0.86039,0.32631 1.24291,0.73576 0.58624,0.62754 2.24212,1.72627 2.7795,1.84429 0.23725,0.0521 0.67748,0.37894 1.15889,0.86035 0.9272,0.9272 1.72414,2.46039 2.51885,4.84593 0.28124,0.84421 0.67786,1.8941 0.88138,2.33309 0.30428,0.65635 0.38787,1.03814 0.47049,2.14889 0.17462,2.34786 0.34858,9.80626 0.23995,10.2879 -0.0571,0.25333 -0.3029,0.68088 -0.54614,0.95012 -0.24324,0.26924 -0.44226,0.57226 -0.44226,0.67337 0,0.10111 -0.0581,0.18383 -0.12906,0.18383 -0.071,0 -0.20987,0.19341 -0.30863,0.42978 -0.0988,0.23638 -0.23531,0.42978 -0.30343,0.42978 -0.18905,0 -0.81928,1.05936 -0.90635,1.52349 l -0.0772,0.41127 -1.27879,0.19916 c -1.37774,0.21458 -1.94281,0.24657 -2.07207,0.11731 z"
                 id="path5216"
                 transform="matrix(0.26458333,0,0,0.26458333,4.6291739,2.7865295)" />
              <path
                 style="fill:#000000;stroke:#000000;stroke-width:0.139231;stroke-linecap:round;stroke-dasharray:none"
                 d="m 306.59352,333.82063 c -0.31681,-0.12161 -0.71168,-0.32783 -0.87749,-0.45826 -0.29813,-0.2345 -0.29893,-0.24047 -0.0721,-0.5365 0.12615,-0.16464 0.36828,-0.6309 0.53805,-1.03612 0.34972,-0.83471 1.31634,-4.21899 1.59804,-5.59501 0.34212,-1.67112 0.22231,-1.50985 1.05691,-1.42262 1.37628,0.14385 1.28487,0.036 1.24291,1.46667 -0.0202,0.68924 -0.11692,1.49785 -0.21489,1.79692 -0.098,0.29906 -0.17813,0.88251 -0.17813,1.29656 0,0.64942 -0.0612,0.85301 -0.44538,1.48235 -0.24496,0.40125 -0.62577,1.11634 -0.84626,1.5891 -0.22048,0.47276 -0.58645,1.03472 -0.81326,1.24879 l -0.41238,0.38924 z"
                 id="path5218"
                 transform="matrix(0.26458333,0,0,0.26458333,4.6291739,2.7865295)" />
            </g>
          </g>
        </g>
      </g>
    </g>
  </g>
</svg>
