<?xml version="1.0" encoding="UTF-8" standalone="no"?>
<!-- Created with Inkscape (http://www.inkscape.org/) -->

<svg
   width="100.02101mm"
   height="114.27397mm"
   viewBox="0 0 100.02101 114.27397"
   version="1.1"
   id="svg20482"
   inkscape:export-filename="en.svg"
   inkscape:export-xdpi="96"
   inkscape:export-ydpi="96"
   xmlns:inkscape="http://www.inkscape.org/namespaces/inkscape"
   xmlns:sodipodi="http://sodipodi.sourceforge.net/DTD/sodipodi-0.dtd"
   xmlns="http://www.w3.org/2000/svg"
   xmlns:svg="http://www.w3.org/2000/svg">
  <sodipodi:namedview
     id="namedview20484"
     pagecolor="#ffffff"
     bordercolor="#000000"
     borderopacity="0.25"
     inkscape:showpageshadow="2"
     inkscape:pageopacity="0.0"
     inkscape:pagecheckerboard="0"
     inkscape:deskcolor="#d1d1d1"
     inkscape:document-units="mm"
     showgrid="false" />
  <defs
     id="defs20479" />
  <g
     inkscape:label="圖層 1"
     inkscape:groupmode="layer"
     id="layer1"
     transform="translate(-6.6729628,-11.443224)">
    <g
       id="g223990"
       transform="matrix(10.906927,0,0,10.906927,39.382756,-148.41272)"
       style="fill:#f4eed7">
      <g
         id="g133282"
         transform="matrix(0.73027393,0,0,0.73027393,-70.641951,-2.4494203)"
         style="fill:#d5e5ff">
        <g
           id="g161733"
           transform="matrix(0.90192442,0,0,0.99968137,9.1053835,-35.392242)">
          <g
             id="g42028"
             transform="matrix(1.0455677,0,0,0.9433236,83.389456,-18.607899)">
            <g
               id="g45867"
               transform="matrix(1.1934627,0,0,1.1934627,-83.745097,-13.776149)">
              <g
                 id="g221717"
                 transform="matrix(0.97851005,0,0,0.97851018,28.401668,25.087143)"
                 style="fill:#ac9393">
                <g
                   id="g185149"
                   transform="matrix(1.4216101,0,0,1.4216099,-75.306738,5.5605432)"
                   style="fill:#ffff00">
                  <path
                     style="fill:#ffff00;stroke:#000000;stroke-width:0.3;stroke-linecap:round;stroke-dasharray:none"
                     d="m 90.84003,37.557609 c -0.114697,0.310565 -0.180301,0.633907 -0.292405,0.942189 -0.08804,0.24212 -0.224033,0.464071 -0.292404,0.714764 -0.01733,0.06355 -0.01516,0.131382 -0.03249,0.194935 -0.0725,0.265837 -0.209402,0.5169 -0.292404,0.779742 -0.03718,0.117748 -0.04525,0.245489 -0.09747,0.357384 -0.0259,0.05551 -0.08961,0.08385 -0.129958,0.129958 -0.06288,0.07187 -0.160353,0.225332 -0.227422,0.292401 -0.06749,0.06749 -0.193138,0.09567 -0.259916,0.162447 -0.01712,0.01712 -0.01537,0.04786 -0.03249,0.06498 -0.01712,0.01712 -0.04332,0.02167 -0.06498,0.03249 -0.04332,0.03249 -0.09167,0.05918 -0.129958,0.09747 -0.01712,0.01712 -0.01233,0.05155 -0.03249,0.06498 -0.01802,0.01201 -0.04696,-0.01201 -0.06498,0 -0.02013,0.01344 -0.01233,0.05155 -0.03249,0.06498 -0.01802,0.01201 -0.04696,-0.01201 -0.06498,0 -0.02016,0.01344 -0.01736,0.04607 -0.03249,0.06498 -0.02671,0.03339 -0.173712,0.134152 -0.194934,0.162446 -0.117618,0.156824 0.01701,0.03868 -0.03249,0.162447 -0.0145,0.03625 -0.05048,0.06121 -0.06498,0.09747 -0.01521,0.03801 -0.01328,0.187593 0,0.227426 0.08226,0.246777 0.306866,0.291578 0.519827,0.389871 0.57586,0.265779 1.203809,0.355426 1.819399,0.487339 0.44904,0.09622 0.884621,0.25795 1.332061,0.35738 0.08523,0.01894 0.174839,0.01286 0.259916,0.03249 0.05682,0.01312 0.108296,0.04332 0.162446,0.06498 0.119126,0.03249 0.236844,0.07068 0.35738,0.09747 0.149511,0.03322 0.306269,0.02783 0.454851,0.06498 0.174339,0.04358 0.336669,0.109606 0.519829,0.129955 0.286896,0.03188 0.564111,-0.0218 0.844722,-0.06498 0.04963,-0.0076 0.381757,-0.04305 0.454848,-0.06498 0.142399,-0.04272 0.107786,-0.07014 0.227426,-0.129959 0.153109,-0.07655 0.340989,-0.107127 0.487338,-0.194937 0.109794,-0.06587 0.174951,-0.187452 0.227425,-0.292401 0.115467,-0.230931 -0.01087,-0.281684 -0.09747,-0.454851 -0.0048,-0.0097 0.0097,-0.02765 0,-0.03249 -0.01937,-0.0097 -0.04695,0.01201 -0.06498,0 -0.02016,-0.01344 -0.01905,-0.04483 -0.03249,-0.06498 -0.025,-0.03751 -0.101121,-0.133612 -0.129958,-0.162446 -0.01712,-0.01712 -0.04785,-0.01537 -0.06498,-0.03249 -0.01712,-0.01712 -0.01537,-0.04785 -0.03249,-0.06498 -0.03829,-0.03829 -0.09529,-0.05587 -0.129958,-0.09747 -0.02193,-0.0263 -0.01193,-0.07007 -0.03249,-0.09747 -0.01453,-0.01937 -0.04786,-0.01537 -0.06498,-0.03249 -0.0076,-0.0077 0.0076,-0.02484 0,-0.03249 -0.01712,-0.01712 -0.04483,-0.01905 -0.06498,-0.03249 -0.0048,-0.0032 -0.186399,-0.210354 -0.194935,-0.227425 -0.01998,-0.03994 -0.01836,-0.0876 -0.03249,-0.129958 -0.0612,-0.1836 -0.150534,-0.327432 -0.194934,-0.519827 -0.05266,-0.228171 -0.106685,-0.482049 -0.129958,-0.714766 -0.0054,-0.05388 0.0076,-0.108842 0,-0.162447 -0.02936,-0.205512 -0.09265,-0.412107 -0.129956,-0.617294 -0.02566,-0.14112 -0.03974,-0.320159 -0.09747,-0.45485 -0.01537,-0.03589 -0.04332,-0.06498 -0.06498,-0.09747 -0.02167,-0.04332 -0.04699,-0.08499 -0.06498,-0.129958 -0.148987,-0.372468 -0.361106,-0.718487 -0.649787,-1.007169 -0.10709,-0.10709 -0.293333,-0.182499 -0.42236,-0.259913 -0.08388,-0.05033 -0.11806,-0.111196 -0.194937,-0.162446 -0.124926,-0.08329 -0.340143,-0.05636 -0.487339,-0.129958 -0.159149,-0.07957 -0.403738,-0.05568 -0.584806,-0.09747 -0.05683,-0.01312 -0.107119,-0.04654 -0.162446,-0.06498 -0.266388,-0.0888 -0.533191,-0.129959 -0.812234,-0.129959 -0.035,0 -0.162824,-0.0214 -0.194934,0 -0.06408,0.04272 -0.139996,0.107509 -0.194937,0.162447 -0.09349,0.09349 0.03249,0.231487 0.03249,0.357381"
                     id="path177008"
                     sodipodi:nodetypes="cssssssssscsscssssssssssscssscssssccsssssssccsscsscssccsssssssssc" />
                  <g
                     id="g185143"
                     style="fill:#ffff00">
                    <path
                       style="fill:#ffff00;stroke:#000000;stroke-width:0.289049;stroke-linecap:round;stroke-dasharray:none"
                       d="m 91.714611,43.52755 c 0.01095,0.08942 0.03906,0.178461 0.03288,0.268256 -0.01443,0.209324 -0.16905,0.251158 -0.230131,0.417286 -0.007,0.01886 0.0098,0.04184 0,0.05961 -0.0048,0.0089 -0.02798,-0.0089 -0.03288,0 -0.0299,0.05422 0.0027,0.222569 0.03288,0.268253 0.01595,0.0241 0.05188,0.03448 0.06575,0.05962 0.0098,0.01778 -0.0155,0.04556 0,0.05962 0.0155,0.01405 0.04752,-0.01101 0.06575,0 0.02036,0.01233 0.01555,0.04389 0.03288,0.05962 0.0077,0.0069 0.02375,-0.0055 0.03288,0 0.107038,0.0647 0.01908,0.05545 0.131503,0.08942 0.09444,0.02855 0.263751,-7.29e-4 0.328759,-0.05962 0.07317,-0.06635 0.03233,-0.103069 0.06575,-0.178835 0.01151,-0.02609 0.0519,-0.03448 0.06575,-0.05962 0.02511,-0.04556 0.0098,-0.205643 0.03288,-0.268256 0.03567,-0.09701 0.09089,-0.154297 0.06575,-0.268253 -0.03662,-0.165979 -0.09863,-0.311976 -0.09863,-0.476898"
                       id="path177010" />
                    <path
                       style="fill:#ffff00;stroke:#000000;stroke-width:0.3;stroke-linecap:round;stroke-dasharray:none"
                       d="m 92.237069,37.037779 c 0,-0.129955 0,-0.259913 0,-0.389871 0,-0.117837 -0.04003,-0.569727 0,-0.649785 0.0048,-0.0097 0.02482,0.0076 0.03249,0 0.0076,-0.0076 -0.0076,-0.02484 0,-0.03249 0.03081,-0.03081 0.21065,0 0.259913,0 0.03718,0 0.240967,0.134025 0.259916,0.162446 0.01201,0.01802 -0.0097,0.04561 0,0.06498 0.01371,0.02739 0.04922,0.03871 0.06498,0.06498 0.02373,0.03955 0.06621,0.517363 0.03249,0.584808 -0.01027,0.02053 -0.08703,0.184499 -0.09747,0.194934 -0.0076,0.0077 -0.02765,-0.0097 -0.03249,0 -0.0097,0.01937 0.0097,0.04561 0,0.06498 -0.0097,0.01937 -0.04966,-0.01532 -0.06498,0 -0.0711,0.0711 -0.04356,0.09747 -0.162446,0.09747"
                       id="path177012" />
                  </g>
                </g>
              </g>
            </g>
          </g>
        </g>
      </g>
    </g>
  </g>
</svg>
