<?xml version="1.0" encoding="UTF-8" standalone="no"?>
<!-- Created with Inkscape (http://www.inkscape.org/) -->

<svg
   width="100.077mm"
   height="145.23395mm"
   viewBox="0 0 100.077 145.23395"
   version="1.1"
   id="svg20482"
   inkscape:export-filename="ei.svg"
   inkscape:export-xdpi="96"
   inkscape:export-ydpi="96"
   xmlns:inkscape="http://www.inkscape.org/namespaces/inkscape"
   xmlns:sodipodi="http://sodipodi.sourceforge.net/DTD/sodipodi-0.dtd"
   xmlns="http://www.w3.org/2000/svg"
   xmlns:svg="http://www.w3.org/2000/svg">
  <sodipodi:namedview
     id="namedview20484"
     pagecolor="#ffffff"
     bordercolor="#000000"
     borderopacity="0.25"
     inkscape:showpageshadow="2"
     inkscape:pageopacity="0.0"
     inkscape:pagecheckerboard="0"
     inkscape:deskcolor="#d1d1d1"
     inkscape:document-units="mm"
     showgrid="false" />
  <defs
     id="defs20479" />
  <g
     inkscape:label="圖層 1"
     inkscape:groupmode="layer"
     id="layer1"
     transform="translate(-7.3980929,-4.5380686)">
    <g
       id="g223990"
       transform="matrix(10.906927,0,0,10.906927,39.382756,-148.41272)"
       style="fill:#f4eed7">
      <g
         id="g133282"
         transform="matrix(0.73027393,0,0,0.73027393,-70.641951,-2.4494203)"
         style="fill:#d5e5ff">
        <g
           id="g161733"
           transform="matrix(0.90192442,0,0,0.99968137,9.1053835,-35.392242)">
          <g
             id="g42028"
             transform="matrix(1.0455677,0,0,0.9433236,83.389456,-18.607899)">
            <g
               id="g207148"
               transform="matrix(1.6496551,0,0,1.6496551,-212.30126,21.725981)"
               style="fill:#d40000">
              <path
                 style="fill:#d40000;stroke:#000000;stroke-width:0.3;stroke-linecap:round;stroke-dasharray:none"
                 d="m 136.64997,43.015807 c -0.33433,-0.334325 -0.66528,-0.561134 -0.84473,-1.039656 -0.0388,-0.10341 -0.0262,-0.221483 -0.065,-0.324893 -0.0808,-0.21549 -0.26817,-0.272288 -0.38988,-0.45485 -0.038,-0.05699 -0.0433,-0.129955 -0.065,-0.194935 -0.0434,-0.04332 -0.0959,-0.07898 -0.12995,-0.129958 -0.16725,-0.250878 -0.32547,-0.620067 -0.38987,-0.909701 -0.0141,-0.06343 0.0141,-0.131504 0,-0.194934 -0.30342,-1.365517 0.0372,0.473829 -0.25992,-0.714764 -0.0158,-0.06304 0.009,-0.130617 0,-0.194937 -0.0512,-0.358452 -0.13543,-0.682387 -0.19493,-1.039657 0.15162,0.129958 0.3284,0.23532 0.45485,0.389873 0.0739,0.09027 0.0733,0.222931 0.12996,0.324893 0.0905,0.162875 0.20849,0.309356 0.32489,0.45485 0.0422,0.05279 0.49491,0.568197 0.51983,0.584807 0.0403,0.02687 0.0957,0.03073 0.12995,0.06498 0.0552,0.05522 0.0747,0.139715 0.12996,0.194936 0.0342,0.03425 0.0957,0.03073 0.12996,0.06498 0.0343,0.03425 0.0381,0.08966 0.065,0.129958 0.12239,0.183587 0.40813,0.467023 0.5848,0.584807 0.0403,0.02687 0.0957,0.03073 0.12996,0.06498 0.1413,0.141294 0.14732,0.324893 0.38987,0.324893"
                 id="path204944" />
              <path
                 style="fill:#d40000;stroke:#000000;stroke-width:0.3;stroke-linecap:round;stroke-dasharray:none"
                 d="m 137.49464,41.001473 c 0.0681,-0.271841 0.3793,-0.319077 0.51982,-0.519829 0.0479,-0.0684 0.13851,-0.453139 0.19494,-0.584806 0.22295,-0.520208 0.48751,-1.038654 0.38987,-1.624465 -0.0294,-0.176178 -0.10469,-0.343014 -0.12995,-0.51983 -0.009,-0.06433 0.0158,-0.131897 0,-0.194934 -0.0257,-0.102891 -0.22377,-0.216434 -0.25992,-0.324892 -0.031,-0.09316 -0.0223,-0.253135 -0.12996,-0.324893 -0.036,-0.02402 -0.0939,0.02402 -0.12995,0 -0.0403,-0.02687 -0.0307,-0.09571 -0.065,-0.129958 -0.12348,-0.123478 -0.30323,-0.173276 -0.45485,-0.259913 -0.16467,-0.0941 -0.33125,-0.324893 -0.51983,-0.324893"
                 id="path205672" />
              <path
                 style="fill:#d40000;stroke:#000000;stroke-width:0.3;stroke-linecap:round;stroke-dasharray:none"
                 d="m 136.8994,36.19306 c 0.57028,0.04091 1.71162,-0.13526 2.2197,0.259914 0.55405,0.430924 0.72127,0.688789 1.03966,1.234593 0.14111,0.118081 0.11309,0.311629 0.19493,0.454848 0.0537,0.09403 0.14121,0.165886 0.19494,0.259916 0.034,0.05947 0.0297,0.136202 0.065,0.194934 0.0315,0.05253 0.0984,0.07742 0.12996,0.129958 0.32932,0.548879 -0.26624,-0.488026 -0.10774,-0.09171 0.029,0.07251 0.2271,0.186051 0.3027,0.61154 0.16067,0.321337 0.26932,0.732743 0.19494,1.104636 -0.0249,0.124386 -0.27902,0.798846 -0.38987,0.909701 -0.34361,0.343606 0.35489,-0.585715 0.0591,0.0059 -0.0484,0.09686 -0.44461,0.365767 -0.51395,0.448965 -0.062,0.07441 -0.0694,0.184275 -0.12995,0.259914 -0.0488,0.06098 -0.13972,0.07474 -0.19494,0.129958 -0.0766,0.07658 -0.11836,0.183335 -0.19493,0.259913 -0.0913,0.09125 -0.24698,0.07806 -0.3249,0.194937 -0.0644,0.09661 -0.32896,0.412888 -0.45485,0.454848 -0.0822,0.0274 -0.17772,-0.0274 -0.25991,0 -0.0291,0.0097 -0.0376,0.05128 -0.065,0.06498 -0.15034,0.07517 -0.42636,0.02537 -0.58481,0.06498 -0.15424,0.03856 -0.33402,0.01855 -0.48533,0.06899 -0.23539,0.07847 -0.76707,-0.31701 -1.03965,-0.31701"
                 id="path205674"
                 sodipodi:nodetypes="cscssccscsssssscssssssc" />
              <path
                 style="fill:#d40000;stroke:#000000;stroke-width:0.3;stroke-linecap:round;stroke-dasharray:none"
                 d="m 141.19446,40.341274 c 0.32948,0.807649 0.47573,1.676033 0.59731,2.527073 0.0418,0.292788 0,0.622218 0,0.918935 0,0.238408 0.065,0.723953 0,0.918937 -0.0733,0.219766 -0.13784,0.365054 -0.13784,0.597308"
                 id="path206406" />
              <path
                 style="fill:#d40000;stroke:#000000;stroke-width:0.3;stroke-linecap:round;stroke-dasharray:none"
                 d="m 136.50789,43.052134 c 0.0613,0.04595 0.13784,0.07658 0.18379,0.13784 0.20478,0.27305 0.37213,0.778092 0.50541,1.056778 0.21126,0.441722 0.51892,0.743246 0.82704,1.102722 0.0581,0.0678 0.0747,0.166585 0.13784,0.229733 0.0242,0.02421 0.0677,0.02172 0.0919,0.04595 0.0242,0.02421 0.0185,0.07135 0.0459,0.09189 0.0387,0.02906 0.0963,0.02103 0.13784,0.04595 0.0371,0.02228 0.0548,0.06961 0.0919,0.0919 0.18594,0.111562 0.37653,0.170784 0.55136,0.27568 0.14994,0.08996 0.52386,0.41352 0.6892,0.41352 0.1838,-0.06126 0.37332,-0.107477 0.5514,-0.183794 0.14157,-0.06067 0.2228,-0.222798 0.32163,-0.321627 0.0555,-0.05553 0.16809,-0.08853 0.22973,-0.137841 0.10568,-0.08454 0.2007,-0.261161 0.32163,-0.321627 0.0634,-0.03169 0.0411,0.05564 0.0919,-0.04595 0.007,-0.0137 -0.0108,-0.03512 0,-0.04595 0.0517,-0.05166 0.16837,-0.09693 0.22973,-0.13784 0.0734,-0.0489 0.0816,-0.127515 0.13784,-0.183787 0.0669,-0.06692 0.15331,-0.430168 0.15331,-0.544729"
                 id="path206408"
                 sodipodi:nodetypes="cccccccccscscscccccc" />
              <path
                 style="fill:#d40000;stroke:#000000;stroke-width:0.3;stroke-linecap:round;stroke-dasharray:none"
                 d="m 140.73499,46.268409 c 0.21211,0.389798 0.22974,0.800402 0.22974,1.240563 0.17809,0.04661 0.53986,0.199121 0.6892,10e-7 0.0205,-0.0274 0.0306,-0.06126 0.046,-0.09189 0.0306,-0.04595 0.0574,-0.09472 0.0919,-0.13784 0.0803,-0.100435 0.22973,-0.285215 0.22973,-0.413521 -0.26725,-0.220359 -0.20543,-0.410742 -0.32168,-0.643259 -0.0368,-0.07352 0.0367,-0.202166 0,-0.275681 -0.0711,-0.142144 -0.13784,-0.255302 -0.13784,-0.459468"
                 id="path207138" />
            </g>
            <path
               style="fill:#d40000;fill-opacity:1;stroke:#d40000;stroke-width:1.25898;stroke-linecap:round;stroke-dasharray:none;stroke-opacity:0.974441"
               d="m 285.4335,388.13562 c -50.95228,-15.08685 -92.38814,-27.56805 -92.0797,-27.73598 1.08476,-0.59058 5.85658,-1.33801 11.74362,-1.83945 3.27156,-0.27866 7.76848,-0.82067 9.99314,-1.20446 2.22467,-0.38379 8.43469,-0.89673 13.80006,-1.13985 10.75615,-0.4874 14.44752,-1.26109 17.88541,-3.74872 1.79365,-1.29786 2.02725,-1.34011 6.27969,-1.13585 5.22341,0.25091 7.37866,-0.38731 11.76264,-3.48315 3.70577,-2.61691 12.88896,-12.11421 17.12958,-17.71548 l 3.32951,-4.39784 4.28431,-1.69562 c 7.37935,-2.92057 9.53655,-4.78925 15.35341,-13.29998 2.48432,-3.63485 3.33011,-4.49159 5.59064,-5.66302 6.02159,-3.12045 8.19381,-5.65155 11.11644,-12.95308 0.85074,-2.12538 2.12279,-4.39866 2.82676,-5.05173 0.70397,-0.65308 5.02738,-4.18746 9.60757,-7.8542 10.83931,-8.67756 13.27762,-11.26509 15.96865,-16.9459 1.16334,-2.45582 2.24074,-5.5106 2.39423,-6.78838 0.15349,-1.27778 1.30396,-4.78584 2.55659,-7.79568 1.25264,-3.00984 2.65758,-6.49659 3.12208,-7.74833 0.46451,-1.25174 0.98725,-2.36408 1.16165,-2.47187 0.17441,-0.10779 1.10355,2.30827 2.06477,5.36901 l 1.74767,5.56499 7.64582,83.19834 c 4.2052,45.75908 7.5806,83.37126 7.50089,83.58261 -0.0797,0.21135 -41.83315,-11.95952 -92.78543,-27.04638 z"
               id="path43537"
               transform="matrix(0.03522508,0,0,0.03522508,7.924173,80.572083)" />
          </g>
        </g>
      </g>
    </g>
  </g>
</svg>
