<?xml version="1.0" encoding="UTF-8" standalone="no"?>
<!-- Created with Inkscape (http://www.inkscape.org/) -->

<svg
   width="99.757156mm"
   height="101.68955mm"
   viewBox="0 0 99.757156 101.68955"
   version="1.1"
   id="svg8193"
   xmlns:inkscape="http://www.inkscape.org/namespaces/inkscape"
   xmlns:sodipodi="http://sodipodi.sourceforge.net/DTD/sodipodi-0.dtd"
   xmlns="http://www.w3.org/2000/svg"
   xmlns:svg="http://www.w3.org/2000/svg">
  <sodipodi:namedview
     id="namedview8195"
     pagecolor="#ffffff"
     bordercolor="#000000"
     borderopacity="0.25"
     inkscape:showpageshadow="2"
     inkscape:pageopacity="0.0"
     inkscape:pagecheckerboard="0"
     inkscape:deskcolor="#d1d1d1"
     inkscape:document-units="mm"
     showgrid="false" />
  <defs
     id="defs8190" />
  <g
     inkscape:label="圖層 1"
     inkscape:groupmode="layer"
     id="layer1"
     transform="translate(-2.8037692,-3.639058)">
    <g
       id="g19163"
       style="fill:#803300"
       transform="matrix(10.83821,0,0,12.922088,-47.368188,-64.871957)">
      <path
         style="fill:#803300;stroke:#000000;stroke-width:0.315991;stroke-linecap:round"
         d="m 10.79438,6.4467975 c 0.169068,0.01769 0.266041,-0.1758673 0.42069,-0.2004267 0.137612,-0.021853 1.12474,-0.029266 1.191959,0.06681 0.06983,0.099784 0.0891,0.2244551 0.140231,0.3340446 0.22013,0.4719401 0.499825,0.9234058 0.701152,1.4029858 0.03578,0.085252 0.02229,0.1875132 0.07013,0.2672353 0.04919,0.082034 0.159328,0.1194092 0.210346,0.2004268 0.05281,0.083867 0.175502,0.8681052 0.140228,0.9353239 -0.05369,0.1023232 -0.124945,0.052246 -0.210344,0.1336177 -0.130223,0.1240826 -0.216675,0.340076 -0.350576,0.4676621 -0.189307,0.180378 -1.167969,0.334044 -1.47242,0.334044"
         id="path2450" />
      <path
         style="fill:#803300;stroke:#000000;stroke-width:0.3;stroke-linecap:round"
         d="M 10.071677,5.4581993 C 9.6380997,5.5348827 9.2054332,5.591231 8.7721058,5.6531348 c -0.064326,0.00919 -0.1368171,-0.029059 -0.1949357,0 -0.1514309,0.075716 -0.1845922,0.018211 -0.3248928,0.064979 -0.029059,0.00969 -0.034764,0.059943 -0.064978,0.064978 -0.1068242,0.017804 -0.2171326,-0.010776 -0.3248929,0 C 7.2466913,5.8446635 6.4880553,5.8979236 5.9780278,6.237942 5.7879593,6.3646541 5.5569572,6.625233 5.4581993,6.8227489 5.380819,6.977509 5.2548644,7.172839 5.1982848,7.3425774 c -0.1001749,0.3005257 0.044654,1.0073211 0,1.3645499 -0.096543,0.7723452 -0.1718087,1.5738087 -0.3248927,2.3392287 -0.021238,0.106191 -0.1446096,0.335403 -0.064979,0.454849 0.1655106,0.248267 0.8974598,0.819162 1.1696142,0.974679 0.1606761,0.09181 0.3507192,0.119776 0.5198284,0.194935 0.1595739,0.07092 0.2843837,0.222034 0.45485,0.259915 0.1896031,0.04213 2.0569002,0.13556 2.339228,0.06498 0.1822022,-0.04555 0.5035839,-0.142952 0.6497857,-0.259914 0.071757,-0.05741 0.1214206,-0.1398 0.1949366,-0.194936 0.01733,-0.013 0.04332,0 0.06498,0 0.06498,-0.04332 0.139715,-0.07474 0.194936,-0.129957 0.184992,-0.184992 0.26562,-0.491112 0.389871,-0.714764 0.22179,-0.399223 0.533925,-0.706176 0.649786,-1.169614 0.09807,-0.39229 0.112445,-1.327221 0.06498,-1.7544212 -0.02786,-0.2507345 -0.158941,-0.3688395 -0.194935,-0.584807 -0.06402,-0.3841421 0.08701,-0.1398648 -0.06498,-0.5198284 -0.01138,-0.02844 -0.05422,-0.036298 -0.06498,-0.064979 -0.0794,-0.2117338 -0.09381,-0.4475268 -0.194936,-0.6497854 -0.0137,-0.027397 -0.04332,-0.043319 -0.06498,-0.064979 -0.02166,-0.043319 -0.04699,-0.084989 -0.06498,-0.1299569 -0.03317,-0.082917 -0.02504,-0.1800379 -0.06498,-0.2599143 -0.08819,-0.1763858 -0.218921,-0.3148563 -0.259914,-0.5198284 -0.01699,-0.084956 0.03875,-0.1824228 0,-0.2599143 -0.0097,-0.019373 -0.04966,0.015314 -0.06498,0 -0.01532,-0.015317 0,-0.043319 0,-0.064979 -0.129956,-0.064979 -0.259914,-0.129957 -0.38987,-0.1949355 z"
         id="path2446" />
      <path
         style="fill:#ffffff;stroke:#000000;stroke-width:0.3;stroke-linecap:round"
         d="m 11.241292,7.0826631 c 0.624655,-0.1903106 0.490548,0.035699 0.844721,0.3898714 0.03425,0.034247 0.09571,0.030732 0.129957,0.064978 0.03425,0.034247 0.03592,0.091211 0.06498,0.1299573 0.124569,0.1660922 0.298033,0.2061956 0.389871,0.3898715 0.08676,0.1735174 0.06498,0.3896148 0.06498,0.5848069 0,0.1312294 0.06453,0.4557466 0,0.5848069 -0.05385,0.1076937 -0.186271,0.1212927 -0.259914,0.1949358 -0.03063,0.030631 0.03063,0.099326 0,0.1299572 -0.134443,0.134443 0.0053,-0.2054468 -0.129957,0.064979 -0.0097,0.019373 0.01532,0.049663 0,0.064979 -0.04595,0.045947 -0.133292,-0.020548 -0.194936,0 -0.136156,0.045386 -0.229516,0.1299573 -0.389871,0.1299573"
         id="path2452" />
      <path
         style="fill:#803300;stroke:#000000;stroke-width:0.326088;stroke-linecap:round"
         d="m 5.3413015,8.5558609 c 0.5661639,0.5191011 1.2114562,0.8774536 1.8756719,1.2207441 0.1024444,0.052947 0.3499954,0.1978158 0.4862854,0.2154251 0.1378659,0.017815 0.2778773,0 0.4168161,0 0.092626,0 0.1900049,0.030279 0.2778773,0 0.031067,-0.010709 0.040178,-0.056669 0.069469,-0.071808 C 9.0913587,9.5977487 8.1016803,10.233977 9.0231761,9.7047964 9.3017457,9.5448246 10.168509,8.8265557 10.343094,8.5558608 c 0.06423,-0.09958 0.148838,-0.1846083 0.208407,-0.2872338 0.03768,-0.064907 0.02553,-0.1548714 0.06947,-0.2154255 0.03107,-0.042819 0.102324,-0.033962 0.138938,-0.071808 0.04623,-0.047786 0.185696,-0.3956342 0.208408,-0.4308509"
         id="path3231" />
      <path
         style="fill:#803300;stroke:#000000;stroke-width:0.3;stroke-linecap:round"
         d="M 7.9028464,9.8326113 C 7.6506723,10.037501 7.6271659,10.222027 7.6271659,10.521813 c 0,0.04595 -0.032489,0.105351 0,0.13784 0.055633,0.05563 0.1597792,0.04595 0.2297337,0.04595 0.076578,0 0.1612405,0.03425 0.229734,0 0.05267,-0.02633 0.065263,-0.715832 0.045947,-0.7351484 -0.010829,-0.010829 -0.032814,0.00788 -0.045947,0 C 8.0209685,9.9310525 7.9641088,9.8785581 7.9028464,9.8326113 Z"
         id="path6320" />
    </g>
  </g>
</svg>
