<?xml version="1.0" encoding="UTF-8" standalone="no"?>
<!-- Created with Inkscape (http://www.inkscape.org/) -->

<svg
   width="30.806004mm"
   height="44.256989mm"
   viewBox="0 0 30.806004 44.256989"
   version="1.1"
   id="svg5"
   inkscape:export-filename="點陣圖.png"
   inkscape:export-xdpi="96"
   inkscape:export-ydpi="96"
   xmlns:inkscape="http://www.inkscape.org/namespaces/inkscape"
   xmlns:sodipodi="http://sodipodi.sourceforge.net/DTD/sodipodi-0.dtd"
   xmlns="http://www.w3.org/2000/svg"
   xmlns:svg="http://www.w3.org/2000/svg">
  <sodipodi:namedview
     id="namedview7"
     pagecolor="#ffffff"
     bordercolor="#000000"
     borderopacity="0.25"
     inkscape:showpageshadow="2"
     inkscape:pageopacity="0.0"
     inkscape:pagecheckerboard="0"
     inkscape:deskcolor="#d1d1d1"
     inkscape:document-units="mm"
     showgrid="false" />
  <defs
     id="defs2" />
  <g
     inkscape:label="圖層 1"
     inkscape:groupmode="layer"
     id="layer1"
     transform="translate(-62.615201,-114.91864)">
    <path
       style="fill:#a05a2c;stroke:#000000;stroke-width:0.337633;stroke-linecap:round"
       d="m 84.083245,147.35218 c -1.930407,-0.0529 -5.964263,-0.15908 -8.964121,-0.23597 -2.999861,-0.0768 -5.478666,-0.16326 -5.508457,-0.19198 -0.04833,-0.0466 1.649423,-6.58514 1.733968,-6.67803 0.04644,-0.051 18.301586,0.47146 18.357572,0.52542 0.04535,0.0437 1.855681,6.53126 1.855681,6.65009 0,0.0827 -2.902745,0.0557 -7.474643,-0.0695 z"
       id="path860" />
    <path
       style="fill:#550000;stroke:#000000;stroke-width:0.299666;stroke-linecap:round"
       d="m 80.447109,140.50929 -1.819456,-0.0566 2.505986,-10.78614 c 1.378292,-5.93238 2.537396,-10.81756 2.575789,-10.85595 0.03839,-0.0384 0.955886,-0.0331 2.038877,0.0117 l 1.969073,0.0815 -2.640498,10.66117 c -1.452274,5.86364 -2.678708,10.73762 -2.725407,10.83106 -0.072,0.14408 -0.361412,0.16129 -1.904364,0.11327 z"
       id="path862" />
    <path
       style="fill:#ffeeaa;stroke:#000000;stroke-width:0.298947;stroke-linecap:round;stroke-dasharray:none"
       id="path1888"
       d="m 69.703181,146.99734 c -0.350308,0.89436 -0.670795,1.79886 -1.073499,2.67024 -0.131677,0.30126 -0.365196,0.5236 -0.556897,0.77908 -0.06299,0.0839 -0.20446,0.30455 -0.259382,0.38886 -0.274826,0.4726 -0.552279,0.941 -0.866731,1.38652 -0.138681,0.23154 -0.41593,0.42733 -0.44505,0.71751 -0.0054,0.0537 0.0054,0.10802 0.0082,0.16203 0.124233,0.46343 0.544971,0.70835 0.906716,0.96095 0.402178,0.28969 0.800405,0.58513 1.203649,0.87323 0.329458,0.23763 0.681826,0.44945 1.096068,0.44746 0.115271,-5.3e-4 0.22996,-0.0169 0.344943,-0.0254 0.145653,-0.0288 0.292457,-0.0519 0.436964,-0.0864 0.424812,-0.10126 0.799141,-0.22753 1.219496,-0.35847 0.864783,-0.26939 1.728837,-0.53954 2.59719,-0.79635 0.523045,-0.13343 1.046112,-0.32287 1.588718,-0.35805 0.07946,-0.005 0.217158,-0.002 0.291695,0.0566 0.01305,0.0104 0.01026,0.0323 0.01539,0.0485 -0.0637,0.42941 0.157923,0.6735 0.425438,0.97189 0.276253,0.26717 0.612042,0.54143 0.997104,0.61123 0.07475,0.0136 0.151212,0.0137 0.226817,0.0206 1.046158,-0.044 2.088689,-0.1572 3.130643,-0.26122 0.881167,-0.0613 1.771683,-0.18585 2.655797,-0.10675 0.04627,0.0114 0.09329,0.0198 0.13882,0.0341 0.324709,0.10126 0.641766,0.22214 0.969206,0.31634 0.571662,0.16448 0.471419,0.13112 1.08305,0.25884 0.559652,0.10366 1.126121,0.14003 1.693577,0.14515 0.265145,0.002 0.511894,-0.0145 0.770298,0.0474 0.05516,0.0714 -0.04669,0.0271 0.03039,0.17624 0.119672,0.2316 0.355596,0.35814 0.562644,0.48607 0.439406,0.20052 0.902252,0.35813 1.385763,0.35403 0.341645,-0.0307 0.431697,-0.24506 0.542389,-0.54993 0.163531,-0.49573 0.369604,-0.97223 0.539043,-1.46595 0.212886,-0.63669 0.362551,-1.29519 0.49802,-1.95364 0.110858,-0.6293 0.335198,-1.20752 0.407698,-1.84424 0.02531,-0.42143 -0.01792,-0.73163 -0.222076,-1.09805 -0.120541,-0.21555 -0.265719,-0.42248 -0.352437,-0.65672 -0.02666,-0.072 -0.05868,-0.21366 -0.07704,-0.28976 -0.05433,-0.22014 -0.0076,-0.44057 0.01515,-0.66134 0.04043,-0.33272 0.02892,-0.65826 -0.04935,-0.98303 -0.0353,-0.13033 -0.01922,-0.0684 -0.04865,-0.18562 -0.0016,-0.007 -0.101639,0.0146 -0.100142,0.0219 v 0 c 0.02823,0.11849 0.01287,0.0565 0.0464,0.18549 0.07365,0.31477 0.08338,0.62979 0.04689,0.95196 -0.02161,0.23099 -0.06774,0.46239 -0.0136,0.69268 0.02067,0.0879 0.05022,0.22374 0.08038,0.30691 0.08623,0.23767 0.2316,0.44841 0.355932,0.66503 0.197909,0.34666 0.234955,0.63824 0.207733,1.03902 -0.02754,0.23569 -0.02683,0.28986 -0.08397,0.52478 -0.106333,0.43713 -0.263532,0.86183 -0.328281,1.31003 -0.129948,0.65528 -0.283269,1.30796 -0.492334,1.94136 -0.03791,0.11275 -0.144942,0.43676 -0.192273,0.55702 -0.118654,0.30142 -0.250461,0.59597 -0.339414,0.90942 -0.0969,0.2727 -0.160325,0.45925 -0.467529,0.47678 -0.447264,0.0104 -0.876436,-0.17238 -1.285948,-0.33807 -0.18578,-0.10959 -0.411199,-0.22319 -0.533427,-0.41737 -0.0695,-0.11038 0.01399,-0.0771 -0.02992,-0.19582 -0.0093,-0.0248 -0.03628,-0.0377 -0.0544,-0.0565 -0.26361,-0.081 -0.509624,-0.0694 -0.784681,-0.0744 -0.560875,-0.0104 -1.120852,-0.0447 -1.674701,-0.14354 -0.192083,-0.0383 -0.385279,-0.071 -0.576253,-0.11486 -0.552348,-0.12682 -1.088986,-0.3138 -1.631347,-0.47673 -0.908375,-0.11246 -1.82889,0.0164 -2.735783,0.0786 -1.016777,0.10324 -2.033031,0.21856 -3.052717,0.28616 -0.0703,-0.004 -0.141272,-8e-4 -0.210895,-0.0117 -0.368934,-0.0572 -0.691099,-0.33167 -0.956682,-0.5803 -0.171327,-0.18728 -0.405681,-0.40508 -0.427292,-0.68243 -0.0068,-0.0859 0.03001,-0.1723 0.0074,-0.25881 -0.01694,-0.0333 -0.02357,-0.0749 -0.05085,-0.0998 -0.16336,-0.14871 -0.592966,-0.0696 -0.764788,-0.0406 -0.463074,0.0783 -0.77632,0.17496 -1.242477,0.29878 -0.976589,0.28389 -0.731813,0.20596 -1.73841,0.52757 -0.683743,0.21846 -1.363817,0.47051 -2.060265,0.64426 -0.140316,0.0349 -0.282917,0.0593 -0.424374,0.0891 -0.09144,0.009 -0.182434,0.0265 -0.274313,0.0289 -0.399926,0.0107 -0.736729,-0.19253 -1.054047,-0.42211 -0.404171,-0.28724 -0.801826,-0.58408 -1.204484,-0.8736 -0.33753,-0.23593 -0.742698,-0.45879 -0.876903,-0.88292 -0.0036,-0.0442 -0.01407,-0.0884 -0.01059,-0.13266 0.02049,-0.26114 0.315131,-0.47147 0.437894,-0.68252 0.316897,-0.44561 0.594378,-0.91533 0.868185,-1.39029 0.05322,-0.0824 0.189645,-0.29737 0.251808,-0.38054 0.196539,-0.26293 0.4414,-0.4875 0.579681,-0.79565 0.410617,-0.86759 0.735224,-1.76971 1.058533,-2.67515 0.0029,-0.007 -0.09458,-0.0486 -0.09741,-0.0414 z" />
    <path
       style="fill:#fff6d5;stroke:#000000;stroke-width:0.393805;stroke-linecap:round;stroke-dasharray:none"
       d="m 338.01933,591.30304 c -1.73731,-0.64892 -2.6876,-1.34373 -3.174,-2.32069 -0.37371,-0.75061 -0.72076,-0.83197 -5.08015,-1.19089 -5.40935,-0.44536 -5.88287,-0.53141 -10.73534,-1.95084 -3.48125,-1.01833 -3.79826,-1.05116 -7.98823,-0.82723 -2.39972,0.12825 -6.47305,0.45955 -9.05186,0.73623 -5.97291,0.64082 -8.47083,0.64433 -9.69049,0.0136 -1.49535,-0.77328 -3.16014,-2.85653 -3.16014,-3.95448 0,-0.52821 -0.18755,-1.14794 -0.41678,-1.37717 -1.04748,-1.04748 -5.63979,-0.12664 -16.15647,3.23966 -7.51884,2.40672 -8.93178,2.68653 -10.42193,2.0639 -0.62161,-0.25972 -2.93396,-1.76224 -5.13855,-3.33894 -4.4191,-3.16048 -4.92015,-3.90011 -3.6924,-5.45063 0.40279,-0.50869 1.53281,-2.22278 2.51115,-3.80909 0.97834,-1.58632 2.30271,-3.57057 2.94303,-4.40944 1.71871,-2.25163 2.69496,-4.33457 5.12761,-10.94035 l 0.57556,-1.56291 7.38516,0.2441 c 14.18296,0.46879 47.42818,1.32301 60.17693,1.54622 8.25205,0.14447 12.93464,0.35399 13.0854,0.58548 0.12912,0.19826 0.14668,1.41123 0.039,2.69547 -0.1823,2.1745 -0.10654,2.52512 1.10229,5.10109 1.12183,2.39058 1.27703,3.01946 1.14322,4.63241 -0.24359,2.93614 -2.52197,11.98272 -4.15646,16.50369 l -1.48866,4.11759 -1.2156,0.0706 c -0.66858,0.0389 -1.80361,-0.149 -2.5223,-0.41744 z"
       id="path1890"
       transform="scale(0.26458333)" />
  </g>
</svg>
