<?xml version="1.0" encoding="UTF-8" standalone="no"?>
<!-- Created with Inkscape (http://www.inkscape.org/) -->

<svg
   width="100.48701mm"
   height="115.12531mm"
   viewBox="0 0 100.48701 115.12531"
   version="1.1"
   id="svg8193"
   inkscape:export-filename="fo.svg"
   inkscape:export-xdpi="96"
   inkscape:export-ydpi="96"
   xmlns:inkscape="http://www.inkscape.org/namespaces/inkscape"
   xmlns:sodipodi="http://sodipodi.sourceforge.net/DTD/sodipodi-0.dtd"
   xmlns="http://www.w3.org/2000/svg"
   xmlns:svg="http://www.w3.org/2000/svg">
  <sodipodi:namedview
     id="namedview8195"
     pagecolor="#ffffff"
     bordercolor="#000000"
     borderopacity="0.25"
     inkscape:showpageshadow="2"
     inkscape:pageopacity="0.0"
     inkscape:pagecheckerboard="0"
     inkscape:deskcolor="#d1d1d1"
     inkscape:document-units="mm"
     showgrid="false" />
  <defs
     id="defs8190" />
  <g
     inkscape:label="圖層 1"
     inkscape:groupmode="layer"
     id="layer1"
     transform="translate(-6.3713652,-5.1866029)">
    <g
       id="g22138"
       transform="matrix(14.867837,0,0,14.867837,-586.87237,-75.183344)"
       style="fill:#87cdde">
      <g
         id="g19129"
         transform="matrix(1.0418019,0,0,1.0418019,-21.787523,-1.85708)"
         style="fill:#b3b3b3">
        <path
           style="fill:#b3b3b3;stroke:#000000;stroke-width:0.3;stroke-linecap:round"
           d="m 63.788959,10.504697 c 0.137253,0 0.21484,0.02979 0.27568,-0.09189 0.0069,-0.0137 -0.01371,-0.0391 0,-0.04595 0.02739,-0.0137 0.06449,0.0137 0.09189,0 0.03875,-0.01937 0.06127,-0.06126 0.0919,-0.09189 0.01531,0 0.03223,0.0069 0.04594,0 0.03875,-0.01937 0.0508,-0.0782 0.0919,-0.09189 0.05982,-0.01994 0.173482,0.02813 0.229732,0 0.01371,-0.0069 -0.01082,-0.03512 0,-0.04595 0.06993,-0.06993 0.240318,-0.1431329 0.321628,-0.1837869 0.04902,-0.024512 0.209705,-0.1696577 0.229735,-0.2297337 0.0097,-0.02906 -0.01577,-0.065629 0,-0.091894 0.05747,-0.095785 0.23208,-0.2126144 0.27568,-0.3216275 0.01707,-0.04266 -0.0076,-0.092518 0,-0.1378402 0.03364,-0.2017856 0.14605,-0.3807204 0.0919,-0.5973083 -0.0083,-0.033225 -0.03765,-0.05867 -0.04595,-0.091894 -0.01722,-0.068875 0.02244,-0.162445 0,-0.229734 -0.03448,-0.1034521 -0.133497,-0.2669868 -0.183787,-0.3675742 -0.05074,-0.1014844 -0.229733,-0.2925326 -0.229733,-0.413521 0,-0.136832 -0.323772,-0.091894 -0.413522,-0.091894 -0.293841,0 -0.61599,0.1655381 -0.872988,0.2756807 -0.09443,0.040471 -0.214032,0.055648 -0.275682,0.1378403 -0.02906,0.038746 -0.02427,0.094521 -0.04594,0.1378402 -0.02906,0.058118 -0.104413,0.082121 -0.137843,0.1378405 -0.108865,0.1814441 -0.261307,0.5800241 -0.321627,0.7810953 -0.0132,0.044009 0.01453,0.094251 0,0.1378402 -0.03249,0.097468 -0.09611,0.1817958 -0.13784,0.2756808 -0.02079,0.046785 -0.07139,0.4135209 -0.09189,0.4135209 -0.01532,0 0,-0.03063 0,-0.045947 0,-0.076578 0,-0.1531557 0,-0.2297337 0,-0.037454 -0.10869,-0.3746503 -0.13784,-0.4135213 -0.07484,-0.099792 -0.126967,-0.1620358 -0.183787,-0.2756805 -0.02166,-0.043319 -0.0117,-0.1035935 -0.04595,-0.1378405 -0.02421,-0.024217 -0.07427,-0.016581 -0.09189,-0.045947 -0.03248,-0.054149 -0.01771,-0.127306 -0.04595,-0.183787 -0.09605,-0.1921037 -0.548074,-0.6556489 -0.689202,-0.7810955 -0.08254,-0.073374 -0.19084,-0.113083 -0.27568,-0.183787 -0.04992,-0.041598 -0.08212,-0.1044092 -0.13784,-0.1378402 -0.05253,-0.031519 -0.126908,0.022752 -0.183788,0 -0.05127,-0.020509 -0.08545,-0.074432 -0.13784,-0.091894 -0.245956,-0.081985 -0.661238,0.031965 -0.87299,0.1378405 -0.04939,0.024695 -0.08657,0.071385 -0.13784,0.091893 -0.02844,0.011377 -0.06641,-0.016991 -0.09189,0 -0.0059,0.00391 -0.359275,0.4345387 -0.367575,0.4594677 -0.02612,0.07837 -0.01162,0.9145755 0,0.9648825 0.07996,0.3465103 0.335401,0.6214102 0.505415,0.9189358 0.121912,0.2133457 0.05239,0.09018 0.27568,0.2297337 0.06494,0.040586 0.115297,0.1035934 0.183787,0.1378404 0.306322,0.15316 0.674352,0.20252 1.01083,0.183787 l -1.102723,3.767636 2.205446,-3.032487 0.275681,3.354115 z"
           id="path12480" />
        <path
           style="fill:#ffffff;stroke:#000000;stroke-width:0.3;stroke-linecap:round"
           d="M 61.399737,9.5857584 C 61.056123,9.5123375 60.913425,9.2936306 60.66459,9.0803439 60.56648,8.9962539 60.490568,8.9439416 60.434857,8.8046631 c -0.02233,-0.055845 -0.07382,-0.8451188 -0.04595,-0.872989 0.02688,-0.026885 0.243456,-0.079004 0.27568,-0.091894 0.103891,-0.041556 0.296653,-0.084903 0.41352,-0.045947 0.08136,0.027119 0.135088,0.1350883 0.183787,0.1837872 0.111596,0.1115955 0.06747,-0.013663 0.13784,0.091893 0.139076,0.2086102 0.168381,0.4746001 0.275683,0.6892018 0.02468,0.049391 0.07443,0.085453 0.09189,0.1378402 0.02827,0.084796 0,0.2748894 0,0.3675743 0,0.010935 0.02043,0.2552649 0,0.2756807 -0.01521,0.015216 -0.115083,-0.00379 -0.13784,0 -0.07703,0.012838 -0.153156,0.030631 -0.229735,0.045947 z"
           id="path14660" />
        <path
           style="fill:#ffffff;stroke:#000000;stroke-width:0.3;stroke-linecap:round"
           d="m 63.559237,9.4479181 c 0.0096,-0.1708176 -0.03388,-0.3457572 0.04595,-0.5054147 0.07006,-0.1401175 0.03643,0.084034 0.09189,-0.1378403 0.09324,-0.3729625 0.323358,-0.7130407 0.73515,-0.9189357 0.02209,-0.011044 0.296156,-0.016981 0.321628,0 0.02849,0.018997 0.0254,0.064496 0.04594,0.091894 0.247872,0.330494 -0.05102,-0.096965 0.183787,0.1378403 0.0559,0.0559 0.158745,0.3758536 0.13784,0.4594677 -0.01236,0.04945 -0.05469,0.2384825 -0.09189,0.2756808 -0.02421,0.024217 -0.0729,0.017452 -0.0919,0.045947 -0.01699,0.025487 0.01371,0.064496 0,0.091893 -0.01937,0.038746 -0.06786,0.05585 -0.09189,0.091894 -0.0085,0.012742 0,0.030631 0,0.045947 -0.01532,0.030631 -0.02172,0.067677 -0.04595,0.091893 -0.02421,0.024215 -0.06768,0.02173 -0.09189,0.045947 -0.06315,0.063148 -0.08205,0.1599988 -0.13784,0.229734 -0.07151,0.089391 -0.156324,0.1103759 -0.183787,0.1378402 -0.01082,0.010829 0,0.030631 0,0.045947 -0.01532,0.015317 -0.02793,0.033932 -0.04595,0.045947 -0.13231,0.088207 -0.301982,0.091893 -0.459467,0.091893 -0.04071,0 -0.155274,0.014256 -0.183788,0 -0.01371,-0.00685 0.0037,-0.031089 0,-0.045947 C 63.68532,9.7225594 63.6702,9.6762214 63.65112,9.6317049 63.62414,9.5687499 63.58986,9.5091803 63.55923,9.4479179 Z"
           id="path14664" />
        <path
           style="fill:#550000;stroke:#000000;stroke-width:0.327831;stroke-linecap:round"
           d="m 62.760373,10.758176 c -0.147817,-0.0027 -0.29729,0.111949 -0.446409,0.02682 -0.0822,-0.04692 -0.08613,-0.151984 -0.140971,-0.214594 -0.06885,-0.0786 -0.047,0.0012 -0.047,-0.160945 0,-0.02149 -0.015,-0.143819 0,-0.160945 0.01399,-0.01598 0.170571,-0.124194 0.187962,-0.134122 0.02525,-0.01441 0.06679,0.01035 0.09398,0 0.09439,-0.03592 0.224311,-0.08351 0.328934,-0.05365 0.07585,0.02165 0.100605,0.12449 0.164467,0.160946 0.007,0.004 0.01999,-0.008 0.02349,0 0.01496,0.03416 0.0053,0.405512 0,0.429188 -0.0026,0.01227 -0.01734,0.0163 -0.02349,0.02682 -0.0097,0.01664 -0.0078,0.04471 -0.02349,0.05365 -0.03571,0.02039 -0.07831,0.01788 -0.117476,0.02682 z"
           id="path14670" />
        <path
           style="fill:#b3b3b3;stroke:#000000;stroke-width:0.3;stroke-linecap:round"
           d="m 63.053822,10.642534 c 0.234985,-0.04107 0.225663,0.158779 0.367575,0.229734 0.07116,0.03558 0.06618,-0.02572 0.13784,0.04595"
           id="path15402" />
        <path
           style="fill:#b3b3b3;stroke:#000000;stroke-width:0.3;stroke-linecap:round"
           d="m 62.054525,10.494038 c -0.09153,0.130871 -0.190394,0.03097 -0.292401,0.06498 -0.01453,0.0048 -0.01879,0.02564 -0.03249,0.03249 -0.0097,0.0048 -0.02484,-0.0077 -0.03249,0 -0.0076,0.0077 0.01027,0.02906 0,0.03249 -0.0094,0.0031 -0.399926,0.03249 -0.422363,0.03249"
           id="path15406" />
      </g>
    </g>
  </g>
</svg>
