<?xml version="1.0" encoding="UTF-8" standalone="no"?>
<!-- Created with Inkscape (http://www.inkscape.org/) -->

<svg
   width="100.185mm"
   height="97.844841mm"
   viewBox="0 0 100.185 97.844841"
   version="1.1"
   id="svg20482"
   inkscape:export-filename="o.svg"
   inkscape:export-xdpi="96"
   inkscape:export-ydpi="96"
   xmlns:inkscape="http://www.inkscape.org/namespaces/inkscape"
   xmlns:sodipodi="http://sodipodi.sourceforge.net/DTD/sodipodi-0.dtd"
   xmlns="http://www.w3.org/2000/svg"
   xmlns:svg="http://www.w3.org/2000/svg">
  <sodipodi:namedview
     id="namedview20484"
     pagecolor="#ffffff"
     bordercolor="#000000"
     borderopacity="0.25"
     inkscape:showpageshadow="2"
     inkscape:pageopacity="0.0"
     inkscape:pagecheckerboard="0"
     inkscape:deskcolor="#d1d1d1"
     inkscape:document-units="mm"
     showgrid="false" />
  <defs
     id="defs20479" />
  <g
     inkscape:label="圖層 1"
     inkscape:groupmode="layer"
     id="layer1"
     transform="translate(-6.7388174,-4.5797976)">
    <g
       id="g223990"
       transform="matrix(10.906927,0,0,10.906927,39.382756,-148.41272)"
       style="fill:#f4eed7">
      <g
         id="g133282"
         transform="matrix(0.73027393,0,0,0.73027393,-70.641951,-2.4494203)"
         style="fill:#d5e5ff">
        <g
           id="g161733"
           transform="matrix(0.90192442,0,0,0.99968137,9.1053835,-35.392242)">
          <path
             style="fill:none;stroke:#000000;stroke-width:0.432637;stroke-linecap:round;stroke-dasharray:none"
             d="m 101.58961,64.762144 c 0.0233,0 0.15195,-0.09643 0.0698,0 0.0493,-0.0445 0.14145,-0.332789 0.17265,-0.389079 0.0103,-0.01876 -0.11335,0.219036 -0.10295,0.200266 0.0312,-0.05629 -0.0312,-0.132523 0,-0.188813 0.0294,-0.05308 0.11872,-0.06959 0.13952,-0.125875 0.0344,-0.09304 0.0343,-0.218598 0.0698,-0.314688 0.0663,-0.179575 0.19624,-0.354192 0.27904,-0.503502 0.0372,-0.06713 -0.0372,-0.18462 0,-0.25175 0.0803,-0.144876 0.0818,0.02744 0.20928,-0.125876 0.0442,-0.05307 0.0369,-0.129473 0.0698,-0.188813 0.0375,-0.06766 0.12132,-0.114973 0.13952,-0.188813 0.0303,-0.122878 -2e-5,-0.251751 0,-0.377626 1e-5,-0.125876 5e-5,-0.251753 8e-5,-0.377629 0.12577,0 0.28704,-0.08633 0.41855,-0.125878 0.22395,-0.06735 1.94764,0 2.30206,0 0.24118,0 0.45991,-0.06293 0.69759,-0.06293 0.17175,0 0.32724,0.04353 0.27904,0 -0.12956,-0.116893 -0.3551,-0.194495 -0.48831,-0.31469 -0.0368,-0.03316 -0.0282,-0.09771 -0.0698,-0.125874 -0.091,-0.06155 -0.69807,-0.302358 -0.83712,-0.377628 -0.28379,-0.153608 0.0235,-0.125787 -0.34879,-0.251748 -0.11102,-0.03757 -0.23982,-0.0208 -0.3488,-0.06294 -0.10163,-0.0393 -0.45215,-0.305945 -0.55808,-0.377625 -0.10593,-0.07169 -0.12397,-0.174771 -0.20927,-0.251751 -0.0822,-0.07417 -0.18824,-0.123282 -0.27904,-0.188812 -0.12286,-0.08868 -0.1787,-0.22416 -0.27904,-0.31469 -0.0368,-0.03318 -0.10272,-0.02978 -0.13952,-0.06294 -0.052,-0.04691 -0.0257,-0.135743 -0.0698,-0.188813 -0.37633,-0.452708 0.0775,0.132822 -0.27903,-0.188812 -0.16264,-0.146732 -0.20768,-0.313244 -0.3488,-0.440564 -0.085,-0.07669 -0.2638,-0.112122 -0.3488,-0.188812 -0.0286,-0.02585 -0.0683,-0.172763 -0.13951,-0.188813 -0.44081,-0.09942 -1.04238,0.123699 -1.39519,0.314686 -0.16387,0.08871 -0.1616,0.208739 -0.279033,0.31469 -0.03677,0.03318 -0.102756,0.02978 -0.139516,0.06294 -0.118572,0.106973 -0.216768,0.23716 -0.279038,0.377625 -0.01727,0.03895 0.0147,0.08606 0,0.125874 -0.03289,0.08901 -0.106621,0.162741 -0.139521,0.251751 -0.0375,0.101486 -0.02813,0.214527 -0.06976,0.31469 -0.02944,0.07082 -0.113011,0.117053 -0.139521,0.188813 -0.05331,0.144281 0,0.413251 0,0.566437 0,0.06 0.04377,0.605926 0.06976,0.629376 0.09588,0.0865 0.232532,0.125876 0.348794,0.188816 -0.03346,0.449808 0.251421,1.371523 10e-7,1.825192 -0.02325,0.04196 -0.03299,0.09271 -0.06976,0.125875 -0.01644,0.01483 -0.05936,-0.01876 -0.06976,0 -0.0312,0.05629 0.04933,0.144313 0,0.188813 -0.05747,0.05186 -0.139518,-0.0034 -0.139518,0.125875 -0.232531,-0.02098 -0.470114,-0.01465 -0.697592,-0.06294 -0.172383,-0.03659 -0.324847,-0.127362 -0.488315,-0.188813 -0.46427,-0.174529 -0.941216,-0.366976 -1.395186,-0.503502 -0.138247,-0.04158 -0.35883,0.05841 -0.488316,0 -0.167256,-0.07545 -0.424625,-0.08921 -0.627833,-0.125875 -0.07773,-0.01402 -0.212122,0.03019 -0.279038,0 -0.0208,-0.0094 0.0208,-0.05356 0,-0.06294 -0.05488,-0.02476 -0.496343,-0.02785 -0.558074,0 -0.02941,0.01327 -0.04035,0.04967 -0.06976,0.06294 -0.04212,0.019 -0.177031,-0.02909 -0.209278,0 -0.01644,0.01483 0,0.04196 0,0.06294 -0.02325,0.04196 -0.0265,0.09985 -0.06976,0.125875 -0.0387,0.02327 -0.09792,-0.01877 -0.139519,0 -0.0208,0.0094 0.01644,0.0481 0,0.06294 -0.01644,0.01483 -0.04896,-0.0094 -0.06976,0 -0.05883,0.02654 -0.08069,0.09934 -0.139519,0.125875 -0.0431,0.01944 -0.25318,0.03961 -0.279037,0.06294 -0.01644,0.01483 0.01644,0.0481 0,0.06294 -0.04769,0.04303 -0.848772,-1.338925 -0.920292,-1.338925 -0.195051,0.704229 0.799115,2.622491 1.199332,3.164112 0.06188,0.08374 0.213635,0.129806 0.279037,0.188813 0.207738,0.187423 -0.104333,0.08198 0.209278,0.25175 0.06305,0.03413 0.150452,0.02313 0.209278,0.06294 0.0416,0.02815 0.03299,0.0927 0.06976,0.125875 0.03677,0.03317 0.09792,0.03479 0.139519,0.06294 0.501777,0.339532 -0.147219,-0.06988 0.209278,0.251751 0.052,0.04691 0.146224,0.02881 0.209278,0.06294 0.169949,0.092 0.300164,0.258104 0.488315,0.314688 0.25023,0.07525 0.959081,-0.0079 1.116149,0.06294 0.03024,0.01364 0.414467,0.30731 0.418556,0.314688 0.0104,0.01876 -0.01644,0.0481 0,0.06294 0.03288,0.02967 0.100823,-0.02327 0.139518,0 0.05472,0.03292 0.08069,0.09934 0.139519,0.125875 0.0416,0.01876 0.09634,-0.01558 0.139518,0 0.07784,0.02809 0.130486,0.100025 0.209278,0.125875 0.96707,0.317274 2.139008,0.265901 2.999648,-0.25175 0.0612,-0.0368 0.15728,-0.01603 0.20928,-0.06294 0.0368,-0.03317 0.033,-0.0927 0.0698,-0.125875 0.0129,-0.0116 0.19642,-0.05134 0.20928,-0.06294 0.10726,-0.09677 0.36624,-0.944107 0.41855,-1.132878 0.0162,-0.05864 0.0259,-0.771522 0,-0.81819 -0.0678,-0.12229 -0.22861,-0.06294 -0.34886,-0.06294 z"
             id="path155169"
             sodipodi:nodetypes="cccsssccscssscssscccsssssssccssccsssscssssscsssscsssssssssscssscssscsssssssssssssssssscsccsc" />
          <path
             style="fill:none;stroke:#000000;stroke-width:0.432637;stroke-linecap:round;stroke-dasharray:none"
             d="m 97.013006,66.998013 c 0,0.741445 -0.02141,-0.06594 0.209278,1.321691 0.02069,0.124482 -0.02736,0.254194 0,0.377625 0.03435,0.154857 0.06976,0.179168 0.06976,0.31469"
             id="path159527" />
          <path
             style="fill:none;stroke:#000000;stroke-width:0.432637;stroke-linecap:round;stroke-dasharray:none"
             d="m 100.54329,67.405527 c 0.093,0.04196 0.21246,0.0538 0.27903,0.125874 0.1599,0.173112 0.13952,1.0515 0.13952,1.321691"
             id="path159529" />
          <path
             style="fill:none;stroke:#000000;stroke-width:0.432637;stroke-linecap:round;stroke-dasharray:none"
             d="m 97.201627,68.952656 c -0.959341,0.865529 0.0455,-0.07596 -0.394617,0.400534 -0.0096,0.146561 -0.172192,0.110848 -0.246636,0.178016 -0.0091,0.0082 -0.04024,0.125309 -0.04933,0.13351 -0.01165,0.01047 -0.03772,-0.01047 -0.04933,0 -0.0765,0.06902 0.120962,0.129263 0.147981,0.178016 0.0074,0.01327 -0.01161,0.03403 0,0.0445 0.01165,0.01047 0.03306,-0.0022 0.04933,0 0.09901,0.01276 0.201078,0.01598 0.295962,0.0445 0.05624,0.01693 0.09174,0.07209 0.14798,0.08901 0.08307,0.02497 0.507256,0.0382 0.591928,0 0.114374,-0.0516 0.101226,-0.135826 0.147985,-0.178013 0.01161,-0.01051 0.03772,0.01047 0.04932,0 0.109602,-0.09888 -0.19304,-0.417009 -0.246636,-0.489542 -0.0091,-0.01236 0.01161,-0.03403 0,-0.0445 -0.04192,-0.03782 -0.09495,-0.06509 -0.147981,-0.08901 -0.0294,-0.01326 -0.0754,0.02099 -0.09865,0 -0.01161,-0.01047 0.0091,-0.03215 0,-0.04451 -0.0584,-0.07903 -0.131539,-0.148345 -0.19731,-0.222519 z"
             id="path160261" />
          <path
             style="fill:none;stroke:#000000;stroke-width:0.432637;stroke-linecap:round;stroke-dasharray:none"
             d="m 100.9505,68.819147 c -0.16442,0.103842 -0.33545,0.199649 -0.49327,0.311526 -0.11804,0.08367 -0.34529,0.28288 -0.34529,0.445036 0,0.01482 0.0337,-0.0047 0.0493,0 0.0697,0.02098 0.12903,0.06437 0.1973,0.08901 0.15732,0.05677 0.95772,0.115019 0.98655,0.08901 0.0419,-0.03782 -0.0766,-0.08385 -0.0986,-0.133514 -0.0183,-0.04132 0,-0.08901 0,-0.13351 -0.0493,-0.05934 -0.10569,-0.11441 -0.14799,-0.178015 -0.0514,-0.07729 0.0349,-0.146522 -0.0493,-0.222519"
             id="path160263" />
          <path
             style="fill:none;stroke:#000000;stroke-width:0.405188;stroke-linecap:round;stroke-dasharray:none"
             d="m 103.35851,60.237569 c -0.20401,-0.119277 -0.14741,-0.222384 -0.31111,-0.08952 -0.0638,0.05178 -0.44607,0.272231 -0.49401,0.340618 -0.018,0.02558 -0.14657,0.585718 -0.12088,0.62127 0.0535,0.07413 0.0493,0.276364 0.0817,0.376301 0.0118,0.03631 0.14983,0.05 0.16334,0.06865 0.0317,0.044 0.16076,0.08891 0.14644,0.203056"
             id="path160265"
             sodipodi:nodetypes="csscccc" />
          <path
             style="fill:none;stroke:#000000;stroke-width:0.394543;stroke-linecap:round;stroke-dasharray:none"
             d="m 101.32546,59.561022 c 0.24978,-0.08002 0.18984,0.420629 0.0543,0.336519 -0.10008,-0.06206 -0.0543,-0.272841 -0.0543,-0.336519 z"
             id="path160267" />
          <path
             style="fill:none;stroke:#000000;stroke-width:0.432637;stroke-linecap:round;stroke-dasharray:none"
             d="m 95.499837,64.34653 c 0.247242,0.216176 0.421001,0.495232 0.690582,0.689807 0.02466,0.01779 0.04933,0.0534 0.07399,0.06676 0.02229,0.01207 0.0517,0.01018 0.07399,0.02225 0.01993,0.0108 0.02941,0.03371 0.04933,0.0445 0.184556,0.09991 0.554376,0.206843 0.764573,0.244771 0.14864,0.02682 0.293628,0.02363 0.443947,0.0445 0.08286,0.01149 0.16331,0.03617 0.246636,0.04451 0.207747,0.02084 0.43249,0 0.641253,0 0.146968,0 0.321976,0.02204 0.468611,0 0.05077,-0.0076 0.103572,-0.04451 0.147981,-0.04451"
             id="path161721" />
          <path
             style="fill:#ffff00;stroke:#ffff00;stroke-width:0.196903;stroke-linecap:round;stroke-dasharray:none"
             d="m 487.26603,198.61085 c -0.59051,-0.612 -0.52662,-1.89067 0.12024,-2.40646 0.61835,-0.49306 1.24866,-0.38947 2.41517,0.39692 0.47838,0.3225 1.03537,0.58636 1.23775,0.58636 0.20238,0 0.47059,0.12366 0.59603,0.2748 0.12543,0.15114 0.74063,0.53803 1.3671,0.85975 0.62648,0.32172 1.02183,0.59655 0.87856,0.61074 -0.14327,0.0142 -1.60333,0.0376 -3.24459,0.052 -2.90476,0.0255 -2.99436,0.0155 -3.37026,-0.37406 z"
             id="path3218"
             transform="matrix(0.40170711,0,0,0.36242493,-92.879333,-10.574026)" />
        </g>
      </g>
    </g>
  </g>
</svg>
