<?xml version="1.0" encoding="UTF-8" standalone="no"?>
<!-- Created with Inkscape (http://www.inkscape.org/) -->

<svg
   width="100.566mm"
   height="99.854691mm"
   viewBox="0 0 100.566 99.854691"
   version="1.1"
   id="svg20482"
   inkscape:export-filename="e.svg"
   inkscape:export-xdpi="96"
   inkscape:export-ydpi="96"
   xmlns:inkscape="http://www.inkscape.org/namespaces/inkscape"
   xmlns:sodipodi="http://sodipodi.sourceforge.net/DTD/sodipodi-0.dtd"
   xmlns="http://www.w3.org/2000/svg"
   xmlns:svg="http://www.w3.org/2000/svg">
  <sodipodi:namedview
     id="namedview20484"
     pagecolor="#ffffff"
     bordercolor="#000000"
     borderopacity="0.25"
     inkscape:showpageshadow="2"
     inkscape:pageopacity="0.0"
     inkscape:pagecheckerboard="0"
     inkscape:deskcolor="#d1d1d1"
     inkscape:document-units="mm"
     showgrid="false" />
  <defs
     id="defs20479" />
  <g
     inkscape:label="圖層 1"
     inkscape:groupmode="layer"
     id="layer1"
     transform="translate(-8.3040688,-4.8054799)">
    <g
       id="g223990"
       transform="matrix(10.906927,0,0,10.906927,39.382756,-148.41272)"
       style="fill:#f4eed7">
      <g
         id="g133282"
         transform="matrix(0.73027393,0,0,0.73027393,-70.641951,-2.4494203)"
         style="fill:#d5e5ff">
        <g
           id="g161733"
           transform="matrix(0.90192442,0,0,0.99968137,9.1053835,-35.392242)">
          <g
             id="g178486"
             style="fill:#f6d5ff"
             transform="matrix(1.8502941,0,0,1.6693574,-155.40821,-1.2631121)">
            <g
               id="g224002"
               transform="translate(59.179455,-0.55136139)"
               style="fill:#f6d5ff">
              <path
                 style="fill:#f6d5ff;stroke:#000000;stroke-width:0.212427;stroke-linecap:round;stroke-dasharray:none"
                 d="m 75.099447,36.845568 c 0.971477,-0.679026 2.035327,-0.757626 3.128728,-0.644149 l 0.529124,3.381786 c 1.763733,-0.931351 2.307571,-0.302256 2.335043,-0.287566 1.855735,1.131016 1.557633,1.994104 0.540627,3.186242 -1.380264,0.809127 -3.133972,0.809064 -4.867652,0.970261 -0.945815,-2.045471 -1.237738,-4.331022 -1.66587,-6.606574 z"
                 id="path178466"
                 sodipodi:nodetypes="ccccccc" />
              <path
                 style="fill:#f6d5ff;stroke:#000000;stroke-width:0.3;stroke-linecap:round;stroke-dasharray:none"
                 d="m 76.609725,42.788383 c 1.697604,-0.94537 2.898018,-1.308906 4.938369,-0.45485"
                 id="path178470"
                 sodipodi:nodetypes="cc" />
              <path
                 style="fill:#f6d5ff;stroke:#000000;stroke-width:0.3;stroke-linecap:round;stroke-dasharray:none"
                 d="m 77.616893,42.49598 c 0.649785,0.747252 0.649785,0.747252 0.649785,0.747252"
                 id="path178472" />
              <path
                 style="fill:#f6d5ff;stroke:#000000;stroke-width:0.3;stroke-linecap:round;stroke-dasharray:none"
                 d="m 78.396636,42.268555 c 0.812231,0.812231 0.812231,0.812231 0.812231,0.812231"
                 id="path178474" />
              <path
                 style="fill:#f6d5ff;stroke:#000000;stroke-width:0.3;stroke-linecap:round;stroke-dasharray:none"
                 d="m 79.598739,42.106109 c 0.714764,0.87721 0.714764,0.87721 0.714764,0.87721"
                 id="path178476" />
              <path
                 style="fill:#f6d5ff;stroke:#000000;stroke-width:0.3;stroke-linecap:round;stroke-dasharray:none"
                 d="m 75.375131,37.330184 c 0.837272,-0.474945 1.700822,-0.85354 2.79408,-0.389872"
                 id="path178478"
                 sodipodi:nodetypes="cc" />
            </g>
          </g>
          <path
             style="fill:#666666;fill-opacity:1;stroke:#666666;stroke-width:1.07912;stroke-linecap:round;stroke-opacity:0.974441"
             d="m 123.78442,381.90287 c -0.47386,-1.18983 -2.37085,-5.58956 -4.21555,-9.77716 -1.84469,-4.18761 -3.05619,-7.89056 -2.69222,-8.22878 1.05132,-0.97695 36.92463,-19.8472 37.73054,-19.8472 0.39953,0 1.64461,1.17666 2.76685,2.6148 1.12223,1.43814 7.76268,9.17094 14.75654,17.18401 6.99386,8.01307 12.56147,14.70038 12.37247,14.8607 -0.18901,0.16032 -12.7637,1.22268 -27.94377,2.36079 -15.18006,1.13811 -28.57058,2.27784 -29.75671,2.53274 -1.6008,0.344 -2.37864,-0.0941 -3.01815,-1.6999 z"
             id="path39628"
             transform="matrix(0.0368302,0,0,0.03322865,91.674715,57.397648)" />
          <path
             style="fill:#666666;fill-opacity:1;stroke:#666666;stroke-width:1.07912;stroke-linecap:round;stroke-opacity:0.974441"
             d="m 202.58685,374.77144 c -0.85737,-1.45515 -8.46293,-10.54178 -16.90125,-20.19251 l -15.34241,-17.54678 3.10119,-1.34124 c 3.618,-1.56475 20.60125,-7.82056 21.23125,-7.82056 0.23575,0 0.42864,1.36861 0.42864,3.04136 0,2.68552 2.30293,5.35383 19.68246,22.80533 12.81592,12.869 19.20741,19.92227 18.32077,20.21771 -0.74893,0.24955 -6.07275,0.92551 -11.8307,1.50213 -5.75796,0.57662 -11.96799,1.25808 -13.80006,1.51434 -2.87507,0.40217 -3.54444,0.10378 -4.88989,-2.17978 z"
             id="path39630"
             transform="matrix(0.0368302,0,0,0.03322865,91.674715,57.397648)" />
          <path
             style="fill:#666666;fill-opacity:1;stroke:#666666;stroke-width:1.07912;stroke-linecap:round;stroke-opacity:0.974441"
             d="m 251.25623,369.54365 c 0,-1.58974 -5.88126,-8.06935 -21.39405,-23.57065 -11.76672,-11.75801 -21.08176,-21.68468 -20.70008,-22.05928 1.87614,-1.84133 33.53008,-6.51238 44.13191,-6.51238 3.48016,0 3.66683,0.13591 2.69099,1.95928 -0.57672,1.0776 -0.78335,3.11192 -0.45919,4.52071 0.32416,1.40878 7.59731,11.12698 16.16256,21.59599 8.56525,10.46901 15.45336,19.15477 15.30692,19.30169 -0.24801,0.24882 -24.18693,4.96871 -32.17008,6.34279 -3.26908,0.56268 -3.56898,0.43007 -3.56898,-1.57815 z"
             id="path39632"
             transform="matrix(0.0368302,0,0,0.03322865,91.674715,57.397648)" />
          <path
             style="fill:#666666;fill-opacity:1;stroke:#666666;stroke-width:1.07912;stroke-linecap:round;stroke-opacity:0.974441"
             d="m 287.90087,339.57942 c -19.29108,-23.65809 -19.1212,-22.34846 -2.56987,-19.81151 18.82711,2.88577 41.49872,9.1754 62.98939,17.47471 l 7.12585,2.75188 -7.60171,3.81261 c -8.94066,4.48415 -27.09534,11.74727 -35.20183,14.08315 -3.1407,0.90498 -6.18541,1.82413 -6.76601,2.04253 -0.5806,0.21841 -8.66972,-8.94061 -17.97582,-20.35337 z"
             id="path39634"
             transform="matrix(0.0368302,0,0,0.03322865,91.674715,57.397648)" />
        </g>
      </g>
    </g>
  </g>
</svg>
