<?xml version="1.0" encoding="UTF-8" standalone="no"?>
<!-- Created with Inkscape (http://www.inkscape.org/) -->

<svg
   width="100.53201mm"
   height="154.90707mm"
   viewBox="0 0 100.53201 154.90707"
   version="1.1"
   id="svg20482"
   inkscape:export-filename="ang.svg"
   inkscape:export-xdpi="96"
   inkscape:export-ydpi="96"
   xmlns:inkscape="http://www.inkscape.org/namespaces/inkscape"
   xmlns:sodipodi="http://sodipodi.sourceforge.net/DTD/sodipodi-0.dtd"
   xmlns="http://www.w3.org/2000/svg"
   xmlns:svg="http://www.w3.org/2000/svg">
  <sodipodi:namedview
     id="namedview20484"
     pagecolor="#ffffff"
     bordercolor="#000000"
     borderopacity="0.25"
     inkscape:showpageshadow="2"
     inkscape:pageopacity="0.0"
     inkscape:pagecheckerboard="0"
     inkscape:deskcolor="#d1d1d1"
     inkscape:document-units="mm"
     showgrid="false" />
  <defs
     id="defs20479" />
  <g
     inkscape:label="圖層 1"
     inkscape:groupmode="layer"
     id="layer1"
     transform="translate(-65.388498,-16.159544)">
    <g
       id="g223990"
       transform="matrix(10.906927,0,0,10.906927,39.382756,-148.41272)"
       style="fill:#f4eed7">
      <g
         id="g133282"
         transform="matrix(0.73027393,0,0,0.73027393,-70.641951,-2.4494203)"
         style="fill:#d5e5ff">
        <g
           id="g161733"
           transform="matrix(0.90192442,0,0,0.99968137,9.1053835,-35.392242)">
          <g
             id="g42028"
             transform="matrix(1.0455677,0,0,0.9433236,83.389456,-18.607899)">
            <g
               id="g45867"
               transform="matrix(1.1934627,0,0,1.1934627,-83.745097,-13.776149)">
              <g
                 id="g221717"
                 transform="matrix(0.97851005,0,0,0.97851018,28.401668,25.087143)"
                 style="fill:#ac9393">
                <g
                   id="g223926"
                   transform="matrix(1.2023198,0,0,1.2023196,-5.7349943,-8.6516189)">
                  <g
                     id="g49478">
                    <path
                       style="fill:#ffd42a;stroke:#000000;stroke-width:0.3;stroke-linecap:round;stroke-dasharray:none"
                       d="m 55.319924,61.109219 c -0.257807,0.07076 -0.567709,-0.06483 -0.82704,0 -0.131278,0.03282 -0.212635,0.288766 -0.275682,0.367575 -0.08118,0.101478 -0.194496,0.174202 -0.27568,0.27568 -0.388335,0.48542 -0.633442,1.716535 -0.827043,2.29734 -0.12737,0.382114 -0.392546,0.732158 -0.55136,1.102722 -0.267255,0.623592 -0.464145,1.094542 -0.0919,1.745978 0.765045,1.338826 1.854867,1.200282 3.216275,1.654085 0.367575,0.122523 0.721516,0.298262 1.102723,0.367572 0.150685,0.0274 0.30785,-0.02167 0.459467,0 0.06781,0.0097 0.122526,0.06127 0.183788,0.0919 0.09189,0.03063 0.179564,0.07988 0.275679,0.09189 0.279104,0.03489 1.023753,0.08328 1.28651,-0.09189 0.262861,-0.175238 0.709534,-0.63691 0.827043,-0.918935 0.111768,-0.268239 0.155432,-0.562496 0.275683,-0.827042 0.03585,-0.07887 0.145039,-0.106296 0.183784,-0.183788 0.159452,-0.318902 0.0919,-0.75734 0.0919,-1.102722 0,-0.183153 0.08285,-0.803693 0,-1.01083 -0.04102,-0.102542 -0.134396,-0.176898 -0.183788,-0.27568 -0.157319,-0.314637 -0.212045,-0.69977 -0.367575,-1.01083 -0.153088,-0.306176 -0.558033,-0.53185 -0.735147,-0.827043 -0.04984,-0.08306 -0.03377,-0.198188 -0.0919,-0.27568 -0.08219,-0.10959 -0.270708,-0.08692 -0.367572,-0.183787 -0.469612,-0.469612 0.385307,0.128167 -0.275683,-0.367572 -0.139184,-0.104389 -0.402706,-0.318024 -0.551359,-0.367576 -0.05812,-0.01937 -0.128993,0.0274 -0.183788,0 -0.07749,-0.03874 -0.109495,-0.139213 -0.183787,-0.183787 -0.746131,-0.447678 -0.03924,0.01754 -0.367573,-0.09189 -0.288274,-0.09609 -0.515535,-0.305274 -0.827042,-0.367575 -0.205116,-0.04102 -0.861558,0.08369 -0.918938,0.09189 z"
                       id="path223179" />
                    <path
                       style="fill:#008000;stroke:#000000;stroke-width:0.3;stroke-linecap:round;stroke-dasharray:none"
                       d="m 55.779394,60.987416 v -1.072812 c 0,-0.88597 -0.120621,-1.906751 0.09189,-2.756807 0.02431,-0.09728 -0.02149,-0.735148 0,-0.735148 0.133059,0 0.337693,1.726806 0.459467,1.929762 0.04163,0.06939 0.483754,0.733399 0.551363,0.643255 0.146155,-0.194876 0.267051,-0.625998 0.367572,-0.827039 0.275728,-0.551456 0.517292,-0.72421 0.918938,-1.28651 0.207626,-0.290682 0.406281,-0.592508 0.551359,-0.918938 0.253799,-0.571048 -0.09632,-0.178252 0.27568,-0.643255 0.05412,-0.06765 0.145042,-0.106294 0.183788,-0.183785 0.05648,-0.112964 -0.02183,-0.472659 -0.09189,-0.367575 -0.345059,0.517586 -0.311955,2.273136 -0.367576,2.940592 -0.0065,0.07815 -0.208888,1.879563 -0.183787,1.929765 0.03431,0.06861 0.897739,-0.173185 0.918938,-0.183784 0.07749,-0.03875 0.108563,-0.140804 0.183784,-0.183788 0.402731,-0.230132 0.806794,-0.384707 1.194618,-0.643255 0.163195,-0.108797 0.291282,-0.266663 0.459467,-0.367575 0.05253,-0.03152 0.128993,0.0274 0.183788,0 0.0274,-0.01371 0.03063,-0.09189 0,-0.09189 -0.233281,0 -0.171355,0.434602 -0.27568,0.643255 -0.09878,0.197564 -0.248989,0.365008 -0.367575,0.551359 -0.276143,0.433938 -0.392073,1.127223 -0.735147,1.470298 -0.04843,0.04843 -0.126799,0.0539 -0.183788,0.09189 -0.211114,0.140743 0.0394,0.05249 -0.183787,0.275683 -0.02167,0.02167 -0.06641,-0.01699 -0.0919,0 -0.108129,0.07209 -0.159443,0.217562 -0.27568,0.27568 -0.1926,0.0963 -0.422187,0.128521 -0.643255,0.183787 -0.06645,0.01662 -0.117337,0.07528 -0.183787,0.09189 -0.05943,0.01487 -0.128992,-0.0274 -0.183788,0 -0.02739,0.01371 0.02167,0.07023 0,0.0919 -0.04585,0.04585 -0.387514,0 -0.459467,0"
                       id="path223181"
                       sodipodi:nodetypes="cscsccsccssccccssscsssscscscccsc" />
                    <path
                       style="fill:none;stroke:#000000;stroke-width:0.294053;stroke-linecap:round;stroke-dasharray:none"
                       d="m 55.949515,61.336791 c -2.180531,6.261827 -2.312686,6.568779 -2.312686,6.568779"
                       id="path223909" />
                    <path
                       style="fill:none;stroke:#000000;stroke-width:0.3;stroke-linecap:round;stroke-dasharray:none"
                       d="m 57.506028,61.664656 c -1.884378,6.627812 -2.014336,6.692792 -2.014336,6.692792"
                       id="path223911" />
                    <path
                       style="fill:none;stroke:#000000;stroke-width:0.276817;stroke-linecap:round;stroke-dasharray:none"
                       d="m 59.012127,63.212547 c -1.810095,5.481385 -1.810095,5.481385 -1.810095,5.481385"
                       id="path223913" />
                    <path
                       style="fill:none;stroke:#000000;stroke-width:0.286401;stroke-linecap:round;stroke-dasharray:none"
                       d="m 53.76296,62.924938 c 5.904959,2.32778 6.219051,2.450295 6.219051,2.450295"
                       id="path223915" />
                    <path
                       style="fill:none;stroke:#000000;stroke-width:0.292144;stroke-linecap:round;stroke-dasharray:none"
                       d="m 53.083558,64.974634 c 6.505712,2.282107 6.505712,2.282107 6.505712,2.282107"
                       id="path223917" />
                  </g>
                </g>
              </g>
            </g>
          </g>
        </g>
      </g>
    </g>
  </g>
</svg>
