<?xml version="1.0" encoding="UTF-8" standalone="no"?>
<!-- Created with Inkscape (http://www.inkscape.org/) -->

<svg
   width="99.927963mm"
   height="158.24091mm"
   viewBox="0 0 99.927963 158.24091"
   version="1.1"
   id="svg20482"
   inkscape:export-filename="eng.svg"
   inkscape:export-xdpi="96"
   inkscape:export-ydpi="96"
   xmlns:inkscape="http://www.inkscape.org/namespaces/inkscape"
   xmlns:sodipodi="http://sodipodi.sourceforge.net/DTD/sodipodi-0.dtd"
   xmlns="http://www.w3.org/2000/svg"
   xmlns:svg="http://www.w3.org/2000/svg">
  <sodipodi:namedview
     id="namedview20484"
     pagecolor="#ffffff"
     bordercolor="#000000"
     borderopacity="0.25"
     inkscape:showpageshadow="2"
     inkscape:pageopacity="0.0"
     inkscape:pagecheckerboard="0"
     inkscape:deskcolor="#d1d1d1"
     inkscape:document-units="mm"
     showgrid="false" />
  <defs
     id="defs20479" />
  <g
     inkscape:label="圖層 1"
     inkscape:groupmode="layer"
     id="layer1"
     transform="translate(-15.875251,-5.3051327)">
    <g
       id="g223990"
       transform="matrix(10.906927,0,0,10.906927,39.382756,-148.41272)"
       style="fill:#f4eed7">
      <g
         id="g133282"
         transform="matrix(0.73027393,0,0,0.73027393,-70.641951,-2.4494203)"
         style="fill:#d5e5ff">
        <g
           id="g161733"
           transform="matrix(0.90192442,0,0,0.99968137,9.1053835,-35.392242)">
          <g
             id="g42028"
             transform="matrix(1.0455677,0,0,0.9433236,83.389456,-18.607899)">
            <g
               id="g45867"
               transform="matrix(1.1934627,0,0,1.1934627,-83.745097,-13.776149)">
              <g
                 id="g221717"
                 transform="matrix(0.97851005,0,0,0.97851018,28.401668,25.087143)"
                 style="fill:#ac9393">
                <g
                   id="g223926"
                   transform="matrix(1.2023198,0,0,1.2023196,-5.7349943,-8.6516189)">
                  <g
                     id="g170466"
                     transform="matrix(0.98389781,0,0,1.0905396,-66.54177,-9.4173632)"
                     style="fill:#ffe6d5">
                    <path
                       style="fill:#ffe6d5;stroke:#000000;stroke-width:0.432637;stroke-linecap:round;stroke-dasharray:none"
                       d="m 116.04465,60.496965 c 2.41968,-4.055704 6.60948,-2.002851 6.60985,-2.002666"
                       id="path162461"
                       sodipodi:nodetypes="cc" />
                    <path
                       style="fill:#ffe6d5;stroke:#000000;stroke-width:0.432637;stroke-linecap:round;stroke-dasharray:none"
                       d="m 122.69737,58.523319 c 3.0322,3.045364 3.01756,6.631343 1.73291,10.384836 -3.31739,4.654767 -4.14985,1.089129 -6.06725,1.11259"
                       id="path162463"
                       sodipodi:nodetypes="ccc" />
                    <path
                       style="fill:#ffe6d5;stroke:#000000;stroke-width:0.432637;stroke-linecap:round;stroke-dasharray:none"
                       d="m 118.16572,61.965583 c 1.01339,-0.811145 1.711,-2.666952 3.45291,-1.068088 1.49508,1.465268 1.85907,3.667556 0.98655,6.675548 -0.58002,1.132868 -1.62747,1.575655 -3.65022,0.57855"
                       id="path162465"
                       sodipodi:nodetypes="cccc" />
                    <path
                       style="fill:#ffe6d5;stroke:#000000;stroke-width:0.432637;stroke-linecap:round;stroke-dasharray:none"
                       d="m 117.86976,64.413286 c 1.5606,-1.484194 2.39562,-1.034626 2.41703,-1.023586 0.99856,0.86829 0.44443,1.342497 0.19731,1.869154 -1.3092,1.752104 -2.11991,0.713548 -2.12107,0.712059"
                       id="path167553"
                       sodipodi:nodetypes="cccc" />
                    <path
                       style="fill:#ffe6d5;stroke:#000000;stroke-width:0.404965;stroke-linecap:round;stroke-dasharray:none"
                       d="m 116.04417,60.578438 c 2.241,9.192166 2.2657,9.401441 2.2657,9.401441"
                       id="path170459"
                       sodipodi:nodetypes="cc" />
                  </g>
                  <path
                     style="fill:#ffe6d5;fill-opacity:1;stroke:#ffe6d5;stroke-width:1.78047;stroke-linecap:round;stroke-dasharray:none;stroke-opacity:0.974441"
                     d="m 163.319,538.37875 c -0.23342,-0.74027 -2.53734,-11.33961 -5.11982,-23.55407 -9.13022,-43.18349 -29.0537,-134.6297 -61.87426,-283.99479 l -19.371623,-88.15952 1.67216,-3.02838 c 0.919688,-1.66561 2.012543,-3.40605 2.428567,-3.86764 0.690424,-0.76605 232.343266,-78.908095 233.923806,-78.908095 1.24239,0 8.36261,3.864866 9.55685,5.187481 1.12356,1.244333 0.58774,3.010619 -13.24119,43.648614 -17.36042,51.01571 -15.77598,46.70559 -16.61696,45.20288 -1.2099,-2.16192 -15.47699,-14.53885 -21.56843,-18.71096 -6.92635,-4.74394 -16.4762,-9.42303 -22.76198,-11.15255 -6.82358,-1.87749 -19.70551,-1.71868 -26.24597,0.32356 -15.96332,4.98453 -28.53619,15.89985 -53.4603,46.41237 -7.34939,8.99725 -16.33431,19.37017 -19.96649,23.05093 -7.57746,7.67881 -8.7961,10.13684 -7.37583,14.87728 1.15777,3.86429 4.03599,6.61726 6.9183,6.61726 h 2.26522 l 3.5742,31.46151 c 1.96581,17.30383 3.70385,32.06718 3.86232,32.80745 0.21609,1.00949 -0.76596,2.1871 -3.92847,4.71081 -2.31912,1.85068 -8.66764,7.75602 -14.10782,13.12299 -10.5968,10.45419 -11.37582,11.74272 -10.36309,17.14101 0.83416,4.44648 6.19391,8.56902 9.69568,7.45761 1.13197,-0.35928 1.94421,2.00809 8.19349,23.88088 l 6.93697,24.27969 -2.12959,1.94508 c -4.15375,3.79386 -4.7052,9.33879 -1.42173,14.29591 2.80269,4.2313 10.21366,10.13318 16.20011,12.90131 l 4.97051,2.29836 3.59699,31.50951 c 3.36728,29.49729 3.52269,31.55296 2.4335,32.18999 -3.08576,1.80475 -5.05692,4.03481 -5.70992,6.45987 -1.41959,5.27196 0.89375,10.0853 6.13128,12.75728 l 2.58118,1.31683 -9.29793,27.42328 c -5.11386,15.08281 -9.44585,27.87754 -9.62664,28.43274 -0.25375,0.77929 -0.42547,0.70256 -0.75309,-0.33648 z"
                     id="path50523"
                     transform="matrix(0.02508753,0,0,0.02508753,45.916196,53.067323)" />
                </g>
              </g>
            </g>
          </g>
        </g>
      </g>
    </g>
  </g>
</svg>
