<?xml version="1.0" encoding="UTF-8" standalone="no"?>
<!-- Created with Inkscape (http://www.inkscape.org/) -->

<svg
   width="100.62401mm"
   height="146.82426mm"
   viewBox="0 0 100.62401 146.82426"
   version="1.1"
   id="svg20482"
   xmlns:inkscape="http://www.inkscape.org/namespaces/inkscape"
   xmlns:sodipodi="http://sodipodi.sourceforge.net/DTD/sodipodi-0.dtd"
   xmlns="http://www.w3.org/2000/svg"
   xmlns:svg="http://www.w3.org/2000/svg">
  <sodipodi:namedview
     id="namedview20484"
     pagecolor="#ffffff"
     bordercolor="#000000"
     borderopacity="0.25"
     inkscape:showpageshadow="2"
     inkscape:pageopacity="0.0"
     inkscape:pagecheckerboard="0"
     inkscape:deskcolor="#d1d1d1"
     inkscape:document-units="mm"
     showgrid="false" />
  <defs
     id="defs20479" />
  <g
     inkscape:label="圖層 1"
     inkscape:groupmode="layer"
     id="layer1"
     transform="translate(-4.8784381,-3.7137484)">
    <g
       id="g98605"
       transform="matrix(15.189688,0,0,15.189688,-1773.2027,-94.258771)"
       style="fill:#ffffff">
      <path
         style="fill:#ffffff;stroke:#000000;stroke-width:0.3;stroke-linecap:round"
         d="m 122.22468,14.165327 c 0,0 0,0 -2.20922,-5.1333072 0,-0.096775 -0.0707,-0.5140609 0,-0.5848069 0.0552,-0.055221 0.13974,-0.074736 0.19494,-0.1299573 0.0893,-0.089304 0.11603,-0.2262727 0.19493,-0.3248927 0.0383,-0.047838 0.10256,-0.075162 0.12996,-0.1299572 0.15825,-0.3164925 -0.35528,-1.4641116 -0.58481,-1.2345927 -0.0153,0.015316 0.0153,0.049662 0,0.064979 -0.0153,0.015317 -0.047,-0.012015 -0.065,0 -0.10019,0.066792 -0.60239,0.7038306 -0.64979,0.7797426 -0.0514,0.082141 -0.0719,0.1824233 -0.12996,0.2599143 -0.013,0.017328 -0.0539,-0.018574 -0.065,0 -0.0601,0.100018 -0.07,0.2248746 -0.12996,0.3248927 -0.0508,0.084613 -0.30599,-0.405229 -0.45485,-0.45485 -0.20565,-0.068551 -1.10667,0.00203 -1.23459,0.1299573 -0.0257,0.025705 -0.006,0.4942384 0,0.5198284 0.0379,0.1515256 0.19001,0.2501718 0.25991,0.3898715 0.0522,0.104326 0.0841,0.2176836 0.12996,0.3248927 0.12851,0.2998642 0.40599,0.478075 0.71476,0.45485 2.53417,5.1333075 2.66412,5.0683275 2.66412,5.0683275 -0.096,0.147495 -0.20969,0.284851 -0.28788,0.442485 -0.0493,0.09947 -0.007,0.773918 0.0919,0.872989 0.14103,0.141029 0.0382,-0.02684 0.18379,0.04595 0.0387,0.01937 0.0517,0.07581 0.0919,0.09189 0.0821,0.03285 0.36466,0.0237 0.45947,0 0.26909,-0.06727 0.33155,-0.515337 0.45947,-0.643255 0.0108,-0.01083 0.0306,0 0.0459,0 0.1686,0 0.0846,0.08456 0.18379,0.183788 7.4e-4,7.39e-4 0.27277,0.228568 0.27568,0.229734 0.0772,0.03088 0.36736,0.01842 0.45947,0 0.12967,-0.02594 0.15371,-0.10776 0.22973,-0.183788 0.23481,-0.234805 -0.0641,0.192654 0.18379,-0.13784 0.12974,-0.172985 0.20876,-0.568346 0.13784,-0.781095 -0.007,-0.02055 -0.0391,-0.0254 -0.0459,-0.04595 -0.01,-0.02906 0.0137,-0.0645 0,-0.09189 -0.005,-0.01074 -0.12312,0.0037 -0.13784,0 -0.17438,-0.04359 -0.97953,-0.05382 -1.01083,-0.09189 -0.0492,-0.05984 -0.0571,-0.144011 -0.0856,-0.216016 z"
         id="path62531" />
    </g>
  </g>
</svg>
