<?xml version="1.0" encoding="UTF-8" standalone="no"?>
<!-- Created with Inkscape (http://www.inkscape.org/) -->

<svg
   width="100.493mm"
   height="143.03081mm"
   viewBox="0 0 100.493 143.03081"
   version="1.1"
   id="svg20482"
   inkscape:export-filename="ker.svg"
   inkscape:export-xdpi="96"
   inkscape:export-ydpi="96"
   xmlns:inkscape="http://www.inkscape.org/namespaces/inkscape"
   xmlns:sodipodi="http://sodipodi.sourceforge.net/DTD/sodipodi-0.dtd"
   xmlns="http://www.w3.org/2000/svg"
   xmlns:svg="http://www.w3.org/2000/svg">
  <sodipodi:namedview
     id="namedview20484"
     pagecolor="#ffffff"
     bordercolor="#000000"
     borderopacity="0.25"
     inkscape:showpageshadow="2"
     inkscape:pageopacity="0.0"
     inkscape:pagecheckerboard="0"
     inkscape:deskcolor="#d1d1d1"
     inkscape:document-units="mm"
     showgrid="false" />
  <defs
     id="defs20479" />
  <g
     inkscape:label="圖層 1"
     inkscape:groupmode="layer"
     id="layer1"
     transform="translate(-17.408324,-12.829017)">
    <g
       id="g98649"
       transform="matrix(15.477438,0,0,15.477438,-2488.1821,-76.368219)"
       style="fill:#ff9955">
      <path
         style="fill:#ff9955;stroke:#000000;stroke-width:0.3;stroke-linecap:round"
         d="m 162.38143,11.631163 c 0.0918,-0.390206 0.0842,-0.725758 0,-1.104636 -0.11174,-0.502825 -0.0315,-0.204712 -0.12996,-0.8447213 -0.0217,-0.1082976 -0.0433,-0.2165953 -0.065,-0.3248927 -0.0217,-0.043319 -0.0532,-0.082971 -0.065,-0.1299572 -0.009,-0.034241 -0.0259,-0.6497857 -0.065,-0.6497857 -0.0781,0 0.095,0.125086 0.12996,0.1949357 0.16039,0.3207832 0.25258,0.7724076 0.51983,1.0396569 0.0342,0.034247 0.0897,0.038113 0.12996,0.064979 0.14895,0.099304 0.26215,0.2621553 0.38987,0.3898713 0.0321,0.03214 0.28727,0.24196 0.32489,0.194935 0.321,-0.401251 0.11338,-0.238512 0.25991,-0.7147636 0.2961,-0.9623226 0.0707,-0.01374 0.38987,-0.7797427 0.0607,-0.1455541 0.0825,-0.3044854 0.12996,-0.4548499 0.11759,-0.3723479 0.30517,-0.7234614 0.38987,-1.1046354 0.0188,-0.084575 -0.0188,-0.1753394 0,-0.2599145 0.0253,-0.1138624 0.0993,-0.2123626 0.12996,-0.3248928 0.0581,-0.2131015 0.0866,-0.4331903 0.12996,-0.6497857 0.006,-0.031986 -0.008,-0.2599142 0,-0.2599142 0.13537,0 0.0153,0.2064621 0.065,0.45485 0.0229,0.1143751 0.0931,0.2142384 0.12995,0.324893 0.14302,0.4290552 0.24686,0.8705156 0.38988,1.2995711 0.0369,0.1106546 0.10373,0.2112396 0.12995,0.3248927 0.0393,0.1701528 0.0257,0.349676 0.065,0.5198285 0.0462,0.2002181 0.13589,0.3879926 0.19494,0.5848072 0.0138,0.04585 0.5056,1.3249453 0.5848,1.3645493 0.17999,0.08999 0.28684,-0.156877 0.38988,-0.259914 0.28908,-0.289082 -0.002,0.02484 0.38987,-0.5848069 0.1593,-0.2478121 0.40018,-0.445554 0.51983,-0.7147641 0.0448,-0.1009235 0.0262,-0.2214825 0.065,-0.3248928 0.0856,-0.2282253 0.3249,-0.3327955 0.3249,-0.5848072 v 0.3898715 1.1046354 0.6497851 c 0,0.694351 -0.069,1.346061 -0.25992,2.014336 -0.0245,0.08587 -0.019,0.183336 -0.065,0.259914 -0.0249,0.04153 -0.10089,0.02623 -0.12995,0.06498 -0.0411,0.05479 -0.0386,0.131711 -0.065,0.194935 -0.5503,1.320716 -0.0328,0.238703 -0.38987,0.714765 -0.0397,0.05292 -0.15525,0.271976 -0.19494,0.324892 -0.0854,0.113883 -0.24597,0.141534 -0.32489,0.259915 -0.0269,0.0403 -0.0217,0.108297 -0.065,0.129957 -0.19507,0.09754 -0.50873,0.126257 -0.71477,0.194935 -0.0291,0.0097 -0.0365,0.0536 -0.065,0.06498 -0.25514,0.102056 -1.13451,0.228297 -1.42953,0.129957 -0.22444,-0.07481 -0.43572,-0.5007 -0.58481,-0.649786 -0.0365,-0.03651 -0.45308,-0.387212 -0.45485,-0.389871 -0.024,-0.03604 0.024,-0.09391 0,-0.129957 -0.0269,-0.0403 -0.1009,-0.02623 -0.12995,-0.06498 -0.14791,-0.443701 0.0441,-0.02089 -0.19494,-0.259914 -0.046,-0.04595 0.0206,-0.133291 0,-0.194936 -0.0529,-0.158669 -0.272,-0.29618 -0.32489,-0.45485 -0.0137,-0.0411 0.0137,-0.08886 0,-0.129957 -0.0247,-0.07409 -0.10527,-0.120848 -0.12996,-0.194935 -0.0122,-0.03675 0.0261,-0.168838 0,-0.194936 -0.0153,-0.01532 -0.053,0.01802 -0.065,0 -0.0744,-0.111532 -0.1978,-0.476947 -0.26804,-0.617445 z"
         id="path77857"
         sodipodi:nodetypes="cccccsccccscccccccsccccccccccccccsccccccccsccccccccssccccc" />
      <path
         style="fill:#ffe6d5;stroke:#000000;stroke-width:0.3;stroke-linecap:round"
         d="m 163.84344,13.09318 c -0.0108,-0.06498 -0.0131,-0.131974 -0.0325,-0.194936 -0.0575,-0.186937 -0.16024,-0.367575 -0.22742,-0.552317 -0.0665,-0.182889 -0.0901,-0.371578 -0.16245,-0.552318 -0.018,-0.04497 -0.0433,-0.08664 -0.065,-0.129957 -0.0217,-0.05415 -0.0445,-0.10784 -0.065,-0.162447 -0.0287,-0.0765 -0.18224,-0.40257 -0.12996,-0.454849 0.0316,-0.03157 0.09,0.01252 0.12996,0.03249 0.2395,0.11975 0.32126,0.289118 0.44721,0.414675 0.0726,0.07262 -0.12821,-0.160644 -0.0573,-0.08978 0.0276,0.02761 0.0374,0.06986 0.065,0.09747 0.008,0.0077 0.0228,-0.0048 0.0325,0 0.0635,0.03178 0.18422,0.127101 0.25991,0.03249 0.0756,-0.09455 0.11171,-0.214957 0.16244,-0.324893 0.0346,-0.07489 0.0668,-0.150847 0.0975,-0.227425 0.0613,-0.153156 0.13573,-0.300891 0.19494,-0.45485 0.0727,-0.189139 0.0906,-0.388251 0.12996,-0.5848071 0.009,-0.043785 0.0149,-0.088915 0.0325,-0.1299572 0.01,-0.022376 0.20058,-0.3550306 0.22742,-0.2924035 0.0289,0.067431 0.11451,0.429427 0.12996,0.4873388 0.0914,0.342881 0.16551,0.688403 0.32489,1.007168 0.0325,0.06498 0.0705,0.127484 0.0975,0.194936 0.0166,0.04146 0.008,0.0928 0.0325,0.129957 0.03,0.04505 0.0999,0.05241 0.12995,0.09747 0.0135,0.02015 0.0123,0.05155 0.0325,0.06498 0.018,0.01201 0.0456,-0.0097 0.065,0 0.0274,0.0137 0.0376,0.05128 0.065,0.06498 0.20187,0.100936 0.95859,-0.235627 1.13713,-0.324893 0.0755,-0.03776 0.33114,-0.286156 0.35738,-0.259914 0.0558,0.05575 -0.056,0.223673 -0.0731,0.300638 -0.15248,0.686149 -0.10573,0.503909 -0.12996,0.584807 -0.0401,0.120254 -0.087,0.162287 -0.12182,0.284169 -0.0274,0.096 -0.0363,0.196769 -0.065,0.292403 -0.0433,0.119128 -0.0866,0.238255 -0.12996,0.357383 -0.0217,0.03249 -0.0496,0.06158 -0.065,0.09747 -0.0176,0.04104 -0.0149,0.08892 -0.0325,0.129958 -0.0308,0.07178 -0.095,0.125085 -0.12995,0.194935 -0.0261,0.05216 -0.0367,0.111466 -0.065,0.162447 -0.14537,0.261663 -0.3648,0.457275 -0.58481,0.649785 -0.0433,0.04332 0.27133,-0.238752 0.22797,-0.195435 -0.0325,0.01083 -0.2572,0.280388 -0.45543,0.357882 -0.13863,0.103965 0.32854,-0.239763 -0.0975,0.09747 -0.12627,0.04209 -0.50523,0.107004 -0.6173,0.06498 -0.016,-0.006 -0.24313,-0.113172 -0.2924,-0.162446 -0.0171,-0.01712 -0.0154,-0.04786 -0.0325,-0.06498 -0.0171,-0.01712 -0.0479,-0.01537 -0.065,-0.03249 -0.16603,-0.166033 0.13623,0.04531 -0.0975,-0.129957 -0.0776,-0.05819 -0.12401,-0.124007 -0.19493,-0.194936 -0.0598,-0.05981 -0.13513,-0.102637 -0.19494,-0.162446 -0.0515,-0.05146 -0.17208,-0.428384 -0.19494,-0.519829 z"
         id="path79317"
         sodipodi:nodetypes="cccsccccccccccccccsccccccsscccccccccscccccscscssccc" />
    </g>
  </g>
</svg>
