<?xml version="1.0" encoding="UTF-8" standalone="no"?>
<!-- Created with Inkscape (http://www.inkscape.org/) -->

<svg
   width="100.18501mm"
   height="97.218636mm"
   viewBox="0 0 100.18501 97.218636"
   version="1.1"
   id="svg20482"
   inkscape:export-filename="her.svg"
   inkscape:export-xdpi="96"
   inkscape:export-ydpi="96"
   xmlns:inkscape="http://www.inkscape.org/namespaces/inkscape"
   xmlns:sodipodi="http://sodipodi.sourceforge.net/DTD/sodipodi-0.dtd"
   xmlns="http://www.w3.org/2000/svg"
   xmlns:svg="http://www.w3.org/2000/svg">
  <sodipodi:namedview
     id="namedview20484"
     pagecolor="#ffffff"
     bordercolor="#000000"
     borderopacity="0.25"
     inkscape:showpageshadow="2"
     inkscape:pageopacity="0.0"
     inkscape:pagecheckerboard="0"
     inkscape:deskcolor="#d1d1d1"
     inkscape:document-units="mm"
     showgrid="false" />
  <defs
     id="defs20479" />
  <g
     inkscape:label="圖層 1"
     inkscape:groupmode="layer"
     id="layer1"
     transform="translate(-16.835812,-41.670291)">
    <g
       id="g223990"
       transform="matrix(10.906927,0,0,10.906927,39.382756,-148.41272)"
       style="fill:#f4eed7">
      <g
         id="g25126"
         transform="translate(-5.6102119,-4.4558473)">
        <path
           style="fill:#f4eed7;stroke:#000000;stroke-width:0.2019;stroke-linecap:round;stroke-dasharray:none"
           d="m 6.2841773,26.234733 c -0.1832574,0 0.1358506,-0.02742 -0.085396,-3e-6 -0.2285724,0.02833 0.1004787,-0.02832 0.028467,0 -0.168021,0.06609 -0.2942824,0.138152 -0.4554461,0.201544 -0.150636,0.05926 -0.4072569,0 -0.5693078,0 -0.094885,0 -0.1997862,0.05007 -0.2846536,0 -0.048009,-0.02832 -0.065852,-0.106041 -0.1138617,-0.134364 -0.033953,-0.02003 0.078705,0.06454 0.0427,0.05039 -0.1975072,-0.07769 -0.5838685,-0.556171 -0.626238,-0.806183 -0.058053,-0.342516 -0.00626,-0.484341 0.1280944,-0.722205 0.010525,-0.01864 -0.016973,-0.05716 0,-0.06718 0.2282635,-0.13475 0.00112,0.22214 0.2277228,-0.134364 0.065595,-0.103203 0.1100356,-0.228359 0.1707925,-0.335909 0.083184,-0.147243 0.2223455,-0.198374 0.3415844,-0.268726 0.087197,-0.05145 0.044518,-0.11972 0.113861,-0.201547 0.066697,-0.07871 0.4362453,-0.425356 0.512377,-0.470274 0.084867,-0.05007 0.2298376,0.200298 0.2846536,0 -0.2625053,-0.733909 -0.2047208,-0.50454 -0.056933,-0.940545 0.1133558,-0.334426 0.1769548,-0.335915 0.4554448,-0.335915 0.037951,0 0.087024,-0.03168 0.1138617,0 0.1211878,0.143008 -0.00892,0.661302 0.056933,0.739 0.030001,0.03541 0.041172,-0.08787 0.056934,-0.134364 0.020793,-0.06134 0.3032933,-0.507331 0.3415851,-0.537455 0.031575,-0.02484 0.082281,0.02484 0.113861,0 0.060115,-0.04728 0.0509,-0.205103 0.1707925,-0.134363 0.072301,0.04266 0.1958923,0.507835 0.1138617,0.604637 -0.015617,0.01843 -0.1138617,0.05897 -0.1138617,0.134364 0,0.07082 0.1138617,-0.04479 0.1707919,-0.06718 0.055076,-0.02166 0.4393745,0.02924 0.4554461,0.06718 0.016973,0.04006 -0.00921,0.09091 0,0.134363 0.052949,0.249956 0.1517339,0.582291 -0.113861,0.739001 -0.045546,0.02687 -0.1252477,-0.02687 -0.1707925,0 -0.140699,0.08302 0.019654,0.06718 -0.1138617,0.06718"
           id="path100848"
           sodipodi:nodetypes="cscsssscssccsssscsssscssssssscssc" />
        <path
           style="fill:#f4eed7;stroke:#000000;stroke-width:0.159721;stroke-linecap:round;stroke-dasharray:none"
           d="m 4.0403731,25.216892 c -0.3106055,0.353765 -0.017507,-0.01898 -0.1375288,0.208853 -0.032669,0.06202 -0.1036514,0.07265 -0.1375282,0.130531 -0.00948,0.0162 -0.010848,0.03844 -0.022928,0.05222 -0.01208,0.01376 -0.033762,0.01234 -0.045842,0.02611 -0.01208,0.01375 -0.00871,0.04142 -0.022921,0.05221 -0.012712,0.0097 -0.032175,-0.0078 -0.045842,0 -0.0068,0.0039 -0.00632,0.02128 0,0.02611 0.085292,0.06476 0.1881314,0.09476 0.2750584,0.15664 0.1833727,0.130532 -0.034381,0 0.068763,0.07832 0.07792,0.05916 0.01229,0.0035 0.091686,0.02611 0.110687,0.03152 -0.081373,-0.02676 -0.01146,0.01305 0.050953,0.02901 0.1729726,0.06587 0.2177554,0.09137 0.0181,0.01032 0.049432,-0.0073 0.068763,0 0.056966,0.02163 0.1039899,0.09156 0.1604511,0.104426 0.022473,0.0051 0.04629,-0.0051 0.068763,0 0.066722,0.0152 -0.3421173,-0.169689 -0.2865195,-0.169689"
           id="path103030"
           sodipodi:nodetypes="cssscsccsscsccccc" />
        <path
           style="fill:#f4eed7;stroke:#000000;stroke-width:0.208027;stroke-linecap:round;stroke-dasharray:none"
           d="m 5.510868,24.554703 c -0.079986,0.589729 0.2333759,0.623114 0.4236782,0.201256 0.01586,-0.03515 0,-0.126335 0,-0.167712 0,-0.129555 -0.1761296,-0.187506 -0.2723645,-0.134172 -0.052613,0.02916 -0.1008758,0.06708 -0.1513137,0.100628 z"
           id="path103034" />
        <path
           style="fill:#f4eed7;stroke:#000000;stroke-width:0.208027;stroke-linecap:round;stroke-dasharray:none"
           d="m 7.4779447,23.682589 c 0.020141,0.05363 0.1936483,0.288383 0.2118395,0.33543 0.02026,0.0524 0.012205,0.11433 0.030265,0.167713 0.050821,0.150208 0.1933446,0.338223 0.2723645,0.469599 0.1224847,0.20364 -0.087117,-0.105026 0.060523,0.167715 0.039236,0.07248 0.1265782,0.152548 0.1513137,0.2348 0.029409,0.09779 0.031114,0.204092 0.060523,0.301885 0.014266,0.04744 0.046257,0.08673 0.060523,0.134171 0.03865,0.128513 0,0.48742 0,0.637313"
           id="path107400" />
        <path
           style="fill:#f4eed7;stroke:#000000;stroke-width:0.208027;stroke-linecap:round;stroke-dasharray:none"
           d="m 6.2674358,26.164758 c -0.021689,0.426166 -0.1345524,0.884326 -0.030265,1.30817 0.037846,0.153808 0.1707564,0.300494 0.2421017,0.436056 0.095202,0.180894 0.2096284,0.356298 0.3026267,0.536687 0.078729,0.152706 -0.040289,0.07385 0.1210509,0.234799 0.064501,0.06434 0.1440784,0.107629 0.2118394,0.167713 0.03342,0.02963 0.064053,0.06359 0.090788,0.100629 0.014088,0.01952 0.012218,0.05209 0.030265,0.06709 0.025523,0.02121 0.065272,0.01232 0.090788,0.03355 0.018047,0.01501 0.020174,0.04472 0.030265,0.06709 0.020174,0.02236 0.036785,0.04954 0.060523,0.06708 0.037536,0.02773 0.082367,0.04136 0.1210508,0.06708 0.0367,0.02441 0.057368,0.071 0.090788,0.100629 0.1149484,0.101926 0.1958047,0.17782 0.3328903,0.2348 0.3304289,0.137341 1.0689221,0.08385 1.4223483,0.08385"
           id="path108128"
           sodipodi:nodetypes="csssssssscssssc" />
        <path
           style="fill:#f4eed7;stroke:#000000;stroke-width:0.208027;stroke-linecap:round;stroke-dasharray:none"
           d="m 8.2345132,26.131215 c 0.7025818,0.333743 -0.1711917,-0.07906 0.3631525,0.167715 0.070915,0.03275 0.1352249,0.09434 0.2118394,0.100628 0.2014513,0.01654 0.4033893,-0.02526 0.6052541,-0.03355 0.2083256,-0.0086 0.4009536,-0.0053 0.6052548,-0.03354 0.116949,-0.01621 0.195901,-0.07105 0.302627,-0.100628 0.08159,-0.02261 0.355015,-0.01827 0.453942,0 0.08191,-0.05701 0.07825,0.05127 0.12105,0.06708 0.01914,0.0071 0.04374,-0.0124 0.06052,0 0.01877,0.01387 0.01431,0.04941 0.03026,0.06708 0.04471,0.04956 0.128365,0.09485 0.181577,0.134172 0.07306,0.05399 -0.01009,0.01118 0.03026,0.100628 0.01009,0.02236 0.04458,0.01586 0.06052,0.03355 0.228884,-0.08421 0.404374,-0.268922 0.605255,-0.402514 0.05803,-0.03859 0.13065,-0.05124 0.181576,-0.100628 0.03395,-0.03292 0.03814,-0.09076 0.06052,-0.134172 0.04306,-0.08351 0.108261,-0.151289 0.151314,-0.234799 0.01583,-0.0307 0.01257,-0.07121 0.03026,-0.100629 0.02374,-0.03947 0.06405,-0.06359 0.09079,-0.100628 0.01409,-0.01952 0.01431,-0.04941 0.03026,-0.06708 0.0071,-0.0079 0.02575,0.01 0.03026,0 0.009,-0.02 -0.0064,-0.04587 0,-0.06708 0.02381,-0.07917 0.09079,-0.106167 0.09079,-0.201257"
           id="path108856" />
        <path
           style="fill:#f4eed7;stroke:#000000;stroke-width:0.208027;stroke-linecap:round;stroke-dasharray:none"
           d="m 12.622608,25.426815 c 0,0.08945 0.004,0.179007 0,0.268343 -0.0123,0.272678 -0.02703,0.590619 -0.151313,0.838571 -0.02449,0.04887 -0.06405,0.08676 -0.09079,0.134172 -0.06772,0.05966 -0.05126,0.161783 -0.09079,0.234799 -0.01468,0.02711 -0.0447,0.04077 -0.06052,0.06708 -0.02858,0.04752 -0.04246,0.194755 -0.06052,0.2348 -0.01276,0.02829 -0.05151,0.03709 -0.06052,0.06709 -0.0064,0.02122 0.0049,0.04539 0,0.06708 -0.01379,0.06114 -0.06052,0.10989 -0.06052,0.167715"
           id="path108858" />
        <path
           style="fill:#f4eed7;stroke:#000000;stroke-width:0.208027;stroke-linecap:round;stroke-dasharray:none"
           d="m 7.5082076,29.351326 c -0.00343,0.145884 -0.1898815,0.320296 -0.2421017,0.436056 -0.00902,0.02 0.0075,0.04632 0,0.06709 -0.025134,0.06964 -0.060523,0.134169 -0.090788,0.201256 -0.032748,0.07259 -0.117176,0.12558 -0.1513137,0.201256 -0.01507,0.0334 -0.07372,0.182339 -0.090789,0.201257 -0.022486,0.02492 -0.2620501,0.02617 -0.3328896,0 -0.055682,-0.02057 -0.1038542,-0.06226 -0.1815766,-0.03354 -0.018976,0.007 -0.291354,0.23765 -0.3328896,0.268341"
           id="path110316" />
        <path
           style="fill:#f4eed7;stroke:#000000;stroke-width:0.188404;stroke-linecap:round;stroke-dasharray:none"
           d="m 10.712966,28.972022 c 0.04869,0.435798 0.02964,0.129847 0,0.719409 -0.0098,0.19531 0.0014,0.383717 0.02893,0.575529 0.0028,0.01917 0.03775,0.135112 0.02894,0.143881 -0.08093,0.08049 -0.248965,0.08254 -0.34721,0.115106 -0.06055,0.02008 -0.108793,0.09362 -0.173605,0.115106 -0.0183,0.0061 -0.04423,-0.01357 -0.05787,0 -0.0068,0.0068 0,0.01919 0,0.02878"
           id="path110318" />
        <path
           style="fill:#f4eed7;stroke:#000000;stroke-width:0.208027;stroke-linecap:round;stroke-dasharray:none"
           d="m 11.956829,27.640643 c -0.04035,0.07827 -0.07739,0.158748 -0.121051,0.2348 -0.03592,0.06257 -0.477508,0.61683 -0.574992,0.670856 -0.01805,0.01001 -0.04138,-0.0071 -0.06052,0 -0.04878,0.01802 -0.07437,0.108298 -0.121052,0.134171 -0.02853,0.01582 -0.06527,0.01232 -0.09079,0.03355 -0.0099,0.0082 -0.09079,0.124124 -0.09079,0.134172 -0.259429,0.132464 -0.501645,0.294776 -0.75657,0.436054 -0.2020956,-0.04518 -0.3106538,0.220252 -0.4842034,0.268342 -0.019575,0.0054 -0.041383,-0.0071 -0.060523,0 -0.013535,0.005 -0.01673,0.02854 -0.030265,0.03355 -0.01914,0.0071 -0.041791,-0.0083 -0.060523,0 -0.1792917,0.07949 -0.014635,0.06708 -0.1513137,0.06708"
           id="path110320" />
        <path
           style="fill:#ff0000;stroke:#000000;stroke-width:0.189785;stroke-linecap:round;stroke-dasharray:none"
           d="m 5.954795,23.310631 c 0.085732,0.101955 0.1091214,0.246236 0.1976502,0.341966 0.00659,0.0071 0.344028,-0.0012 0.3557703,0 0.141166,0.01387 0.2750301,0.07035 0.4150651,0.08549 0.1792779,0.01939 0.3730619,0 0.5534206,0 0.012066,0 0.071358,0.0083 0.07906,0 0.026352,-0.0285 -0.032946,-0.02138 0.019766,-0.02138"
           id="path112504" />
        <path
           style="fill:#f4eed7;stroke:#000000;stroke-width:0.208027;stroke-linecap:round;stroke-dasharray:none"
           d="m 9.8687003,27.1375 c 0.1068471,0.127757 0.2486117,0.173126 0.3631527,0.268344 0.02552,0.02121 0.06823,0.0085 0.09079,0.03354 0.0465,0.05154 0.07787,0.111876 0.121051,0.167715 0.200716,0.259549 0.108836,0.07355 0.181577,0.2348 0.01653,0.03664 0.06549,0.195755 0.03026,0.2348 -0.132176,0.146502 -0.400374,0.171479 -0.574992,0.201256 -0.4062829,0.06928 -0.8720079,0.069 -1.2710349,-0.06708 -0.082377,-0.02809 -0.1588236,-0.07601 -0.2421017,-0.10063 -0.1282017,-0.03789 -0.2646959,-0.03142 -0.393416,-0.06708 -0.3049313,-0.0845 -0.5352122,-0.291336 -0.7565678,-0.536684 -0.04818,-0.0534 -0.3328903,-0.412361 -0.3328903,-0.469599"
           id="path115412" />
        <path
           style="fill:#ff0000;stroke:#ff0000;stroke-width:0.539562;stroke-linecap:round;stroke-opacity:0.974441"
           d="m 425.27589,407.58599 c -13.29775,-3.3502 -24.26008,-6.17363 -24.36073,-6.27428 -0.51871,-0.51871 -7.45711,-20.84461 -7.68633,-22.51693 -0.2144,-1.56424 0.0845,-2.8041 1.49837,-6.21502 0.97142,-2.34353 2.49243,-6.26434 3.38004,-8.71291 1.9701,-5.43473 3.69464,-8.68377 5.08879,-9.58724 0.6649,-0.43088 2.92881,-0.77395 6.16753,-0.93462 l 5.11703,-0.25384 0.30107,1.60874 c 0.16559,0.88481 0.14776,6.36581 -0.0396,12.18 -0.23258,7.21696 -0.17474,11.18753 0.1823,12.51347 1.33038,4.94066 7.28115,5.99256 9.46995,1.67397 0.50278,-0.99201 1.06447,-2.70645 1.2482,-3.80987 0.31313,-1.88061 4.41536,-9.01125 10.26972,-17.85121 1.90006,-2.86905 2.28403,-3.20321 3.69087,-3.21209 2.06136,-0.013 4.01378,-1.06009 5.48726,-2.94285 l 1.19289,-1.52423 0.75441,2.59507 c 1.22764,4.22296 2.16095,9.09185 2.1698,11.3194 0.007,1.88375 -0.20126,2.26583 -2.19827,4.02366 -2.43594,2.1442 -3.50384,4.18793 -3.50384,6.7056 0,2.2795 0.77136,3.77077 2.4692,4.77371 2.0034,1.18344 4.46344,0.74456 7.57604,-1.35159 2.84029,-1.91276 4.63687,-2.12577 10.41692,-1.2351 5.27861,0.81341 5.23341,0.79188 5.24434,2.4994 0.005,0.84562 0.5385,4.10715 1.18466,7.24786 1.62065,7.87732 1.60446,13.00901 -0.0515,16.33211 -0.67998,1.36454 -1.69067,2.72414 -2.24598,3.02133 -0.5553,0.29719 -2.40802,0.49719 -4.11714,0.44444 -2.71367,-0.0838 -3.38531,0.0811 -5.2997,1.30118 -1.20572,0.7684 -2.64557,1.54098 -3.19967,1.71685 -0.5541,0.17586 -1.41861,0.84244 -1.92112,1.48128 -0.66302,0.84289 -1.35179,1.14966 -2.5107,1.11826 -0.87837,-0.0238 -12.47702,-2.78435 -25.77477,-6.13455 z"
           id="path24680"
           transform="matrix(0.02425828,0,0,0.02425828,-3.6108022,13.607198)" />
        <path
           style="fill:#ffff00;stroke:#ffff00;stroke-width:0.381528;stroke-linecap:round;stroke-opacity:0.974441"
           d="m 321.94014,509.1151 c -0.50385,-0.20595 -1.33602,-0.77435 -1.84929,-1.26312 -0.51326,-0.48877 -1.6901,-1.07792 -2.6152,-1.30921 -0.98063,-0.24518 -1.93436,-0.74135 -2.28717,-1.18989 -0.83984,-1.06768 -5.97764,-4.42563 -8.89631,-5.81442 l -2.42476,-1.15377 0.95357,-0.5799 c 0.52447,-0.31895 1.294,-1.28313 1.71008,-2.14263 0.41607,-0.8595 1.30629,-1.97208 1.97826,-2.47241 2.60379,-1.93871 4.31967,-3.98033 5.13374,-6.10831 0.44208,-1.1556 1.2585,-2.63102 1.81428,-3.2787 l 1.0105,-1.17759 3.07947,10.21124 c 1.69371,5.61619 3.41671,11.29757 3.8289,12.6253 0.73681,2.37343 0.73874,2.42763 0.11472,3.22095 -0.55722,0.70838 -0.74657,0.76118 -1.55079,0.43246 z"
           id="path24820"
           transform="matrix(0.02425828,0,0,0.02425828,-3.6108022,13.607198)" />
        <path
           style="fill:#ffff00;stroke:#ffff00;stroke-width:0.539562;stroke-linecap:round;stroke-opacity:0.974441"
           d="m 420.51314,689.58725 c -1.52238,-0.59385 -2.80722,-1.24728 -2.85519,-1.45207 -0.0904,-0.386 28.83006,-27.86894 29.08382,-27.63816 0.0788,0.0717 -0.51005,1.16064 -1.30863,2.41986 -0.8763,1.38179 -1.45196,2.92337 -1.45196,3.88831 0,2.7178 -3.15335,9.18174 -6.19554,12.70002 -1.81136,2.09481 -3.33648,4.53071 -4.43484,7.08319 l -1.67405,3.89038 -4.19783,0.0941 c -3.38778,0.0759 -4.73195,-0.11425 -6.96578,-0.98562 z"
           id="path24891"
           transform="matrix(0.02425828,0,0,0.02425828,-3.6108022,13.607198)" />
        <path
           style="fill:#ffff00;stroke:#ffff00;stroke-width:0.539562;stroke-linecap:round;stroke-opacity:0.974441"
           d="m 571.17656,696.75275 c 0.18166,-0.47519 3.9023,-12.51879 8.2681,-26.76356 4.36579,-14.24477 8.01453,-25.82286 8.10831,-25.72909 0.0938,0.0938 -0.0563,2.50114 -0.33346,5.34969 -1.32006,13.56616 -1.07085,30.75809 0.55688,38.4166 0.28629,1.34702 0.31405,2.48236 0.0667,2.72966 -0.23287,0.23287 -2.87302,0.96521 -5.86698,1.62743 -3.51531,0.77751 -6.03767,1.62068 -7.12073,2.38028 -0.92243,0.64694 -2.20185,1.55353 -2.84316,2.01462 -1.11852,0.80421 -1.15255,0.80317 -0.83571,-0.0256 z"
           id="path24893"
           transform="matrix(0.02425828,0,0,0.02425828,-3.6108022,13.607198)" />
        <path
           style="fill:#ffffff;stroke:#ffffff;stroke-width:0.381528;stroke-linecap:round;stroke-opacity:0.974441"
           d="m 505.16126,627.6351 c -14.6608,-16.49987 -26.61058,-30.04518 -26.55508,-30.10068 0.0555,-0.0555 1.14853,0.26421 2.42895,0.71049 3.76059,1.3107 6.04526,1.8073 11.74967,2.55395 6.93352,0.90753 7.56053,1.07338 12.83564,3.39501 11.81562,5.20018 27.19665,7.57905 43.31932,6.69985 11.51136,-0.62773 25.75289,-2.8963 32.1728,-5.12489 5.27143,-1.82992 9.94974,-5.09237 11.25908,-7.8516 0.79011,-1.66503 0.71618,-5.66863 -0.16741,-9.06548 -0.89231,-3.43041 -3.11576,-8.07331 -4.20943,-8.7899 -1.11397,-0.7299 -4.53804,-4.90616 -7.30287,-8.90712 -2.60289,-3.76663 -4.06706,-5.15813 -6.05116,-5.75081 -0.78961,-0.23587 -2.83112,-1.34049 -4.5367,-2.45471 -1.70559,-1.11422 -4.18061,-2.70592 -5.50006,-3.53711 -1.31946,-0.83119 -3.17759,-2.26967 -4.12918,-3.19662 -2.44818,-2.38478 -3.2379,-2.85851 -4.76702,-2.8596 -1.87577,-10e-4 -3.47724,1.06244 -4.14018,2.75011 l -0.54105,1.37739 -5.56682,-0.2218 c -6.8774,-0.27401 -23.88089,-0.89004 -61.42362,-2.22535 -37.02763,-1.31699 -38.22144,-1.37958 -38.53736,-2.02031 -0.13687,-0.2776 -0.45568,-0.94584 -0.70847,-1.48497 -1.06611,-2.27379 -4.69386,-2.99863 -6.673,-1.3333 -0.57722,0.4857 -1.09194,0.82639 -1.14383,0.7571 -0.0519,-0.0693 -5.67099,-6.39121 -12.48689,-14.04871 l -12.39256,-13.9227 -0.0763,-2.06041 c -0.0684,-1.84563 -0.39968,-3.81433 -0.96968,-5.76177 -0.13509,-0.46153 6.61523,-15.2093 21.48524,-46.93989 19.08827,-40.73181 21.77527,-46.27747 22.46009,-46.35505 0.65943,-0.0747 1.23432,0.6055 3.77529,4.46694 2.98064,4.52956 2.99983,4.57243 3.42887,7.65907 0.23731,1.70721 0.68409,3.70969 0.99286,4.44996 0.93361,2.23831 3.17026,6.63526 4.19354,8.24393 0.57878,0.90988 4.86603,12.79106 10.74249,29.77046 l 9.77932,28.25626 v 3.45309 3.45309 l -1.09358,0.46588 c -1.74708,0.74428 -2.68458,1.99972 -2.85434,3.82238 -0.26818,2.87925 0.38363,3.44163 8.32569,7.18329 7.7658,3.65862 9.60283,4.56034 14.07426,6.9085 l 3.14188,1.64994 5.45701,0.11196 c 3.70586,0.076 7.88061,-0.11247 13.00948,-0.58742 4.15386,-0.38467 12.01933,-0.85397 17.47883,-1.0429 5.45949,-0.18893 11.97051,-0.5757 14.46893,-0.8595 4.55756,-0.51769 4.95661,-0.62788 13.89181,-3.83623 2.92133,-1.04896 3.03044,-1.06141 9.30601,-1.06141 7.69056,0 10.03899,0.35392 11.40366,1.71859 0.53893,0.53893 1.41177,1.08827 1.93963,1.22076 0.52787,0.13249 1.67898,1.02783 2.55804,1.98966 0.87905,0.96182 2.73589,2.48893 4.12631,3.39357 1.73295,1.12751 2.53173,1.85647 2.53977,2.31779 0.03,1.71922 2.44266,5.21554 3.59905,5.21554 0.22678,0 0.92689,0.45179 1.55579,1.00398 l 1.14346,1.00396 3.2685,-1.3101 c 5.55158,-2.22523 9.16422,-4.54164 19.36802,-12.41869 3.17322,-2.44964 6.23196,-4.46903 8.74865,-5.77591 5.27383,-2.73862 6.66376,-4.15016 7.9134,-8.03641 0.32054,-0.99687 1.94394,-3.84498 3.61147,-6.33605 2.82831,-4.22512 4.29001,-7.08658 4.29001,-8.39825 0,-0.30515 0.79495,-1.41714 1.76655,-2.4711 0.97161,-1.05395 2.26223,-2.50612 2.86806,-3.22705 l 1.1015,-1.31076 -0.21393,5.38379 -0.21394,5.38378 -4.3666,15.81488 c -3.30533,11.9712 -4.57527,16.09032 -5.22519,16.94818 -1.03219,1.36243 -1.89268,3.54632 -2.60137,6.60215 -0.40124,1.7301 -0.83908,2.62088 -1.85617,3.77636 -1.57119,1.78497 -2.42106,3.8974 -3.22545,8.01724 -0.50984,2.61125 -0.75934,3.2032 -1.86089,4.41513 -1.33167,1.4651 -2.0462,3.37855 -1.95631,5.23882 0.0303,0.62577 -0.40307,2.08317 -1.00413,3.37727 -0.61084,1.31515 -1.14621,3.12684 -1.26781,4.29021 -0.14168,1.35554 -0.35804,2.01373 -0.66196,2.01373 -1.04782,0 -2.69191,2.1381 -4.79319,6.23346 l -2.23041,4.34701 -20.86217,16.11493 c -11.4742,8.86321 -31.15769,24.07809 -43.74109,33.81084 -17.54003,13.56651 -23.19349,17.76871 -24.22704,18.00789 -0.74147,0.17159 -1.89872,0.59497 -2.57165,0.94084 -0.67294,0.34588 -1.53545,0.62887 -1.91669,0.62887 -0.38125,0 -1.82712,0.58679 -3.21305,1.30398 -1.38593,0.71718 -2.8942,1.39792 -3.35172,1.51275 -0.45751,0.11483 -1.03518,0.27874 -1.28371,0.36425 -0.27633,0.0951 -10.80653,-11.4981 -27.10786,-29.8443 z"
           id="path25104"
           transform="matrix(0.02425828,0,0,0.02425828,-3.6108022,13.607198)" />
        <path
           style="fill:#ffffff;stroke:#ffffff;stroke-width:0.381528;stroke-linecap:round;stroke-opacity:0.974441"
           d="m 526.63158,651.83483 c -6.29831,-7.02056 -41.11433,-46.18239 -45.20479,-50.84735 -1.61206,-1.83846 -2.87129,-3.40237 -2.79831,-3.47536 0.073,-0.073 1.16815,0.23881 2.4337,0.69289 3.10124,1.11273 6.05848,1.74729 12.02176,2.57961 6.59696,0.92076 7.3244,1.11481 12.65559,3.37597 6.76195,2.86799 12.59468,4.47035 21.03042,5.77746 5.63717,0.87347 18.87468,1.2032 25.95542,0.64652 9.48057,-0.74535 21.88264,-2.82346 27.54597,-4.61565 5.58999,-1.76898 10.5243,-5.09668 11.96244,-8.06746 0.66559,-1.37495 0.72876,-1.89801 0.55876,-4.62698 -0.31409,-5.04202 -2.6615,-11.15206 -5.15418,-13.41579 -1.384,-1.25688 -4.78413,-5.50343 -7.72094,-9.643 -2.26756,-3.19624 -3.32433,-4.11089 -5.64974,-4.88995 -0.89614,-0.30023 -2.10749,-0.90117 -2.6919,-1.33542 -0.5844,-0.43425 -2.88481,-1.93567 -5.11202,-3.33648 -2.2272,-1.40082 -5.02845,-3.44147 -6.225,-4.53478 -1.19655,-1.09332 -2.50628,-2.16308 -2.91052,-2.37726 -1.96808,-1.04271 -4.59242,0.0281 -5.61523,2.29126 l -0.69946,1.54766 -2.02719,-0.10272 c -1.11496,-0.0565 -10.50667,-0.40234 -20.87046,-0.76853 -67.35711,-2.37999 -81.87875,-2.9464 -82.30567,-3.21025 -0.13397,-0.0828 -0.55631,-0.79654 -0.93853,-1.5861 -1.27994,-2.644 -4.14913,-3.39729 -6.60138,-1.73315 -1.23239,0.83632 -1.29537,0.8448 -1.87397,0.25236 -0.3293,-0.33717 -5.99123,-6.6698 -12.58209,-14.0725 l -11.98336,-13.45947 0.18249,-1.47575 c 0.10036,-0.81165 0.0311,-2.06086 -0.15383,-2.77601 -0.18497,-0.71515 -0.49382,-1.90599 -0.68633,-2.64631 -0.39397,-1.51508 -0.98098,-0.16734 14.65561,-33.64858 26.3896,-56.50572 28.25986,-60.38425 29.17306,-60.49885 0.67891,-0.0852 1.18306,0.49469 3.51051,4.03784 1.49477,2.27553 2.83324,4.3426 2.97439,4.59348 0.14115,0.25089 0.51989,1.99221 0.84164,3.8696 0.62929,3.67178 1.56733,6.02951 4.39358,11.04308 1.78812,3.172 3.68034,8.36428 15.00025,41.16093 2.68283,7.77285 5.17164,14.93307 5.53067,15.91162 0.50328,1.37166 0.6528,2.65426 0.6528,5.59967 0,3.72376 -0.0199,3.8255 -0.78655,4.01791 -2.07226,0.52011 -3.56576,3.06156 -3.08512,5.24989 0.35789,1.62949 1.83412,2.63614 8.41424,5.73774 3.51629,1.65744 8.81595,4.26427 11.77703,5.79296 l 5.38379,2.77943 7.06622,-0.0297 c 3.88642,-0.0163 9.64035,-0.27704 12.7865,-0.57934 3.14615,-0.30229 9.73288,-0.70771 14.63717,-0.90093 10.06472,-0.39653 16.3813,-0.85693 19.34799,-1.41024 1.1104,-0.2071 4.50063,-1.27089 7.53384,-2.36398 l 5.51492,-1.98743 6.4777,-0.003 c 7.17616,-0.003 10.26439,0.38833 11.30995,1.43389 0.37657,0.37656 1.24074,0.93625 1.92038,1.24373 0.67963,0.30749 1.869,1.24045 2.64304,2.07326 0.77404,0.8328 2.60371,2.34699 4.06595,3.36486 2.25475,1.56955 2.71585,2.05514 3.0354,3.19663 0.53904,1.92551 1.59771,3.48421 2.81301,4.14164 0.57868,0.31305 1.52449,0.9703 2.10178,1.46057 l 1.04964,0.89139 2.68613,-1.08979 c 5.71234,-2.31755 8.52813,-3.99825 15.47263,-9.23536 2.59094,-1.95393 5.75051,-4.33706 7.02126,-5.29585 1.27075,-0.95878 4.072,-2.68034 6.225,-3.82567 5.44488,-2.8965 6.39619,-3.89583 8.13647,-8.54716 0.38006,-1.01578 1.8297,-3.54728 3.22144,-5.62556 2.85079,-4.2571 3.9665,-6.3233 4.33577,-8.02949 0.15284,-0.70618 1.06983,-2.11737 2.31275,-3.55918 1.13272,-1.31398 2.40509,-2.83159 2.82749,-3.37245 l 0.76799,-0.98339 -0.20845,5.72027 -0.20846,5.72028 -3.02098,10.93581 c -4.92114,17.81432 -5.62051,20.08933 -6.69799,21.78798 -0.98788,1.55755 -2.67241,6.25039 -2.67241,7.44506 0,0.32823 -0.67355,1.46418 -1.49677,2.52433 -1.73156,2.22991 -2.56935,4.28117 -3.38366,8.28469 -0.43659,2.1464 -0.82231,3.13417 -1.54573,3.95826 -1.44756,1.64902 -2.072,3.07396 -2.18196,4.97914 -0.0545,0.94454 -0.49306,2.60809 -0.97452,3.69678 -0.48148,1.08869 -1.05158,3.00681 -1.26691,4.2625 -0.22031,1.28476 -0.56241,2.28306 -0.78236,2.28306 -1.00579,0 -2.33571,1.74855 -4.60435,6.05372 l -2.46551,4.67875 -34.47651,26.65177 c -55.0514,42.557 -52.53295,40.66146 -55.01191,41.40517 -1.18405,0.35523 -2.24301,0.79179 -2.35324,0.97014 -0.11023,0.17836 -0.52258,0.32429 -0.91634,0.32429 -0.39376,0 -2.164,0.66546 -3.93386,1.47879 -5.06382,2.32706 -4.13635,2.68958 -10.08605,-3.94238 z"
           id="path25106"
           transform="matrix(0.02425828,0,0,0.02425828,-3.6108022,13.607198)" />
      </g>
    </g>
  </g>
</svg>
