<?xml version="1.0" encoding="UTF-8" standalone="no"?>
<!-- Created with Inkscape (http://www.inkscape.org/) -->

<svg
   width="100.584mm"
   height="64.535851mm"
   viewBox="0 0 100.584 64.535851"
   version="1.1"
   id="svg20482"
   inkscape:export-filename="ger.svg"
   inkscape:export-xdpi="96"
   inkscape:export-ydpi="96"
   xmlns:inkscape="http://www.inkscape.org/namespaces/inkscape"
   xmlns:sodipodi="http://sodipodi.sourceforge.net/DTD/sodipodi-0.dtd"
   xmlns="http://www.w3.org/2000/svg"
   xmlns:svg="http://www.w3.org/2000/svg">
  <sodipodi:namedview
     id="namedview20484"
     pagecolor="#ffffff"
     bordercolor="#000000"
     borderopacity="0.25"
     inkscape:showpageshadow="2"
     inkscape:pageopacity="0.0"
     inkscape:pagecheckerboard="0"
     inkscape:deskcolor="#d1d1d1"
     inkscape:document-units="mm"
     showgrid="false" />
  <defs
     id="defs20479" />
  <g
     inkscape:label="圖層 1"
     inkscape:groupmode="layer"
     id="layer1"
     transform="translate(-5.8087484,-11.808612)">
    <g
       id="g98602"
       transform="matrix(5.7202208,0,0,5.7202208,-750.6676,-16.765374)"
       style="fill:#d5ffd5">
      <g
         id="g22531">
        <path
           style="fill:#d5ffd5;stroke:#000000;stroke-width:0.3;stroke-linecap:round"
           d="m 146.70653,11.646254 c -0.10176,0 -0.0809,-0.08084 -0.12996,-0.129957 -0.0153,-0.01532 -0.055,0.01937 -0.065,0 -0.0194,-0.03875 0.024,-0.09392 0,-0.129957 -0.0269,-0.0403 -0.0957,-0.03073 -0.12996,-0.06498 -0.0892,-0.08926 -0.16331,-0.228253 -0.25991,-0.324893 -0.11572,-0.115717 -0.28075,-0.215769 -0.38987,-0.324893 -0.10939,-0.109385 -0.10728,-0.233312 -0.25992,-0.324892 -0.11746,-0.07048 -0.27589,-0.05397 -0.38987,-0.129958 -0.0765,-0.05097 -0.11843,-0.143965 -0.19493,-0.194935 -0.15398,-0.102652 -0.35431,-0.112174 -0.51983,-0.1949354 -0.21099,-0.1054933 -0.71338,-0.3370551 -0.9097,-0.45485 -0.067,-0.040179 -0.11914,-0.1110161 -0.19494,-0.1299571 -0.10506,-0.026266 -0.21725,0.011959 -0.32489,0 -0.0888,-0.00986 -0.17131,-0.053902 -0.25991,-0.064979 -0.56364,-0.070455 -1.1655,0.1502439 -1.68945,0.3248928 -0.23247,0.07749 -0.0786,0.11624 -0.38987,0.2599142 -0.18656,0.086108 -0.38987,0.1299565 -0.5848,0.1949365 0,-0.1570446 -0.0872,-0.1965174 -0.12996,-0.3248931 -0.0205,-0.061644 0.0206,-0.1332917 0,-0.1949357 -0.0954,-0.2863212 -0.33011,-0.564063 -0.45485,-0.8447213 -0.0474,-0.1065871 -0.0867,-0.2165952 -0.12996,-0.3248928 0,-0.064979 0.0206,-0.1332917 0,-0.1949357 -0.11942,-0.3582563 -0.49789,-0.4759489 -0.64978,-0.7797428 -0.45929,-0.9185723 -0.87976,-1.5190596 -1.88438,-1.8843783 -0.12874,-0.046814 -0.26469,-0.074321 -0.38987,-0.1299571 -0.0714,-0.031717 -0.11704,-0.1239671 -0.19494,-0.1299571 -0.21704,-0.016695 -0.43319,0.043318 -0.64979,0.064978 -0.51983,0.1299572 -1.04805,0.2300475 -1.55948,0.3898714 -0.14276,0.044612 -0.88768,0.4978009 -1.03966,0.6497855 -0.012,0.011972 -0.053,0.1829627 -0.065,0.1949357 -0.14731,0.1473138 -0.14306,-0.038759 -0.25991,0.1949358 -0.0194,0.038745 0.0194,0.091211 0,0.1299569 -0.01,0.019373 -0.0497,-0.015314 -0.065,0 -0.10346,0.1034802 -0.17146,0.6138707 -0.12996,0.779743 0.0752,0.3009564 0.32387,0.4538295 0.51983,0.6497854 0.11759,0.1175872 0.4188,0.399516 0.58481,0.45485 0.0768,0.025617 1.39663,-0.04855 1.42953,-0.064979 0.0274,-0.013697 0.0376,-0.05128 0.065,-0.064979 0.0775,-0.038746 0.17592,0.021013 0.25992,0 0.0758,-0.018941 0.11913,-0.1110162 0.19493,-0.1299572 0.063,-0.015759 0.13194,0.015759 0.19494,0 0.27817,-0.069543 0.23776,-0.129957 0.51983,-0.129957 0.12935,0.4619955 0.40116,0.8817259 0.45486,1.3645508 0.01,0.086108 -0.021,0.1758626 0,0.2599146 0.21134,0.845359 0.0634,-0.2026325 0.19494,0.45485 0.0349,0.17446 0,0.405463 0,0.584807 0.065,0.194936 0.12117,0.393023 0.19493,0.584807 0.0522,0.135612 0.0922,0.287131 0.19494,0.389871 0.0342,0.03425 0.0957,0.03073 0.12995,0.06498 0.0792,0.07918 0.11576,0.245715 0.19494,0.324892 0.0552,0.05522 0.14808,0.06748 0.19494,0.129958 0.026,0.03466 -0.024,0.09391 0,0.129957 0.0483,0.0724 0.2625,0.132548 0.32489,0.194935 0.15782,0.15782 -0.0193,0.09542 0.12996,0.194936 0.11871,0.07914 0.45485,0.252498 0.45485,0.389871 -0.0656,0.295306 -0.0588,0.487878 -0.19494,0.714764 -0.0548,0.09127 -0.22454,0.283744 -0.25991,0.389871 -0.0137,0.0411 0.024,0.09391 0,0.129957 -0.0269,0.0403 -0.0957,0.03073 -0.12996,0.06498 -0.026,0.02601 -0.22196,0.492807 -0.19494,0.519828 0.0256,0.02558 0.22126,0.106761 0.25992,0.129957 0.065,0.04332 0.12995,0.08664 0.19493,0.129957 0,0.02166 -0.0153,0.04966 0,0.06498 0.0266,0.02663 0.76507,0.103405 0.84472,0.129957 0.0582,0.01942 0.0872,0.172732 0.19494,0.06498 0.13743,-0.137434 0.0161,-0.308212 0.065,-0.45485 0.0781,-0.23425 0.0686,-0.469513 0.12996,-0.714764 0.0232,-0.093 -0.0421,-0.240677 0,-0.324893 0.01,-0.01937 0.0497,0.01531 0.065,0 0.0404,-0.04036 -0.0193,-0.305565 0.12996,-0.45485 0.85858,0.267694 1.6112,0.778796 2.53411,0.844718 0.55139,0.03938 1.0778,-0.06498 1.62447,-0.06498 0.0326,0 1.23055,0.004 1.23459,0 0.0153,-0.01532 0,-0.04332 0,-0.06498"
           id="path65437" />
        <path
           style="fill:#d5ffd5;stroke:#000000;stroke-width:0.3;stroke-linecap:round"
           d="m 144.31738,12.800777 c 0.0433,0.08664 0.10335,0.166777 0.12996,0.259914 0.053,0.18563 0.0252,0.427607 0.12996,0.584807 0.051,0.07646 0.15384,0.112744 0.19494,0.194936 0.01,0.01937 0,0.04332 0,0.06498 0.0217,0.04332 0.0381,0.08966 0.065,0.129957 0.0692,0.103735 0.18034,0.115355 0.25992,0.194936 0.15728,0.15728 0.0838,0.2787 0.12996,0.324893 0.0325,0.03249 0.16244,-0.03249 0.19493,0 0.0333,0.03328 -0.0345,1.395065 0,1.429528 0.0499,0.04988 0.20456,0.0373 0.25992,0.06498 0.0194,0.0097 -0.0153,0.04966 0,0.06498 0.009,0.0094 0.30199,0.0229 0.32489,0 0.0342,-0.03425 0.0307,-0.09571 0.065,-0.129957 0.0342,-0.03425 0.10829,-0.02166 0.12995,-0.06498 0.0291,-0.05812 -0.0107,-0.130841 0,-0.194936 0.0322,-0.193274 0.16064,-0.218368 0.19494,-0.389871 0.017,-0.08496 -0.021,-0.175863 0,-0.259915 0.11885,-0.475388 0.065,-1.001695 0.065,-1.494507"
           id="path74205" />
        <path
           style="fill:#d5ffd5;stroke:#000000;stroke-width:0.3;stroke-linecap:round"
           d="m 146.59163,11.566184 c 0.25526,0.03733 0.23012,0.335035 0.38988,0.45485 0.0347,0.02599 0.0889,-0.0137 0.12995,0 0.0291,0.0097 0.0359,0.05529 0.065,0.06498 0.17437,0.05812 0.45875,0 0.64979,0 0.0866,0 0.17947,0.03218 0.25991,0 0.045,-0.01799 0.0307,-0.09571 0.065,-0.129958 0.0298,-0.02984 0.21603,-0.09861 0.25991,-0.129957 0.11286,-0.08061 0.2196,-0.169657 0.3249,-0.259914 0.0794,-0.06809 0.26691,-0.237925 0.32489,-0.324893 0.012,-0.01802 -0.0153,-0.04966 0,-0.06498 0.0791,-0.07914 0.14518,-0.03044 0.19494,-0.129957 0.0318,-0.06362 0.0956,-0.126316 0.12995,-0.194936 0.0194,-0.03875 -0.0194,-0.09121 0,-0.129957 0.0472,-0.09445 0.15271,-0.198202 0.19494,-0.324893 0.0183,-0.05503 -0.0527,-0.4952644 0.065,-0.259914 0.077,0.153988 0,0.786316 0,0.9097 0,0.214846 0.0694,0.63661 0,0.844721 -0.0343,0.10274 -0.15472,0.159362 -0.19494,0.259914 -0.0161,0.04022 0.0137,0.08886 0,0.129957 -0.0123,0.03708 -0.91186,0.997782 -0.97468,1.039657 -0.11716,0.07811 -0.20971,0.183125 -0.32489,0.259914 -0.018,0.01201 -0.0497,-0.01532 -0.065,0 -0.0342,0.03425 -0.0247,0.103092 -0.065,0.129958 -0.036,0.02403 -0.0928,-0.02229 -0.12995,0 -0.10507,0.06304 -0.15033,0.205119 -0.25992,0.259914 -0.0613,0.03063 -0.1362,0.02974 -0.19493,0.06498 -0.26445,0.15867 0.004,0.106935 -0.25992,0.194936 -0.0736,0.02454 -0.19106,-0.03443 -0.25991,0 -0.10697,0.05349 -0.18487,0.129957 -0.3249,0.129957"
           id="path74933" />
        <path
           style="fill:#d5ffd5;stroke:#000000;stroke-width:0.3;stroke-linecap:round"
           d="m 137.68957,12.865755 c -0.0573,0.418791 -0.48589,0.646883 -0.64978,0.974679 -0.0274,0.05479 -0.11059,0.07184 -0.12996,0.129957 -0.0137,0.0411 0.0194,0.09121 0,0.129957 -0.01,0.01937 -0.0456,-0.0097 -0.065,0 -0.0822,0.0411 -0.14396,0.118476 -0.19493,0.194936 -0.0968,0.14524 0.23307,0.116537 0.25991,0.129957 0.0822,0.0411 0.11274,0.153839 0.19494,0.194935 0.25549,0.12775 0.48188,0.129958 0.77974,0.129958"
           id="path74935" />
        <path
           style="fill:#d5ffd5;stroke:#000000;stroke-width:0.3;stroke-linecap:round"
           d="m 144.31738,14.685155 c 0.17498,0.116755 0.042,0.724321 0.0975,0.779743 0.008,0.0077 0.0276,-0.0097 0.0325,0 0.01,0.01937 -0.007,0.04443 0,0.06498 0.0146,0.04394 0.0436,0.08722 0.065,0.129957 0.0189,0.0378 -0.0281,0.134319 0,0.162447 0.0109,0.01094 0.54913,0 0.64979,0"
           id="path74937" />
        <path
           style="fill:#ffff00;stroke:#000000;stroke-width:0.3;stroke-linecap:round"
           d="m 134.83052,6.6278132 c 0.0961,-0.3842829 -0.0254,-0.1780093 0.19493,-0.3248927 0.14928,-0.09952 -0.0279,-0.037116 0.12996,-0.1949357 0.0766,-0.076578 0.1698,-0.1348629 0.25991,-0.1949358 0.11451,-0.076336 0.12996,0.3571859 0.12996,0.3898715 0,0.2931366 -0.10599,0.4901784 -0.38987,0.5848069 -0.0162,0.00542 -0.32239,0.010038 -0.32489,0 -0.021,-0.084051 0,-0.1732761 0,-0.2599142 z"
           id="path74943" />
        <path
           style="fill:#d5ffd5;stroke:#000000;stroke-width:0.286291;stroke-linecap:round"
           d="m 136.22536,8.5392467 c 0.33226,0.305307 0.50525,0.4604495 0.71308,0.8627667 0.084,0.1626847 0.0942,0.3549749 0.17826,0.5176597 0.21431,0.4148569 0.58857,0.7942769 0.80222,1.2078729 0.0348,0.06738 0.10039,0.355998 0.17827,0.431384 0.0469,0.04547 0.1313,0.0408 0.17827,0.08627 0.16596,0.16063 0.2801,0.443675 0.44568,0.603937 0.047,0.04547 0.13129,0.0408 0.17827,0.08627 0.047,0.04547 0.0422,0.127082 0.0891,0.172553 0.0211,0.02034 0.0654,-0.01726 0.0891,0 0.42628,0.309453 1.15876,0.929917 1.15876,1.466704"
           id="path76397" />
      </g>
    </g>
  </g>
</svg>
