<?xml version="1.0" encoding="UTF-8" standalone="no"?>
<!-- Created with Inkscape (http://www.inkscape.org/) -->

<svg
   width="100.751mm"
   height="128.36884mm"
   viewBox="0 0 100.751 128.36884"
   version="1.1"
   id="svg14123"
   inkscape:export-filename="ler.svg"
   inkscape:export-xdpi="96"
   inkscape:export-ydpi="96"
   xmlns:inkscape="http://www.inkscape.org/namespaces/inkscape"
   xmlns:sodipodi="http://sodipodi.sourceforge.net/DTD/sodipodi-0.dtd"
   xmlns="http://www.w3.org/2000/svg"
   xmlns:svg="http://www.w3.org/2000/svg">
  <sodipodi:namedview
     id="namedview14125"
     pagecolor="#ffffff"
     bordercolor="#000000"
     borderopacity="0.25"
     inkscape:showpageshadow="2"
     inkscape:pageopacity="0.0"
     inkscape:pagecheckerboard="0"
     inkscape:deskcolor="#d1d1d1"
     inkscape:document-units="mm"
     showgrid="false" />
  <defs
     id="defs14120" />
  <g
     inkscape:label="圖層 1"
     inkscape:groupmode="layer"
     id="layer1"
     transform="translate(-3.232128,-2.5891558)">
    <g
       id="g223962"
       transform="matrix(8.5737559,0,0,8.5737559,-825.05561,-14.616543)"
       style="fill:#999999">
      <path
         style="fill:#999999;stroke:#000000;stroke-width:0.3;stroke-linecap:round"
         d="m 99.888303,6.2487624 c 0.03063,-0.091894 0.0782,-0.1797899 0.09189,-0.2756807 0.01733,-0.1212935 -0.01431,-0.2458887 0,-0.3675743 0.02354,-0.2002343 0.167987,-0.6965614 0.229737,-0.872989 0.17588,-0.5025014 0.44861,-1.1837585 0.82704,-1.5621905 0.27179,-0.2717882 0.61014,-0.4226869 0.91894,-0.6432549 0.14753,-0.1053815 0.25329,-0.2874603 0.41352,-0.3675743 0.14572,-0.072859 0.18802,0.8770078 0.13784,1.0108292 -0.0601,0.1603309 -0.17558,0.2970216 -0.22973,0.4594678 -0.01,0.029059 0,0.061262 0,0.091894 -0.0306,0.061262 -0.0613,0.1225246 -0.0919,0.183787 -0.0399,0.079876 -0.10467,0.1468168 -0.13784,0.229734 -0.0114,0.02844 0.017,0.066407 0,0.091894 -0.019,0.028495 -0.0713,0.01855 -0.0919,0.045947 -0.0291,0.038746 -0.0224,0.095503 -0.046,0.1378402 -0.45947,0.8270423 0,-0.06892 -0.27568,0.4135213 -0.051,0.089203 -0.0762,0.1934884 -0.13784,0.2756805 -0.1641,0.2187966 -0.33491,0.4400915 -0.45947,0.6892017 -0.0522,0.1044887 0.0281,0.3009789 0,0.4135213 -0.0377,0.150714 -0.27568,0.3289524 -0.27568,0.4135209"
         id="path27984" />
      <g
         id="g223943"
         style="fill:#999999">
        <g
           id="g98621"
           style="fill:#999999">
          <path
             style="fill:#999999;stroke:#000000;stroke-width:0.3;stroke-linecap:round"
             d="m 102.46132,6.6622834 c 0.046,-0.091893 0.0919,-0.1837873 0.13784,-0.2756808 0.0613,-0.091893 0.13091,-0.1787239 0.18379,-0.2756807 0.11042,-0.2024412 0.1397,-0.452887 0.27568,-0.643255 0.0378,-0.052875 0.1018,-0.083775 0.13784,-0.1378402 0.0269,-0.040298 0.021,-0.09631 0.0459,-0.1378403 0.16994,-0.2832314 0.55031,-0.6540865 0.82704,-0.8270422 0.25435,-0.1589702 0.30827,-0.1407991 0.59731,-0.2297338 0.34275,-0.1054621 0.68022,-0.2353315 1.01083,-0.3675742 0.05,-0.019997 0.99505,-0.2914579 1.01083,-0.2756808 0.10794,0.1079384 -0.14966,0.2879387 -0.18379,0.3675743 -0.0308,0.07178 -0.0185,0.1566116 -0.0459,0.229734 -0.0465,0.1239276 -0.10733,0.1379818 -0.18378,0.2297337 -0.0844,0.1012129 -0.13658,0.2284664 -0.22974,0.3216275 -0.0108,0.010829 -0.0351,-0.010829 -0.0459,0 -0.0391,0.039047 -0.0574,0.09472 -0.0919,0.1378403 -0.14627,0.1828434 -0.37598,0.3112635 -0.50541,0.5054147 -0.019,0.028495 -0.0217,0.067678 -0.046,0.091894 -0.0391,0.039047 -0.0988,0.052846 -0.13784,0.091894 -0.0801,0.080123 -0.10366,0.1496113 -0.18379,0.229734 -0.0242,0.024215 -0.0645,0.025397 -0.0919,0.045947 -0.0781,0.058616 -0.4179,0.3615539 -0.45947,0.4135209 -0.0345,0.04312 -0.0528,0.098793 -0.0919,0.1378405 -0.0463,0.046286 -0.13977,0.062544 -0.18379,0.091893 -0.0816,0.054382 -0.14118,0.1854595 -0.22973,0.229734 -0.0503,0.025127 -0.13637,0.044476 -0.18379,0.091893 -0.0242,0.024217 -0.0217,0.067678 -0.046,0.091894 -0.008,0.00847 -0.12937,0.037481 -0.13784,0.045947 -0.0718,0.071832 -0.0743,0.1837872 -0.18378,0.1837872"
             id="path27982" />
          <path
             style="fill:#999999;stroke:#000000;stroke-width:0.3;stroke-linecap:round"
             d="m 100.80724,6.7082301 c 0.0613,-0.076578 0.11444,-0.1603896 0.18379,-0.229734 0.0258,-0.025815 0.19659,-0.034899 0.22973,-0.045947 0.0206,-0.00685 0.0254,-0.039098 0.046,-0.045947 0.0872,-0.029059 0.18378,0 0.27568,0 0.17075,0 0.34794,-0.00655 0.50541,0.045947 0.0943,0.031446 0.13318,0.1137002 0.22974,0.1378405 0.18249,0.045623 0.23019,0.092355 0.36757,0.2297337"
             id="path29440" />
          <path
             style="fill:#999999;stroke:#000000;stroke-width:0.3;stroke-linecap:round"
             d="m 103.5181,7.0758044 c 0.16474,0.1652479 0.40986,0.2707957 0.55136,0.4594677 0.0206,0.027397 0.0175,0.072897 0.0459,0.091894 0.0255,0.016992 0.0664,-0.016992 0.0919,0 0.0373,0.024866 0.069,0.1916332 0.0919,0.2297337 0.0954,0.1590522 0.20749,0.3349244 0.27569,0.5054148 0.0114,0.02844 -0.01,0.062834 0,0.091893 0.007,0.020547 0.0306,0.030631 0.0459,0.045947 0.0153,0.030631 0.0376,0.05867 0.046,0.091893 0.0254,0.1013346 0.0849,0.8481002 0.046,0.9648825 -0.007,0.020548 -0.0363,0.026574 -0.046,0.045947 -0.0258,0.05159 -0.0104,0.1941706 -0.046,0.229734 -0.0242,0.024215 -0.0729,0.017452 -0.0919,0.045947 -0.017,0.025487 0.01,0.062834 0,0.091894 -0.0319,0.095721 -0.13784,0.1547809 -0.13784,0.2756809"
             id="path29442" />
          <path
             style="fill:#999999;stroke:#000000;stroke-width:0.3;stroke-linecap:round"
             d="m 99.750463,6.3866026 c -0.09998,0.2594102 -0.229735,0.5457341 -0.229735,0.827042"
             id="path30898" />
          <path
             style="fill:#999999;stroke:#000000;stroke-width:0.3;stroke-linecap:round"
             d="m 99.474783,10.843441 c 0,0.06126 0.01201,0.123714 0,0.183787 -0.019,0.09498 -0.07088,0.181122 -0.0919,0.27568 -0.01728,0.07775 -0.0276,0.836144 0,0.918936 0.0048,0.01453 0.0391,-0.0137 0.04595,0 0.03683,0.07366 0.06963,0.364751 0.04595,0.459468 -0.0455,0.181994 -0.29828,0.424446 -0.413522,0.597308 -0.0662,0.09931 -0.09038,0.214836 -0.13784,0.321627 -0.104653,0.235473 -0.217366,0.488924 -0.367575,0.689202 -0.08861,0.118147 -0.110615,0.29157 -0.183788,0.413521 -0.03617,0.06029 -0.227187,0.224644 -0.27568,0.321627 -0.01371,0.0274 0.01371,0.0645 0,0.09189 -0.01937,0.03875 -0.08139,0.04987 -0.09189,0.09189 -0.02601,0.104008 -0.01762,0.215877 0,0.321627 0.02985,0.179144 0.222612,0.143987 0.27568,0.183787 0.04418,0.03313 0.05285,0.09879 0.09189,0.137841 0.03425,0.03425 0.09452,0.02429 0.137843,0.04595 0.213347,0.106675 0.348612,0.183787 0.597307,0.183787 0.08491,0 0.239514,0.02737 0.321628,0 0.12882,-0.04294 0.150257,-0.312934 0.183787,-0.413521 0.09566,-0.286965 0.245026,-0.551308 0.367573,-0.827041 0.08478,-0.190763 0.122164,-0.418032 0.229734,-0.597309 0.0223,-0.03714 0.0659,-0.05724 0.0919,-0.09189 0.0605,-0.08068 0.0818,-0.191692 0.13785,-0.275681 0.024,-0.03604 0.0782,-0.0508 0.0919,-0.09189 0.01,-0.02906 -0.01,-0.06283 0,-0.09189 0.0245,-0.07358 0.0674,-0.01831 0.0919,-0.09189 0.01,-0.02906 -0.0137,-0.0645 0,-0.09189 0.0194,-0.03875 0.0725,-0.05315 0.0919,-0.09189 0.0188,-0.03766 0.0459,-0.18236 0.0459,-0.229734"
             id="path32352" />
          <path
             style="fill:#999999;stroke:#000000;stroke-width:0.3;stroke-linecap:round"
             d="m 102.0478,13.094833 c -0.0847,0.847387 -0.0507,0.912696 -0.27568,1.700031 -0.14065,0.492287 -0.37293,0.975597 -0.59731,1.42435 -0.0587,0.117451 0.3977,0.530771 0.45947,0.551361 0.023,0.0077 0.81545,0.0077 0.82704,0 0.14503,-0.09668 0.0901,-0.150763 0.18379,-0.27568 0.0206,-0.0274 0.0749,-0.01621 0.0919,-0.04595 0.15534,-0.271835 0.13231,-0.62664 0.22974,-0.918936 0.0217,-0.06498 0.0753,-0.117338 0.0919,-0.183787 0.007,-0.02972 -0.0114,-0.06345 0,-0.09189 0.0205,-0.05127 0.0744,-0.08545 0.0919,-0.13784 0.0347,-0.104242 -0.006,-0.263571 0.0459,-0.367574 0.12833,-0.256666 0.10476,-0.01839 0.18379,-0.413521 0.012,-0.06007 -0.0101,-0.123359 0,-0.183787 0.0554,-0.332483 0.0219,0.07223 0.0919,-0.13784 0.0523,-0.156741 0.046,-0.326181 0.046,-0.505415"
             id="path33080" />
          <path
             style="fill:#999999;stroke:#000000;stroke-width:0.3;stroke-linecap:round"
             d="m 100.76129,13.14078 c 0.14875,-0.145977 0.30366,-0.235329 0.50542,-0.275681 0.10209,-0.02042 0.77539,0.06916 0.77539,0.195729"
             id="path33810"
             sodipodi:nodetypes="csc" />
          <path
             style="fill:#999999;stroke:#000000;stroke-width:0.3;stroke-linecap:round"
             d="m 104.94245,13.370514 c -0.0574,0.18947 0.10918,0.287528 0.13784,0.459467 0.0101,0.06043 -0.0194,0.125669 0,0.183788 0.0137,0.0411 0.0725,0.05315 0.0919,0.09189 0.0728,0.145584 -0.0951,0.04276 0.046,0.183787 0.0936,0.09358 0.0797,0.05719 0.18379,0.09189 0.0914,0.03048 0.0214,0.04288 0.0459,0.09189 0.0593,0.118623 0.0818,-0.03032 0.13784,0.137841 0.0233,0.06991 0.0233,0.619293 0,0.689201 -0.0613,0.183787 -0.0441,-0.0093 -0.0919,0.229734 -0.0199,0.09938 0.0319,0.225915 0,0.321628 -0.0638,0.191411 -0.0459,0.391592 -0.0459,0.597308 0,0.06126 -0.0274,0.128992 0,0.183787 0.0216,0.04329 0.26737,-0.02713 0.32163,0 0.0988,0.04941 0.14878,0.106114 0.27568,0.13784 0.0919,0.02297 0,-0.04595 0.13784,0 0.0226,0.0075 0.0933,0.09048 0.13784,0.04595 0.0759,-0.07587 0.046,-0.589208 0.046,-0.735149 0,-0.295269 -0.0578,-1.239255 0,-1.470296 0.0198,-0.07935 0.066,-0.151958 0.0919,-0.229734 0.0138,-0.04135 -0.0138,-0.09649 0,-0.137841 0.0368,-0.110511 0.0551,0.01862 0.0919,-0.09189 0.01,-0.02906 -0.0137,-0.0645 0,-0.09189 0.029,-0.05812 0.11729,-0.0762 0.13784,-0.13784 0.10471,-0.314131 0.15135,-0.970304 0.0459,-1.28651 -0.0472,-0.141494 -0.22018,-0.541808 -0.32162,-0.643255 -0.16723,-0.167229 -0.0323,0.04885 -0.13784,-0.09189 -0.0215,-0.02872 -0.0852,-0.148664 -0.13784,-0.183788 -0.0285,-0.019 -0.0677,-0.02173 -0.0919,-0.04595 -0.0242,-0.02422 -0.024,-0.06559 -0.0459,-0.09189 -0.0971,-0.116475 -0.20516,-0.224565 -0.32163,-0.321627 -0.0424,-0.03535 -0.0988,-0.05285 -0.13784,-0.09189 -0.073,-0.07295 -0.12548,-0.177606 -0.22974,-0.229734 -0.0585,-0.02926 -0.17608,-0.05612 -0.22973,-0.09189 -0.17199,-0.114662 -0.3561,-0.243522 -0.55136,-0.321628 -0.0284,-0.01138 -0.0645,0.0137 -0.0919,0 -0.0137,-0.0069 0.007,-0.03225 0,-0.04595 -0.0194,-0.03875 -0.0613,-0.06126 -0.0919,-0.09189"
             id="path36720" />
          <path
             style="fill:#999999;stroke:#000000;stroke-width:0.3;stroke-linecap:round"
             d="m 103.5181,14.243502 c 0.052,0.520426 0.0459,0.305548 0.0459,0.643255 0,0.171166 -0.0457,1.103218 0,1.194616 0.003,0.0055 0.38074,0 0.50541,0 0.13548,0 0.4127,0.0033 0.41352,0 0.0404,-0.161484 0.006,-0.344033 0.046,-0.505414 0.0318,-0.127266 0.11213,-0.23902 0.13784,-0.367574 0.0124,-0.06208 -0.0308,-0.214075 0,-0.275681 0.0392,-0.07836 0.0683,-0.181236 0.0919,-0.275681 0.0253,-0.101174 -0.0205,-0.219214 0,-0.321627 0.019,-0.09498 0.0684,-0.181709 0.0919,-0.275681 0.0276,-0.110345 0.007,-0.20333 0.0459,-0.321627"
             id="path36722" />
          <path
             style="fill:#999999;stroke:#000000;stroke-width:0.3;stroke-linecap:round"
             d="m 106.64248,12.12995 c 0.37043,0.0054 0.6289,0.215382 0.87299,0.459468 0.0613,0.06126 0.13573,0.1117 0.18379,0.183787 0.18156,0.27235 0.18378,0.859922 0.18378,1.194617 0,0.124933 -0.0509,0.500433 -0.0459,0.505414 0.0199,0.01988 0.33856,0.0145 0.36757,0 0.0338,-0.01691 -0.18379,-0.370585 -0.18379,-0.459467"
             id="path38176" />
          <path
             style="fill:#fff6d5;stroke:#000000;stroke-width:0.296175;stroke-linecap:round"
             d="m 99.865992,7.3935328 c -0.03066,-0.014916 -0.05902,-0.035582 -0.09197,-0.044745 -0.09204,-0.025586 -0.20476,0.01832 -0.298904,0 -0.06929,-0.013484 -0.156101,-0.040331 -0.229927,-0.022373 -0.06583,0.016011 -0.136266,0.039015 -0.206934,0.044745 -0.277904,0.022536 -0.560078,-0.042067 -0.827732,0.044745 -0.107033,0.034716 -0.338682,0.076917 -0.436861,0.1342352 -0.240715,0.1405351 -0.412399,0.2937462 -0.597808,0.4921952 -0.03978,0.042579 -0.1519,0.1286093 -0.183941,0.2013527 -0.01245,0.028262 -0.01189,0.0607 -0.02299,0.089491 -0.05343,0.1386346 -0.12244,0.2741202 -0.137955,0.4250776 -0.0038,0.037102 0.0069,0.075177 0,0.1118626 -0.0087,0.046405 -0.03547,0.088193 -0.04599,0.1342352 -0.01163,0.050959 0.0066,0.1048081 0,0.1566077 -0.01742,0.135556 -0.02299,0.2635878 -0.02299,0.4027053 0,0.074575 -0.0126,0.1501647 0,0.223725 0.0099,0.058195 0.07273,0.1004461 0.09197,0.1566074 0.01001,0.029167 0.0089,0.061986 0.02299,0.089487 0.0076,0.01491 0.05365,0.04848 0.06898,0.06712 0.03066,0.03729 0.05271,0.08322 0.09197,0.111863 0.232575,0.169727 -0.08304,-0.0619 0.137955,0.06712 0.01859,0.01085 0.02739,0.03389 0.04599,0.04475 0.171001,0.09983 0.4647,0.187106 0.666786,0.246097 0.08592,0.02509 0.166662,0.06551 0.252918,0.08949 0.222435,0.06184 0.167118,0.01269 0.298903,0.04475 0.04004,0.0097 0.07449,0.03687 0.114963,0.04475 0.149578,0.02911 0.309999,-0.0068 0.459852,0.02237 0.11318,0.02203 0.390147,0.05051 0.505838,0.02237 0.0901,-0.02192 0.100755,-0.0089 0.183941,-0.02237 0.02391,-0.0039 0.04599,-0.01491 0.06898,-0.02237 0.03066,-0.0075 0.06069,-0.01803 0.09197,-0.02237 0.148044,-0.02058 0.525424,-0.05746 0.643794,-0.134236 0.0848,-0.05501 0.14475,-0.139194 0.22992,-0.201352 0.0357,-0.02609 0.0834,-0.03637 0.11497,-0.06712 0.0345,-0.03356 0.0575,-0.07831 0.092,-0.111862 0.0121,-0.01179 0.0338,-0.01059 0.0459,-0.02237 0.0538,-0.0524 0.0787,-0.110421 0.13796,-0.156608 0.0929,-0.072337 0.21239,-0.127774 0.25292,-0.2461037 0.0121,-0.035374 0,-0.074575 0,-0.1118624 0,-0.032835 0.007,-0.1245794 0,-0.1566077 -0.0311,-0.1364004 -0.11655,-0.2507148 -0.16094,-0.3803328 -0.0124,-0.036075 -0.009,-0.076258 -0.023,-0.1118626 -0.01,-0.025176 -0.0336,-0.043068 -0.046,-0.067117 -0.0306,-0.05966 -0.065,-0.1176712 -0.092,-0.17898 -0.0124,-0.028262 -0.01,-0.061498 -0.023,-0.08949 -0.0426,-0.072568 -0.10114,-0.1655101 -0.13795,-0.2460979 -0.0265,-0.058134 -0.0542,-0.1462774 -0.092,-0.2013527 -0.0272,-0.039731 -0.0635,-0.073005 -0.092,-0.1118623 -0.0384,-0.052365 -0.0548,-0.1307682 -0.092,-0.1789802 -0.023,-0.02983 -0.0649,-0.040751 -0.092,-0.067117 -0.0633,-0.061671 -0.13161,-0.1524927 -0.20693,-0.2013526 -0.0128,-0.00833 -0.0766,-0.062129 -0.092,-0.067117 -0.0145,-0.00471 -0.0332,0.00828 -0.0459,0 -0.0143,-0.00925 -0.0109,-0.032954 -0.023,-0.044745 -0.0316,-0.030748 -0.0735,-0.050968 -0.11495,-0.067117 -0.0142,-0.00554 -0.033,0.00791 -0.0459,0 C 99.95313,7.474545 99.91192,7.43084 99.86593,7.3935524 Z"
             id="path41820" />
          <ellipse
             style="fill:#999999;stroke:#000000;stroke-width:0.3;stroke-linecap:round"
             id="path41824"
             cx="102.45495"
             cy="8.3010111"
             rx="0.11371248"
             ry="0.21118033" />
          <ellipse
             style="fill:#999999;stroke:#000000;stroke-width:0.3;stroke-linecap:round"
             id="path42552"
             cx="99.547157"
             cy="8.6583929"
             rx="0.09746784"
             ry="0.14620177" />
          <path
             style="fill:#999999;stroke:#000000;stroke-width:0.3;stroke-linecap:round"
             d="m 98.702436,9.6168272 c -0.08664,0.032489 -0.169754,0.076662 -0.259914,0.097468 -0.119306,0.027532 -0.630812,0.011644 -0.747255,0 -0.110259,-0.011025 -0.221805,-0.095595 -0.324892,-0.129957 -0.120142,-0.040047 -0.330557,0 -0.454851,0"
             id="path43280" />
        </g>
      </g>
    </g>
    <path
       style="fill:#ffffff;fill-opacity:1;stroke:#999999;stroke-width:1.07912;stroke-linecap:round;stroke-opacity:0.974441"
       d="m 240.11614,402.95683 c -0.75998,-0.75999 -0.81114,-1.8357 -0.16778,-3.52786 0.50907,-1.33898 1.1822,-5.76208 1.49582,-9.82915 0.46151,-5.98477 0.26761,-7.85653 -1.01702,-9.81713 -1.8355,-2.80131 -5.72245,-3.242 -8.26889,-0.9375 -1.49781,1.35549 -3.21908,1.04497 -19.74169,-3.56146 l -18.10081,-5.04643 -1.04007,-3.47146 c -0.57204,-1.9093 -2.03387,-4.12261 -3.24851,-4.91847 -3.58901,-2.35162 -11.92836,-4.45268 -20.19528,-5.08813 -9.18171,-0.70576 -15.35862,0.95258 -21.76636,5.84372 l -4.11427,3.1405 -16.51635,-30.11936 c -9.08399,-16.56565 -16.66924,-31.42099 -16.85611,-33.01187 -0.3228,-2.74813 -0.11007,-2.94811 4.26165,-4.00642 2.53078,-0.61265 8.02763,-1.59662 12.21524,-2.18659 12.18528,-1.71675 16.30948,-4.07811 29.84306,-17.08701 2.99509,-2.87897 7.0353,-6.4344 8.97823,-7.90095 4.81643,-3.6355 6.3858,-7.08101 6.3858,-14.01994 0,-4.40439 -0.70042,-7.43187 -2.85519,-12.34132 -1.57035,-3.5779 -2.84309,-6.86177 -2.82832,-7.29748 0.0148,-0.43572 -1.24811,-3.36188 -2.80641,-6.50258 -1.55831,-3.1407 -4.5347,-9.13659 -6.61421,-13.32419 -6.26899,-12.62415 -9.95427,-18.072 -15.88572,-23.48344 -6.47876,-5.91076 -13.65214,-11.25275 -15.11853,-11.25871 -0.55119,-0.002 -2.92942,-1.28524 -5.28494,-2.85111 -2.35553,-1.56587 -5.3028,-2.84887 -6.54948,-2.85111 -2.10156,-0.004 -2.22881,-0.2866 -1.74659,-3.88183 0.84232,-6.27998 6.42344,-20.24503 8.8105,-22.04559 2.08332,-1.57146 2.48687,-1.4951 11.05198,2.09112 7.74717,3.24374 8.9606,4.06646 9.44126,6.40128 1.05839,5.14119 2.62823,6.96193 6.00256,6.96193 2.00782,0 3.80747,-0.73301 4.96308,-2.02148 1.742,-1.94228 2.35376,-1.99764 15.61309,-1.41307 29.42512,1.2973 31.12964,1.51865 34.92586,4.53551 3.80428,3.02326 6.26897,2.92768 9.1043,-0.35308 l 1.67823,-1.9419 7.02559,2.68235 c 4.56194,1.74175 6.86363,3.10434 6.56378,3.88574 -0.48891,1.2741 1.98785,4.02858 7.14861,7.95013 3.04787,2.31601 3.44486,3.51763 14.92119,45.16509 l 11.79002,42.78577 -1.84757,5.48441 c -2.50808,7.44513 -2.35992,8.87942 1.39181,13.47397 3.16028,3.87022 3.4372,4.95472 11.34121,44.41553 l 8.10183,40.44845 -1.89958,2.04533 c -1.42318,1.53238 -1.85715,3.20319 -1.73038,6.6621 0.18982,5.17943 -1.57315,10.45666 -3.78592,11.33267 -0.80656,0.31932 -7.6765,2.86476 -15.26653,5.65656 -7.59003,2.7918 -14.45453,5.33516 -15.25443,5.65191 -0.79991,0.31676 -1.9464,0.0839 -2.54776,-0.51745 z M 205.12401,224.89842 c 3.40455,-1.55121 5.20791,-5.44176 5.20791,-11.23545 0,-6.08346 -1.96,-9.97074 -5.68145,-11.26804 -6.5188,-2.27247 -11.66928,2.70091 -11.66928,11.26804 0,9.2049 5.47697,14.27261 12.14282,11.23545 z"
       id="path20402"
       transform="scale(0.26458333)" />
  </g>
</svg>
