<?xml version="1.0" encoding="UTF-8" standalone="no"?>
<!-- Created with Inkscape (http://www.inkscape.org/) -->

<svg
   width="100.479mm"
   height="83.278587mm"
   viewBox="0 0 100.479 83.278587"
   version="1.1"
   id="svg8193"
   xmlns:inkscape="http://www.inkscape.org/namespaces/inkscape"
   xmlns:sodipodi="http://sodipodi.sourceforge.net/DTD/sodipodi-0.dtd"
   xmlns="http://www.w3.org/2000/svg"
   xmlns:svg="http://www.w3.org/2000/svg">
  <sodipodi:namedview
     id="namedview8195"
     pagecolor="#ffffff"
     bordercolor="#000000"
     borderopacity="0.25"
     inkscape:showpageshadow="2"
     inkscape:pageopacity="0.0"
     inkscape:pagecheckerboard="0"
     inkscape:deskcolor="#d1d1d1"
     inkscape:document-units="mm"
     showgrid="false" />
  <defs
     id="defs8190" />
  <g
     inkscape:label="圖層 1"
     inkscape:groupmode="layer"
     id="layer1"
     transform="translate(-4.6636182,-3.2526211)">
    <g
       id="g19151"
       transform="matrix(11.851007,0,0,11.851007,-463.47582,-65.697905)"
       style="fill:#ffd42a">
      <path
         style="fill:#ffd42a;stroke:#000000;stroke-width:0.3;stroke-linecap:round"
         d="m 40.525061,8.3623142 c -0.06909,-0.3700785 0.03325,-0.7049037 0.0919,-1.056776 0.01551,-0.092965 -0.03021,-0.2310116 0,-0.3216275 0.01966,-0.058942 0.07224,-0.1248447 0.09189,-0.1837869 0.01937,-0.058119 -0.01937,-0.1256687 0,-0.1837873 0.0069,-0.020548 0.03063,-0.030631 0.04595,-0.045947 0.01532,-0.030631 0.03512,-0.059404 0.04594,-0.091894 0.02011,-0.060281 0.0011,-0.1847398 0.04595,-0.229734 0.08891,-0.08891 0.217925,0.118946 0.229736,0.1378402 0.477617,0.7641902 -0.06116,-0.1223142 0.183787,0.3675742 0.06482,0.1296453 0.233201,0.2496752 0.321628,0.3675746 0.03973,0.052975 0.116654,0.1661771 0.13784,0.2297337 0.0097,0.029059 -0.0097,0.062834 0,0.091894 0.110937,0.3328117 -0.01326,-0.07244 0.09189,0.1378405 0.02577,0.051535 0.126524,0.4516972 0.183787,0.413521 0.02843,-0.018955 0.201904,-0.1559563 0.229736,-0.1837873 0.02421,-0.024217 0.01855,-0.071345 0.04594,-0.091894 0.03875,-0.029059 0.0991,-0.016888 0.13784,-0.045947 0.0274,-0.020548 0.01855,-0.071345 0.04595,-0.091894 0.03875,-0.029059 0.09287,-0.02796 0.13784,-0.045947 0.25041,-0.1001633 0.275135,-0.058997 0.505415,-0.091894 0.183065,-0.026151 1.201491,-0.1114295 1.332457,-0.045947 0.03063,0.015317 0.01532,0.076578 0.04595,0.091894 0.0411,0.020547 0.09674,-0.020548 0.137843,0 0.08156,0.040782 0.148167,0.097058 0.229732,0.1378402 0.06989,0.034944 0.1436,-0.091911 0.183788,-0.1378402 0.09189,-0.1072092 0.183787,-0.2144183 0.27568,-0.3216275 0.01532,-0.030631 0.0254,-0.064496 0.04595,-0.091894 0.24787,-0.3304939 -0.05102,0.096965 0.183788,-0.1378402 0.01082,-0.010829 -0.0096,-0.033987 0,-0.045947 0.146367,-0.1829589 0.339214,-0.304994 0.459467,-0.5054148 0.03578,-0.059626 0.386356,-0.4678516 0.41352,-0.413521 0.0682,0.1363925 -0.02535,0.9839717 -0.04594,1.1486698 -0.0258,0.2063085 0,0.4354708 0,0.6432547 0,0.059307 -0.02674,0.2221942 0,0.2756807 0.01056,0.021135 0.24329,0.059504 0.27568,0.091894 0.03155,0.031553 0.153467,0.2095209 0.183788,0.229734 0.02548,0.016992 0.06739,-0.018378 0.09189,0 0.04418,0.033133 0.05876,0.093663 0.09189,0.1378403 0.04547,0.060634 0.09236,0.03126 0.13784,0.091894 0.02906,0.038746 0.01688,0.099095 0.04595,0.1378403 0.02056,0.027397 0.06126,0.030631 0.09189,0.045947 0.01532,0.061262 0.02249,0.1251559 0.04595,0.1837873 0.09944,0.2485903 0.23626,0.4790456 0.321627,0.7351485 0.165569,0.4967085 -0.05655,1.3077095 -0.275682,1.7459775 -0.350094,0.700191 -1.240597,0.885526 -1.929765,1.010829 -0.317704,0.05776 -0.589762,0.193159 -0.918935,0.229734 -0.273995,0.03044 -0.55136,0 -0.827043,0 -0.235614,0 -0.499472,0.02619 -0.735147,0 -0.346459,-0.03849 -0.607333,-0.188083 -0.918935,-0.321627 -0.343839,-0.14736 0.128672,0.133257 -0.505415,-0.183787 -0.05812,-0.02906 -0.07972,-0.108781 -0.13784,-0.137841 -0.448122,-0.224061 -0.0045,0.08001 -0.59731,-0.27568 -0.07429,-0.04458 -0.114475,-0.131805 -0.183785,-0.183788 -0.48623,-0.364671 -0.699587,-1.255355 -0.505415,-1.8378708 0.014,-0.041955 0.08128,-0.095381 0.09189,-0.1378402 0.01114,-0.044575 -0.01452,-0.094252 0,-0.1378405 0.02824,-0.084722 0.07469,-0.1665862 0.13784,-0.229734 0.01082,-0.010829 0.03512,0.010829 0.04595,0 0.09875,-0.098747 -0.0043,-0.1750889 0.04595,-0.2756805 0.209161,-0.2091629 0.02429,0.019031 0.09189,-0.1837873 0.01976,-0.059273 0.161978,-0.099305 0.13784,-0.183787 -0.02453,-0.085868 -0.09189,-0.1531559 -0.13784,-0.229734 z"
         id="path7157" />
      <path
         style="fill:#ffd42a;stroke:#000000;stroke-width:0.3;stroke-linecap:round"
         d="m 41.995358,9.6488242 c 0.321435,-0.018166 0.162664,0.6221308 0.04595,0.5054148 -0.179319,-0.1793185 0.01064,-0.02468 -0.04595,-0.13784 -0.122351,-0.2447004 -0.135244,-0.029464 0,-0.3675748 z"
         id="path7159" />
      <path
         style="fill:#ffd42a;stroke:#000000;stroke-width:0.3;stroke-linecap:round"
         d="m 43.695388,10.521813 c -0.0723,0.274944 0.469607,0.291217 0.505415,0.183787 0.0097,-0.02906 -0.0074,-0.06218 0,-0.09189 0.01209,-0.04838 0.06415,-0.08323 0.04595,-0.13784 -0.05943,-0.178287 -0.162076,-0.183787 -0.321628,-0.183787 -0.03063,0 -0.07276,-0.02392 -0.0919,0 -0.05579,0.06974 -0.09189,0.153156 -0.13784,0.229734 z"
         id="path7165" />
      <path
         style="fill:#ffd42a;stroke:#000000;stroke-width:0.3;stroke-linecap:round"
         d="m 44.017016,10.84344 c -0.04594,0.06126 -0.09536,0.120071 -0.13784,0.183788 -0.09987,0.149815 -0.237411,0.338046 -0.41352,0.413521 -0.06126,0.01531 -0.122526,0.03063 -0.183788,0.04595 -0.01532,0.01532 -0.02657,0.03626 -0.04595,0.04595 -0.02537,0.01269 -0.433509,0.02596 -0.459468,0 -0.06261,-0.06261 -0.09189,-0.146508 -0.09189,-0.229734"
         id="path7167" />
      <path
         style="fill:#ffd42a;stroke:#000000;stroke-width:0.3;stroke-linecap:round"
         d="m 44.017016,11.073175 c 0.146944,0.08236 0.282747,0.277447 0.459467,0.321627 0.137179,0.0343 0.315696,0 0.45947,0 0.03063,0 0.07023,0.02166 0.09189,0 0.04431,-0.04432 0.144785,-0.335517 0.183787,-0.413521 0.01371,-0.0274 -0.02167,-0.07023 0,-0.09189 0.01082,-0.01083 0.03063,0 0.04595,0"
         id="path7169" />
      <path
         style="fill:#ffd42a;stroke:#000000;stroke-width:0.3;stroke-linecap:round"
         d="m 46.452196,10.200185 c 0.476673,-0.138979 0.910545,-0.13784 1.378405,-0.13784"
         id="path7171" />
      <path
         style="fill:#ffd42a;stroke:#000000;stroke-width:0.3;stroke-linecap:round"
         d="m 46.590036,10.7056 c 0.280334,-0.02739 0.518967,0.0045 0.781095,0.09189"
         id="path7173" />
      <path
         style="fill:#ffd42a;stroke:#000000;stroke-width:0.3;stroke-linecap:round"
         d="m 46.635983,11.211015 c 0.410261,0.10836 0.662938,0.338497 0.964883,0.597308 0.0544,0.04663 0.229735,0.120324 0.229735,0.183787"
         id="path7175" />
      <path
         style="fill:#ffd42a;stroke:#000000;stroke-width:0.3;stroke-linecap:round"
         d="m 40.938584,11.027228 c -0.134819,0.113008 -0.314172,-0.04843 -0.459471,0 -0.05239,0.01746 -0.08845,0.0672 -0.13784,0.09189 -0.01371,0.0069 -0.03063,0 -0.04594,0 -0.04595,0.01532 -0.09631,0.02103 -0.137843,0.04595 -0.03715,0.02229 -0.05724,0.0659 -0.09189,0.09189 -0.05479,0.0411 -0.126796,0.0539 -0.183787,0.09189 -0.08396,0.05598 -0.158597,0.158598 -0.229732,0.229734"
         id="path7177" />
      <path
         style="fill:#ffd42a;stroke:#000000;stroke-width:0.3;stroke-linecap:round"
         d="m 41.030476,11.440749 c -0.339614,-0.03083 -0.537184,0.149569 -0.735147,0.413521 -0.110273,0.14703 0.03369,0.05207 -0.137843,0.13784"
         id="path7179" />
      <path
         style="fill:#ffd42a;stroke:#000000;stroke-width:0.3;stroke-linecap:round"
         d="m 41.214264,11.624536 c -0.06126,0.01532 -0.130239,0.01248 -0.183788,0.04595 -0.100314,0.06269 -0.597307,0.609345 -0.597307,0.735148"
         id="path7181" />
      <path
         style="fill:#ffd42a;stroke:#000000;stroke-width:0.3;stroke-linecap:round"
         d="m 45.13982,9.4814711 c 0.321435,-0.018166 0.162664,0.6221309 0.04595,0.5054141 -0.179319,-0.1793178 0.01064,-0.02468 -0.04595,-0.1378398 -0.122351,-0.2446999 -0.135244,-0.029463 0,-0.3675743 z"
         id="path7159-0" />
    </g>
  </g>
</svg>
