<?xml version="1.0" encoding="UTF-8" standalone="no"?>
<!-- Created with Inkscape (http://www.inkscape.org/) -->

<svg
   width="100.64801mm"
   height="106.60169mm"
   viewBox="0 0 100.64801 106.60169"
   version="1.1"
   id="svg8193"
   inkscape:export-filename="ter.svg"
   inkscape:export-xdpi="96"
   inkscape:export-ydpi="96"
   xmlns:inkscape="http://www.inkscape.org/namespaces/inkscape"
   xmlns:sodipodi="http://sodipodi.sourceforge.net/DTD/sodipodi-0.dtd"
   xmlns="http://www.w3.org/2000/svg"
   xmlns:svg="http://www.w3.org/2000/svg">
  <sodipodi:namedview
     id="namedview8195"
     pagecolor="#ffffff"
     bordercolor="#000000"
     borderopacity="0.25"
     inkscape:showpageshadow="2"
     inkscape:pageopacity="0.0"
     inkscape:pagecheckerboard="0"
     inkscape:deskcolor="#d1d1d1"
     inkscape:document-units="mm"
     showgrid="false" />
  <defs
     id="defs8190" />
  <g
     inkscape:label="圖層 1"
     inkscape:groupmode="layer"
     id="layer1"
     transform="translate(-4.079023,-2.0130886)">
    <g
       id="g22138"
       transform="matrix(14.867837,0,0,14.867837,-586.87237,-75.183344)"
       style="fill:#87cdde">
      <g
         id="g223976"
         transform="matrix(0.70166931,0,0,0.70166931,-16.367871,2.879468)"
         style="fill:#ffffff">
        <path
           style="fill:#ffffff;stroke:#000000;stroke-width:0.3;stroke-linecap:round"
           d="m 81.601484,6.2257889 c -0.239999,-0.070641 -0.338209,0.052126 -0.528387,0.1837872 -0.0454,0.031432 -0.0951,0.056925 -0.137842,0.091894 -0.183735,0.1503302 -0.323358,0.2979973 -0.436494,0.5054145 -0.02461,0.045098 -0.04249,0.093791 -0.06892,0.1378405 -0.01971,0.032832 -0.0518,0.057647 -0.06892,0.091894 -0.01413,0.028241 -0.01053,0.062873 -0.02297,0.091893 -0.02344,0.054721 -0.26045,0.3598299 -0.206761,0.413521 0.03418,0.034175 0.140319,-0.080714 0.160814,-0.091894 0.190124,-0.1037029 0.398777,-0.1676217 0.59731,-0.2527072 0.03604,-0.015444 0.082,-0.021296 0.114866,-0.045947 0.03063,-0.022974 0.03706,-0.070655 0.06892,-0.091893 0.01275,-0.0085 0.03142,0.00484 0.04595,0 0.01027,-0.00342 0.01397,-0.016965 0.02297,-0.022974 0.130329,-0.086886 0.184058,-0.1608138 0.344601,-0.1608138"
           id="path57146" />
        <g
           id="g98633"
           style="fill:#ffffff">
          <path
             style="fill:#ffffff;stroke:#000000;stroke-width:0.3;stroke-linecap:round"
             d="m 83.73801,5.2379332 c -0.305922,-0.014171 -0.567097,0.1525743 -0.850016,0.2297337 -0.229074,0.062475 -0.04983,-0.023294 -0.252707,0.06892 -0.201054,0.091389 -0.380767,0.2183907 -0.574336,0.3216275 -0.147,0.078401 -0.297011,0.1110358 -0.367572,0.2756807 -0.05881,0.1372161 -0.0062,0.2936311 -0.02297,0.4364945 -0.0091,0.077559 -0.03063,0.1531559 -0.04595,0.2297337 -0.01532,0.091894 -0.03527,0.1831338 -0.04595,0.2756808 -0.0021,0.017759 -0.04077,0.5892543 -0.04595,0.6202815 -0.02963,0.1777907 -0.08355,0.3508875 -0.114869,0.528388 -0.372597,2.1113834 0.113903,-0.3500295 -0.183785,1.0108292 -0.02664,0.1217803 -0.03226,0.2484271 -0.06892,0.3675742 -0.02519,0.081831 -0.07658,0.153156 -0.114866,0.229734 -0.220552,0.441104 -0.482442,0.772525 -0.482442,1.28651 0,0.03829 -0.01008,0.07793 0,0.114867 0.01352,0.04956 0.04739,0.0912 0.06892,0.137841 0.05712,0.123759 0.06142,0.170598 0.13784,0.27568 0.118581,0.163046 0.09086,0.110696 0.229735,0.229734 0.370874,0.317893 0.460402,0.399253 0.87299,0.620282 0.364707,0.195378 0.749255,0.390199 1.148667,0.505414 0.516338,0.148943 0.723739,0.162391 1.217592,0.229734 0.311086,0.04242 0.672843,0.09871 0.987856,0.114867 0.137657,0.0071 0.275746,-0.0043 0.41352,0 0.720794,0.02252 1.252609,0.06646 1.952739,-0.20676 0.455924,-0.177922 0.998265,-0.385603 1.217588,-0.872989 0.0973,-0.216208 0.106209,-0.482838 0.160814,-0.712175 0.138832,-0.583096 0.231444,-1.238803 0.13784,-1.837872 C 89.048785,9.3017061 88.871046,8.9075788 88.769189,8.5001546 88.742598,8.3937852 88.729427,8.2842221 88.70027,8.1785271 88.475724,7.3645436 88.063307,6.5307341 87.459708,5.9271349 87.225377,5.6928051 86.921387,5.4873117 86.632665,5.3298267 86.42457,5.2163201 86.170039,5.195295 85.943463,5.1460397 85.68669,5.0902192 85.426954,4.9972526 85.162368,4.9852259 c -0.484061,-0.022003 -0.981721,0.055983 -1.42435,0.2527073 z"
             id="path56414" />
          <path
             style="fill:#ffffff;stroke:#000000;stroke-width:0.3;stroke-linecap:round"
             d="m 87.73538,5.9960549 c 0.19971,-0.0051 0.36621,0.1079135 0.551362,0.1608137 0.245669,0.070192 0.384495,0.085844 0.574334,0.2756808 0.08352,0.083515 0.178279,0.2416895 0.229732,0.344601 0.02167,0.043319 0.0259,0.093749 0.04595,0.1378402 0.01847,0.04065 0.05044,0.074217 0.06892,0.114867 0.07637,0.1680255 0.02188,0.095878 0.06892,0.2527073 0.03032,0.1010502 0.08169,0.1991161 0.114869,0.298654 0.01664,0.049912 0.05214,0.087515 0.06892,0.1378405 0.01685,0.050561 0,0.1305546 0,0.183787 0,0.030631 0.0274,0.078195 0,0.091894 -0.05949,0.029744 -0.126542,-0.057622 -0.160813,-0.091894 -0.06892,-0.06892 -0.132758,-0.1433293 -0.206762,-0.2067605 -0.039,-0.033431 -0.09773,-0.036829 -0.13784,-0.06892 -0.01336,-0.010697 -0.01532,-0.030631 -0.02296,-0.045947 -0.02297,-0.00766 -0.04726,-0.012144 -0.06892,-0.022974 -0.03519,-0.017592 -0.01797,-0.040939 -0.04595,-0.06892 -0.02707,-0.027074 -0.06126,-0.045947 -0.09189,-0.06892 -0.05701,-0.042755 -0.137163,-0.068242 -0.183788,-0.1148667"
             id="path57144" />
          <path
             style="fill:#ffe6d5;stroke:#000000;stroke-width:0.3;stroke-linecap:round"
             d="M 81.693379,5.7433477 C 81.551975,5.4605409 81.520018,5.4570756 81.486617,5.1230662 c -0.02879,-0.2878548 0.03696,-0.5293691 0.09189,-0.8040688 0.04669,-0.2334403 -0.105691,0.1976094 0.04595,-0.2067605 0.01752,-0.046714 0.0085,-0.071415 0.02297,-0.114867 0.0034,-0.010274 0.01532,-0.015314 0.02297,-0.022974 0.0076,-0.015317 0.01757,-0.029702 0.02297,-0.045947 0.0083,-0.025003 -0.01413,-0.070717 0,-0.091894 0.0021,-0.00332 0.08264,-0.1104056 0.09189,-0.091893 0.0693,0.1386043 0.02969,0.1318331 0.06892,0.2756807 0.01085,0.039785 0.03594,0.07486 0.04595,0.114867 0.01312,0.052532 0.0108,0.1080516 0.02296,0.1608138 0.03957,0.1714497 0.106074,0.3729587 0.183788,0.5283879 0.02519,0.050357 0.111715,0.1469621 0.160814,0.183787 0.01595,0.011962 0.08093,0.034978 0.0919,0.045947 0.01212,0.012107 0.01087,0.033839 0.02297,0.045947 0.03446,0.03446 0.08041,0.057434 0.114868,0.091894 0.02863,0.028632 0.06295,0.1088967 0.114867,0.1608137"
             id="path57150" />
          <path
             style="fill:#ffffff;stroke:#000000;stroke-width:0.3;stroke-linecap:round"
             d="m 81.279856,9.6488241 c 0.07658,-0.045947 0.147992,-0.1018739 0.229735,-0.1378403 0.341135,-0.1501002 0.719476,-0.1956204 1.079749,-0.2756807 0.28372,-0.063049 0.561059,-0.1222865 0.850016,-0.1608138 0.114112,-0.015213 0.230817,-0.00547 0.344601,-0.022974 0.04787,-0.00737 0.09007,-0.037985 0.13784,-0.045947 0.04532,-0.00755 0.09221,0.00537 0.13784,0 0.236755,-0.027854 0.475298,-0.093333 0.712174,-0.1148668 0.188164,-0.017105 0.385313,0 0.574336,0 0.130183,0 0.260901,-0.011787 0.390547,0 0.03889,0.00353 0.07598,0.019439 0.114868,0.022974 0.04576,0.00416 0.09243,-0.00699 0.13784,0 0.0551,0.00848 0.106146,0.035013 0.160814,0.045947 0.06054,0.012107 0.123418,0.010038 0.183788,0.022974 0.176913,0.03791 0.35461,0.1086811 0.528386,0.1608138 0.121446,0.036433 0.248809,0.044386 0.367575,0.091893 0.252082,0.1008332 -0.147617,-0.010917 0.160814,0.091894 0.03704,0.012348 0.07782,0.010626 0.114866,0.022974 0.08331,0.02777 0.125793,0.078063 0.206761,0.114867 0.04409,0.020042 0.09287,0.02796 0.13784,0.045947 0.130477,0.05219 0.24784,0.1349197 0.367575,0.2067605 0.05743,0.03446 0.06892,0.022974 0.13784,0.06892 0.07981,0.05321 0.148915,0.1299075 0.229735,0.183787 0.03068,0.020455 0.08903,0.043088 0.114866,0.06892 0.01212,0.01211 0.01087,0.03384 0.02297,0.04595 0.05952,0.05952 0.147257,0.10131 0.206759,0.160814 0.01212,0.01211 0.01087,0.03384 0.02297,0.04595 0.01212,0.01211 0.03645,0.0087 0.04595,0.02297 0.0085,0.01274 -0.0069,0.03225 0,0.04595 0.0034,0.0069 0.01611,-0.0034 0.02297,0 0.04842,0.02421 0.0061,0.03753 0.06892,0.06892"
             id="path57878" />
          <path
             style="fill:#ffffff;stroke:#000000;stroke-width:0.3;stroke-linecap:round"
             d="m 87.046177,10.544786 c 0.03829,0.07658 0.08779,0.148511 0.114869,0.229734 0.01212,0.03632 0,0.07658 0,0.114867 0,0.03063 0.02906,0.08221 0,0.09189 -0.03247,0.01082 -0.182798,0.01297 -0.206761,-0.02297 -0.01564,-0.02346 0,-0.256971 0,-0.298654 0,-0.01532 -0.0096,-0.03399 0,-0.04595 0.02392,-0.0299 0.06126,-0.04595 0.09189,-0.06892 z"
             id="path57880" />
          <path
             style="fill:#ffffff;stroke:#000000;stroke-width:0.3;stroke-linecap:round"
             d="m 83.301516,10.200186 c 0.02297,0.03063 0.05032,0.05842 0.06892,0.09189 0.04723,0.08502 0.09403,0.221212 0.06892,0.321628 -0.0026,0.01051 -0.01955,0.0127 -0.02297,0.02297 -0.0048,0.01453 0.0069,0.03225 0,0.04595 -0.0034,0.0069 -0.01955,-0.0069 -0.02297,0 -0.0069,0.0137 0.0085,0.0332 0,0.04595 -0.0095,0.01425 -0.03384,0.01087 -0.04595,0.02297 -0.01212,0.01211 -0.01087,0.03384 -0.02297,0.04595 -0.01082,0.01083 -0.03142,-0.0048 -0.04595,0 -0.02809,0.0094 -0.148476,0.08126 -0.183787,0.04595 -0.11997,-0.119969 -0.01204,-0.435418 0.04595,-0.551361 0.01791,-0.03585 0.0081,-0.114867 0.04595,-0.114867"
             id="path57882" />
          <path
             style="fill:#ffffff;stroke:#000000;stroke-width:0.3;stroke-linecap:round"
             d="m 82.979889,7.8339264 c 0.08971,-0.00607 0.14433,-0.1955734 0.229732,-0.229734 0.05652,-0.022609 0.457367,-0.040729 0.528389,-0.022974 0.05253,0.013134 0.06981,0.084831 0.114866,0.114867 0.02016,0.013433 0.04726,0.012144 0.06892,0.022974 0.02633,0.013168 0.03196,0.047934 0.04595,0.06892 0.03698,0.055462 0.0077,-0.00766 0.06892,0.022974 0.0069,0.00342 -0.0054,0.017558 0,0.022974 0.01212,0.012107 0.03225,0.0127 0.04595,0.022974 0.03817,0.028632 0.05916,0.114867 0.09189,0.114867"
             id="path57888" />
          <path
             style="fill:#ffffff;stroke:#000000;stroke-width:0.3;stroke-linecap:round"
             d="m 86.058321,7.9717666 c 0.120489,-0.049179 0.232204,-0.1275876 0.344601,-0.183787 0.0274,-0.013698 0.06168,0.00504 0.09189,0 0.05881,-0.0098 0.105249,-0.059659 0.160814,-0.06892 0.03908,-0.00651 0.285591,-0.014414 0.321628,0 0.02011,0.00804 0.02862,0.032951 0.04594,0.045947 0.07681,0.057605 0.174295,0.1236001 0.229736,0.2067605 0.0095,0.014248 0.01087,0.033839 0.02296,0.045947 0.02641,0.026397 0.04063,0.022974 0.06892,0.022974"
             id="path57890" />
          <path
             style="fill:#000000;stroke:#000000;stroke-width:0.3;stroke-linecap:round"
             d="m 86.690091,5.5365872 c 0.05288,0.2593501 0.157197,0.5042432 0.229732,0.7581217 0.03615,0.1265211 0.07341,0.2515942 0.13784,0.3675745 0.130646,0.2351609 0.310505,0.4397312 0.436497,0.6777149 0.01765,0.033328 0.03063,0.06892 0.04594,0.1033804 0.0268,0.053605 0.0513,0.1084238 0.08041,0.1608137 0.0294,0.052922 0.0698,0.098955 0.103381,0.1493269 0.03829,0.057434 0.07345,0.1170794 0.114869,0.1723006 0.08412,0.1121614 0.192812,0.2079326 0.298654,0.298654 0.07157,0.061346 0.133617,0.1299856 0.218247,0.1723004 0.03448,0.01724 0.06995,0.04072 0.10338,0.057434 0.0087,0.00436 0.153959,0.00228 0.160814,0 0.0036,-0.00122 -0.0027,-0.00878 0,-0.011485 0.0057,-0.00574 0.02872,0.00574 0.03446,0 0.0027,-0.00271 5.29e-4,-0.00768 0,-0.011486 -0.0034,-0.030681 -0.0064,-0.061444 -0.01148,-0.091893 -0.02834,-0.1700578 -0.07227,-0.3398009 -0.149328,-0.4939279 -0.06987,-0.1397449 -0.09397,-0.1555432 -0.13784,-0.2871673 -0.01,-0.029954 -0.01368,-0.061716 -0.02297,-0.091894 -0.02724,-0.088514 -0.06645,-0.1751518 -0.09189,-0.2641939 -0.0031,-0.011044 0.0034,-0.023482 0,-0.03446 -0.03022,-0.098213 -0.08671,-0.241078 -0.137843,-0.3331141 -0.0093,-0.016735 -0.02297,-0.030631 -0.03446,-0.045947 -0.01148,-0.019145 -0.02376,-0.037834 -0.03446,-0.057434 -0.0123,-0.022548 -0.02022,-0.047549 -0.03446,-0.06892 -0.0362,-0.054304 -0.09502,-0.1003948 -0.137842,-0.1493271 -0.0091,-0.01039 -0.01249,-0.025477 -0.02297,-0.03446 -0.03342,-0.028645 -0.08361,-0.049149 -0.114869,-0.080407 -0.0098,-0.00976 -0.0132,-0.024699 -0.02297,-0.03446 -0.0061,-0.00605 -0.01691,-0.00543 -0.02297,-0.011486 -0.0098,-0.00976 -0.0132,-0.024699 -0.02297,-0.03446 -0.0061,-0.00605 -0.01611,-0.00635 -0.02296,-0.011486 -0.02971,-0.022278 -0.02082,-0.027292 -0.04595,-0.057434 -0.03348,-0.040176 -0.08586,-0.071354 -0.114866,-0.1148667 -0.0047,-0.00712 -0.0054,-0.01692 -0.01148,-0.022974 -0.0061,-0.00605 -0.0164,-0.00601 -0.02297,-0.011486 -0.03537,-0.029472 -0.06654,-0.064265 -0.10338,-0.091894 -0.02056,-0.015412 -0.04755,-0.020212 -0.06892,-0.03446 -0.04425,-0.029499 -0.0841,-0.085325 -0.114866,-0.1263539 -0.01045,-0.01392 -0.136829,-0.1485683 -0.13784,-0.1493269 -0.01106,-0.00828 -0.02471,-0.013211 -0.03446,-0.022974 -0.04181,-0.041807 0.01222,-0.00807 -0.02297,-0.03446 -0.04348,-0.032613 -0.0366,-0.00909 -0.05744,-0.022974 -0.009,-0.00601 -0.01397,-0.016965 -0.02296,-0.022974 -0.0096,-0.00637 -0.02358,0.00363 -0.03446,0 -0.01479,-0.00493 -0.03115,-0.029529 -0.04595,-0.03446 -0.04637,-0.015457 -0.03022,0.00629 -0.103381,-0.022974 z"
             id="path61019" />
          <path
             style="fill:#ffe6d5;stroke:#000000;stroke-width:0.3;stroke-linecap:round"
             d="m 86.621169,5.2494198 c 0.129178,-0.036908 0.05579,-0.00474 0.195276,-0.114867 0.01564,-0.012338 0.146121,-0.1116624 0.172299,-0.1378403 0.13924,-0.1392385 0.249579,-0.3070944 0.356087,-0.4709546 0.01839,-0.028289 0.119578,-0.1650169 0.137843,-0.2067605 0.02381,-0.054457 0.02715,-0.1159102 0.04595,-0.1723003 0.0065,-0.019561 0.01833,-0.037342 0.02296,-0.057433 0.03853,-0.1669569 0.02297,-0.3466465 0.02297,-0.5169014 0,-0.017314 0.0011,-0.1263536 0.01148,-0.1263536 0.0054,0 0.0096,0.0064 0.01148,0.011486 0.01365,0.037568 0.02183,0.076943 0.03446,0.114867 0.03993,0.1197827 0.0855,0.2327502 0.114867,0.3560876 0.0327,0.1373542 0.05922,0.2762758 0.09189,0.413521 0.03538,0.1485834 0.03414,0.088375 0.04595,0.2182471 0.0079,0.086392 0,0.1773084 0,0.2641941 0,0.1082673 0.0034,0.1976668 -0.03446,0.298654 -0.0048,0.012925 -0.01812,0.021534 -0.02297,0.03446 -0.0069,0.01828 -0.0046,0.039153 -0.01148,0.057433 -0.0048,0.012927 -0.01611,0.022474 -0.02296,0.03446 -0.02381,0.041655 -0.04512,0.084699 -0.06892,0.1263536 -0.01371,0.023974 -0.03507,0.043542 -0.04595,0.06892 -0.0062,0.01451 -0.0053,0.031436 -0.01148,0.045947 -0.0074,0.017293 -0.0294,0.037176 -0.03446,0.057433 -0.0019,0.00743 0.0024,0.015708 0,0.022974 -0.0034,0.010274 -0.01955,0.0127 -0.02297,0.022974 -0.0024,0.00727 0.0034,0.016124 0,0.022974 -2.64e-4,6.086e-4 -0.04331,0.054795 -0.04595,0.057434 -0.0027,0.00271 -0.0088,-0.00271 -0.01148,0 -0.01892,0.018931 -0.02305,0.040324 -0.03446,0.057433 -0.01482,0.022246 -0.06892,0.050414 -0.06892,0.06892"
             id="path61021" />
        </g>
        <path
           style="fill:#fff6d5;stroke:#000000;stroke-width:0.196903;stroke-linecap:round;stroke-dasharray:none"
           d="m 404.36063,47.305732 c -3.95008,-0.523899 -5.72248,-1.016996 -8.33554,-2.319019 -3.81308,-1.899956 -5.64386,-3.693539 -5.64386,-5.529181 0,-0.602366 0.21115,-1.19893 0.9117,-2.575844 0.90788,-1.784413 0.91643,-1.794287 2.04047,-2.35632 1.18787,-0.59395 4.95227,-1.410187 9.55114,-2.070983 4.04831,-0.581687 7.25246,-0.481004 9.52,0.299141 0.52459,0.180486 1.06651,0.328157 1.20427,0.328157 0.13776,0 0.49672,0.11234 0.79769,0.249645 0.30097,0.137304 1.05516,0.458606 1.67598,0.714004 1.45611,0.599023 2.47989,1.189294 3.55998,2.052542 1.49465,1.194592 1.72113,1.488731 1.67753,2.178729 -0.0663,1.049809 -0.92379,5.284039 -1.16615,5.75853 -0.58678,1.148801 -2.37787,2.255694 -5.07193,3.13445 -1.71097,0.558092 -7.0306,0.625646 -10.72128,0.136149 z m 10.64518,-7.486152 c 0.3282,-0.3282 0.24409,-1.445403 -0.17353,-2.304994 -0.21005,-0.432357 -0.43623,-0.786103 -0.50261,-0.786103 -0.0664,0 -0.36339,0.226717 -0.66002,0.503816 -0.45755,0.427417 -0.53934,0.629426 -0.53934,1.332169 0,0.527094 0.10453,0.943849 0.2874,1.145927 0.32625,0.3605 1.27178,0.425507 1.5881,0.109185 z m -14.98484,-0.486914 c 0.72828,-0.276889 1.00163,-0.664077 1.08253,-1.533305 0.10555,-1.134124 -0.47411,-2.003047 -1.38724,-2.079499 -0.59389,-0.04972 -0.65891,-0.0067 -0.91956,0.6078 -0.15426,0.363719 -0.32341,1.061662 -0.37588,1.550985 -0.0807,0.752262 -0.0384,0.946723 0.27393,1.259014 0.41294,0.41294 0.65817,0.448998 1.32622,0.195005 z"
           id="path3145"
           transform="matrix(0.26458333,0,0,0.26458333,-22.531865,0.5772584)" />
      </g>
    </g>
  </g>
</svg>
