<?xml version="1.0" encoding="UTF-8" standalone="no"?>
<!-- Created with Inkscape (http://www.inkscape.org/) -->

<svg
   width="100.33mm"
   height="95.927612mm"
   viewBox="0 0 100.33 95.927612"
   version="1.1"
   id="svg8193"
   xmlns:inkscape="http://www.inkscape.org/namespaces/inkscape"
   xmlns:sodipodi="http://sodipodi.sourceforge.net/DTD/sodipodi-0.dtd"
   xmlns="http://www.w3.org/2000/svg"
   xmlns:svg="http://www.w3.org/2000/svg">
  <sodipodi:namedview
     id="namedview8195"
     pagecolor="#ffffff"
     bordercolor="#000000"
     borderopacity="0.25"
     inkscape:showpageshadow="2"
     inkscape:pageopacity="0.0"
     inkscape:pagecheckerboard="0"
     inkscape:deskcolor="#d1d1d1"
     inkscape:document-units="mm"
     showgrid="false" />
  <defs
     id="defs8190" />
  <g
     inkscape:label="圖層 1"
     inkscape:groupmode="layer"
     id="layer1"
     transform="translate(-5.5940648,-7.1793335)">
    <g
       id="g19156"
       transform="matrix(13.687852,0,0,13.687852,-235.11309,-75.670713)"
       style="fill:#00ffff">
      <ellipse
         style="fill:#00ffff;stroke:#000000;stroke-width:0.3;stroke-linecap:round"
         id="path7100"
         cx="21.250387"
         cy="9.5569305"
         rx="3.5149286"
         ry="3.3541148" />
      <path
         style="fill:#ffffff;stroke:#000000;stroke-width:0.3;stroke-linecap:round"
         d="m 22.605817,8.2704206 c 0.06126,0.045947 0.139277,0.075526 0.183787,0.1378405 0.0608,0.085127 0.04595,0.2740123 0.04595,0.3675743 0,0.1524084 0.02494,0.3176836 -0.04595,0.4594677 -0.07006,0.1401175 -0.03643,-0.084034 -0.09189,0.1378402 -0.0074,0.029717 0.01699,0.066407 0,0.091894 -0.019,0.028495 -0.06768,0.02173 -0.09189,0.045947 -0.05627,0.056272 -0.06449,0.1348862 -0.137841,0.183787 -0.05029,0.033527 -0.27568,0.1346883 -0.27568,0.1378405 0,0.021659 0.03063,0.030631 0.04595,0.045947 0.260075,0.2600752 0.622692,0.1837872 0.964883,0.1837872 0.03088,0 0.110724,0.01356 0.13784,0 0.09595,-0.04798 0.09042,-0.1506997 0.13784,-0.229734 0.02229,-0.037146 0.07252,-0.053148 0.09189,-0.091893 0.04595,-0.091894 -0.02297,-0.06892 0,-0.1378405 -0.02769,-0.083161 0.07443,-0.085453 0.09189,-0.1378402 0.02881,-0.086424 0.115424,-0.6410261 0.09189,-0.7351485 -0.0053,-0.021013 -0.0391,-0.0254 -0.04595,-0.045947 -0.01937,-0.058119 0.01937,-0.1256687 0,-0.1837873 -0.0137,-0.041096 -0.07252,-0.053148 -0.09189,-0.091893 -0.03964,-0.079272 -0.0455,-0.1835618 -0.137841,-0.229734 -0.04207,-0.021037 -0.205828,0.00598 -0.229733,0 -0.02101,-0.00525 -0.02657,-0.03626 -0.04595,-0.045947 -0.05149,-0.025744 -0.32395,-0.021812 -0.367575,0 -0.07988,0.039938 -0.153156,0.091893 -0.229733,0.1378402 z"
         id="path7153" />
      <path
         style="fill:#ffffff;stroke:#000000;stroke-width:0.3;stroke-linecap:round"
         d="m 22.238242,10.659653 c -0.191774,0.04617 -0.474172,0.35287 -0.27568,0.551362 0.04843,0.04843 0.135355,0.04346 0.183787,0.09189 0.01083,0.01083 -0.01083,0.03512 0,0.04595 0.0028,0.0028 0.170702,0.08753 0.183787,0.09189 0.08846,0.02949 0.227346,0 0.321627,0 0.01612,0 0.212156,0.01758 0.229734,0 0.04172,-0.04172 -0.09189,-0.05649 -0.09189,-0.183787 0,-0.04159 0.0288,-0.324367 0,-0.367575 -0.0651,-0.09765 -0.192677,-0.06422 -0.275681,-0.09189 -0.09747,-0.03249 -0.183787,-0.09189 -0.275681,-0.137841 z"
         id="path7155" />
    </g>
  </g>
</svg>
