<?xml version="1.0" encoding="UTF-8" standalone="no"?>
<!-- Created with Inkscape (http://www.inkscape.org/) -->

<svg
   width="100.634mm"
   height="56.475002mm"
   viewBox="0 0 100.634 56.475002"
   version="1.1"
   id="svg20482"
   inkscape:export-filename="shi.svg"
   inkscape:export-xdpi="96"
   inkscape:export-ydpi="96"
   xmlns:inkscape="http://www.inkscape.org/namespaces/inkscape"
   xmlns:sodipodi="http://sodipodi.sourceforge.net/DTD/sodipodi-0.dtd"
   xmlns="http://www.w3.org/2000/svg"
   xmlns:svg="http://www.w3.org/2000/svg">
  <sodipodi:namedview
     id="namedview20484"
     pagecolor="#ffffff"
     bordercolor="#000000"
     borderopacity="0.25"
     inkscape:showpageshadow="2"
     inkscape:pageopacity="0.0"
     inkscape:pagecheckerboard="0"
     inkscape:deskcolor="#d1d1d1"
     inkscape:document-units="mm"
     showgrid="false" />
  <defs
     id="defs20479" />
  <g
     inkscape:label="圖層 1"
     inkscape:groupmode="layer"
     id="layer1"
     transform="translate(-7.4822308,-5.9809058)">
    <g
       id="g223990"
       transform="matrix(10.906927,0,0,10.906927,39.382756,-148.41272)"
       style="fill:#f4eed7">
      <g
         id="g133282"
         transform="matrix(0.73027393,0,0,0.73027393,-70.641951,-2.4494203)"
         style="fill:#d5e5ff">
        <path
           style="fill:#d5e5ff;stroke:#000000;stroke-width:0.3;stroke-linecap:round;stroke-dasharray:none"
           d="m 94.283894,23.749664 -1.364552,5.198284 9.811768,0.714764 0.9097,-5.263262 z"
           id="path124292" />
        <path
           style="fill:#d5e5ff;stroke:#000000;stroke-width:0.303611;stroke-linecap:round;stroke-dasharray:none"
           d="m 103.68571,24.367439 1.47971,5.096038 -2.33468,0.197264 z"
           id="path124294" />
        <path
           style="fill:#666666;stroke:#000000;stroke-width:0.3;stroke-linecap:round;stroke-dasharray:none"
           d="m 95.485997,24.301982 0.129958,-1.397039 0.552317,0.06498 -0.194937,1.364549 z"
           id="path127928" />
        <path
           style="fill:#666666;stroke:#000000;stroke-width:0.3;stroke-linecap:round;stroke-dasharray:none"
           d="m 97.220864,24.370966 0.129958,-1.397039 0.552317,0.06498 -0.194937,1.364549 z"
           id="path127928-8" />
        <path
           style="fill:#4d4d4d;stroke:#000000;stroke-width:0.3;stroke-linecap:round;stroke-dasharray:none"
           d="m 98.975285,24.565901 0.129958,-1.397039 0.552317,0.06498 -0.194937,1.364549 z"
           id="path127928-1" />
        <path
           style="fill:#666666;stroke:#000000;stroke-width:0.3;stroke-linecap:round;stroke-dasharray:none"
           d="m 100.85967,24.793326 0.12995,-1.397039 0.55232,0.06498 -0.19494,1.364549 z"
           id="path127928-2" />
        <path
           style="fill:#ffffff;stroke:#000000;stroke-width:0.3;stroke-linecap:round;stroke-dasharray:none"
           d="m 96.168273,27.843314 1.137123,0.09747 -0.194934,0.649786 -1.039659,-0.194936 z"
           id="path128720" />
        <path
           style="fill:#ffffff;stroke:#000000;stroke-width:0.3;stroke-linecap:round;stroke-dasharray:none"
           d="m 97.943585,28.081423 1.137123,0.09747 -0.194934,0.649786 -1.039659,-0.194936 z"
           id="path128720-78" />
        <path
           style="fill:#ffffff;stroke:#000000;stroke-width:0.3;stroke-linecap:round;stroke-dasharray:none"
           d="m 99.698006,28.178891 1.137124,0.09747 -0.19494,0.649786 -1.039654,-0.194936 z"
           id="path128720-6" />
        <path
           style="fill:#ffffff;stroke:#000000;stroke-width:0.3;stroke-linecap:round;stroke-dasharray:none"
           d="m 96.806459,25.352324 1.137123,0.09747 -0.194934,0.649786 -1.039659,-0.194936 z"
           id="path128720-4" />
        <path
           style="fill:#ffffff;stroke:#000000;stroke-width:0.3;stroke-linecap:round;stroke-dasharray:none"
           d="m 98.495902,25.51477 1.137123,0.09747 -0.194934,0.649786 -1.039659,-0.194936 z"
           id="path128720-1" />
        <path
           style="fill:#ffffff;stroke:#000000;stroke-width:0.3;stroke-linecap:round;stroke-dasharray:none"
           d="m 100.12036,25.644728 1.13713,0.09747 -0.19494,0.649786 -1.03966,-0.194936 z"
           id="path128720-0" />
        <path
           style="fill:#ffffff;stroke:#000000;stroke-width:0.3;stroke-linecap:round;stroke-dasharray:none"
           d="m 96.481562,26.554428 1.13713,0.09747 -0.19494,0.649786 -1.03966,-0.194936 z"
           id="path128720-48" />
        <path
           style="fill:#ffffff;stroke:#000000;stroke-width:0.3;stroke-linecap:round;stroke-dasharray:none"
           d="m 99.892942,26.87932 1.137118,0.09747 -0.19493,0.649786 -1.039658,-0.194936 z"
           id="path128720-7" />
        <path
           style="fill:#ffffff;stroke:#000000;stroke-width:0.3;stroke-linecap:round;stroke-dasharray:none"
           d="m 98.235988,26.749363 1.137123,0.09747 -0.194934,0.649786 -1.039659,-0.194936 z"
           id="path128720-13" />
        <path
           style="fill:#00ffff;stroke:#000000;stroke-width:0.232561;stroke-linecap:round;stroke-dasharray:none"
           d="m 94.650663,24.913606 -0.151336,0.35628 0.968544,0.104788 -0.756674,1.697566 0.454004,0.06288 0.786942,-2.053845 z"
           id="path130291" />
      </g>
    </g>
  </g>
</svg>
