<?xml version="1.0" encoding="UTF-8" standalone="no"?>
<!-- Created with Inkscape (http://www.inkscape.org/) -->

<svg
   width="100.062mm"
   height="86.091003mm"
   viewBox="0 0 100.062 86.091003"
   version="1.1"
   id="svg20482"
   inkscape:export-filename="chi.svg"
   inkscape:export-xdpi="96"
   inkscape:export-ydpi="96"
   xmlns:inkscape="http://www.inkscape.org/namespaces/inkscape"
   xmlns:sodipodi="http://sodipodi.sourceforge.net/DTD/sodipodi-0.dtd"
   xmlns="http://www.w3.org/2000/svg"
   xmlns:svg="http://www.w3.org/2000/svg">
  <sodipodi:namedview
     id="namedview20484"
     pagecolor="#ffffff"
     bordercolor="#000000"
     borderopacity="0.25"
     inkscape:showpageshadow="2"
     inkscape:pageopacity="0.0"
     inkscape:pagecheckerboard="0"
     inkscape:deskcolor="#d1d1d1"
     inkscape:document-units="mm"
     showgrid="false" />
  <defs
     id="defs20479" />
  <g
     inkscape:label="圖層 1"
     inkscape:groupmode="layer"
     id="layer1"
     transform="translate(-2.2679809,-3.6560458)">
    <g
       id="g223990"
       transform="matrix(10.906927,0,0,10.906927,39.382756,-148.41272)"
       style="fill:#f4eed7">
      <g
         id="g122098"
         transform="matrix(1.0123926,0,0,1.0123926,-51.397073,-31.095574)"
         style="fill:#fff6d5">
        <path
           style="fill:#fff6d5;stroke:#000000;stroke-width:0.3;stroke-linecap:round;stroke-dasharray:none"
           d="m 48.83486,44.713637 3.446008,1.837872 -0.689201,5.191986 -3.72169,-2.297339 z"
           id="path96304" />
        <path
           style="fill:#fff6d5;stroke:#000000;stroke-width:0.291432;stroke-linecap:round;stroke-dasharray:none"
           d="m 52.469518,46.535379 3.09662,-1.370356 -0.348914,6.029569 -3.445536,0.548142"
           id="path96306" />
        <path
           style="fill:#fff6d5;stroke:#000000;stroke-width:0.288309;stroke-linecap:round;stroke-dasharray:none"
           d="m 47.79467,49.600584 -0.194089,0.361646 3.752398,2.109602 0.129393,-0.391784 z"
           id="path97036" />
        <path
           style="fill:#fff6d5;stroke:#000000;stroke-width:0.267558;stroke-linecap:round;stroke-dasharray:none"
           d="m 51.53824,52.130584 4.341667,-0.44826 -0.07117,-0.401072 -4.163731,0.424665 z"
           id="path97038" />
        <path
           style="fill:#fff6d5;stroke:#000000;stroke-width:0.263505;stroke-linecap:round;stroke-dasharray:none"
           d="m 55.797237,45.164925 0.53443,0.327993 -0.417118,6.06006 -0.50836,-0.406087 z"
           id="path97782" />
        <path
           style="fill:#fff6d5;stroke:#000000;stroke-width:0.3;stroke-linecap:round;stroke-dasharray:none"
           d="m 52.822926,47.18874 c 0.119026,-0.05472 0.305661,0.142887 0.422361,0.113712 0.06349,-0.01587 0.108578,-0.04958 0.129957,-0.113712 0.0044,-0.01331 0.0061,-0.05272 0,-0.06498 -0.0131,-0.0262 -0.06313,-0.02938 -0.03249,-0.01625 0.06932,0.02971 0.136976,0.06773 0.21118,0.08122 0.162649,0.02957 0.352543,-0.04651 0.487339,-0.129957 0.02989,-0.01851 0.197469,-0.155591 0.276159,-0.194936 0.0256,-0.0128 0.172972,0.07047 0.259914,0.04873 0.102652,-0.02566 0.293551,-0.24367 0.308649,-0.24367"
           id="path98583" />
        <path
           style="fill:#fff6d5;stroke:#000000;stroke-width:0.3;stroke-linecap:round;stroke-dasharray:none"
           d="m 52.611746,49.88535 c 0.107832,0.0647 0.307861,0.21118 0.45485,0.21118 0.525607,0 0.285153,-0.05053 0.601051,-0.113712 0.04813,-0.0096 0.08375,0.0058 0.129958,0 0.144477,-0.01806 0.02099,-0.01162 0.146201,-0.03249 0.202232,-0.0337 0.252092,0.152 0.536074,0.04873 0.05989,-0.02178 0.292403,-0.11558 0.292403,-0.194936"
           id="path98585" />
        <path
           style="fill:#fff6d5;stroke:#000000;stroke-width:0.3;stroke-linecap:round;stroke-dasharray:none"
           d="m 49.346573,46.132838 c 0.210929,0.220241 0.39354,0.425563 0.714764,0.389871 0.148621,-0.01651 0.209396,-0.05919 0.357382,0 0.11164,0.04466 0.276635,0.324893 0.389871,0.324893"
           id="path98589" />
        <path
           style="fill:#fff6d5;stroke:#000000;stroke-width:0.3;stroke-linecap:round;stroke-dasharray:none"
           d="m 49.225407,47.309631 c 0.04595,0.06126 0.08916,0.124674 0.137841,0.183787 0.05862,0.07118 0.118583,0.141557 0.183787,0.20676 0.01952,0.01952 0.04736,0.0287 0.06892,0.04595 0.10797,0.08638 0.06115,0.09578 0.206761,0.02297 0.0069,-0.0034 0.01756,0.0054 0.02297,0 0.01211,-0.01211 0.0096,-0.03525 0.02297,-0.04595 0.03799,-0.0304 0.215587,-0.110985 0.27568,-0.06892 0.13369,0.09358 0.437632,0.38308 0.620282,0.413521 0.06588,0.01098 0.139501,0 0.20676,0"
           id="path98593" />
      </g>
    </g>
  </g>
</svg>
