<?xml version="1.0" encoding="UTF-8" standalone="no"?>
<!-- Created with Inkscape (http://www.inkscape.org/) -->

<svg
   width="100.77099mm"
   height="112.7862mm"
   viewBox="0 0 100.77099 112.7862"
   version="1.1"
   id="svg20482"
   inkscape:export-filename="ci.svg"
   inkscape:export-xdpi="96"
   inkscape:export-ydpi="96"
   xmlns:inkscape="http://www.inkscape.org/namespaces/inkscape"
   xmlns:sodipodi="http://sodipodi.sourceforge.net/DTD/sodipodi-0.dtd"
   xmlns="http://www.w3.org/2000/svg"
   xmlns:svg="http://www.w3.org/2000/svg">
  <sodipodi:namedview
     id="namedview20484"
     pagecolor="#ffffff"
     bordercolor="#000000"
     borderopacity="0.25"
     inkscape:showpageshadow="2"
     inkscape:pageopacity="0.0"
     inkscape:pagecheckerboard="0"
     inkscape:deskcolor="#d1d1d1"
     inkscape:document-units="mm"
     showgrid="false" />
  <defs
     id="defs20479" />
  <g
     inkscape:label="圖層 1"
     inkscape:groupmode="layer"
     id="layer1"
     transform="translate(-2.5924872,-3.4344889)">
    <g
       id="g223990"
       transform="matrix(10.906927,0,0,10.906927,39.382756,-148.41272)"
       style="fill:#f4eed7">
      <g
         id="g133282"
         transform="matrix(0.73027393,0,0,0.73027393,-70.641951,-2.4494203)"
         style="fill:#d5e5ff">
        <g
           id="g204216"
           transform="matrix(1.2947962,0,0,1.2947962,-101.66342,-3.7874358)"
           style="fill:#b3ff80">
          <path
             style="fill:#b3ff80;stroke:#000000;stroke-width:0.3;stroke-linecap:round;stroke-dasharray:none"
             d="m 155.81859,22.287647 c 0.0217,0.08664 -0.0327,-0.146807 -0.0327,-0.0575 0,0.173604 -0.55537,1.6235 -0.68207,1.876901 -0.1083,0.216596 -0.22469,0.429331 -0.3249,0.649786 -0.19442,0.42773 -0.0448,0.305555 -0.25991,0.649786 -0.0574,0.09184 -0.14121,0.165885 -0.19493,0.259914 -0.034,0.05947 -0.0239,0.140141 -0.065,0.194936 -0.0291,0.03875 -0.1009,0.02623 -0.12996,0.06498 -0.11658,0.15544 -0.16344,0.423353 -0.32489,0.584806 -0.24377,0.243769 -0.1198,0.04111 -0.3249,0.194937 -0.0764,0.05731 -0.16844,0.214178 -0.25991,0.259914 -0.28488,0.142438 -0.67335,0.234492 -0.97468,0.324892 -0.10578,0.03174 -0.22338,0.02148 -0.32489,0.06498 -0.42354,0.181518 -0.8235,0.444241 -1.2346,0.649785 -0.0613,0.03063 -0.14014,0.02389 -0.19493,0.06498 -0.0387,0.02906 -0.0381,0.08966 -0.065,0.129958 -0.0833,0.124958 -0.24159,0.199933 -0.32489,0.324893 -0.17506,0.262593 -0.36444,0.791077 -0.25992,1.104635 0.0495,0.148352 0.29156,0.291558 0.38988,0.389872 0.0342,0.03425 0.0359,0.09121 0.065,0.129958 0.14553,0.194032 0.31459,0.287247 0.51983,0.389871 0.17511,0.08755 0.27053,0.263451 0.45485,0.324893 0.42236,0.140784 0.0946,0.01183 0.51983,0.06498 0.56791,0.07099 1.04515,0.06498 1.62446,0.06498 0.10627,0 0.72235,0.06245 0.90971,0 0.13307,-0.04436 0.19617,-0.117705 0.32489,-0.194934 0.15967,-0.09581 0.28492,-0.045 0.45485,-0.129959 0.0548,-0.0274 0.0774,-0.09844 0.12995,-0.129955 0.2133,-0.127976 0.49058,-0.163835 0.71477,-0.259916 0.19806,-0.08488 0.34181,-0.283059 0.51983,-0.389871 0.12459,-0.07475 0.28713,-0.0922 0.38987,-0.194935 0.0343,-0.03425 0.0307,-0.09571 0.065,-0.129958 0.2365,-0.236498 0.0457,0.06908 0.19493,-0.129955 0.11612,-0.154832 0.25981,-0.389771 0.38987,-0.51983 0.0343,-0.03425 0.1009,-0.02622 0.12996,-0.06498 0.0411,-0.05479 0.0297,-0.136202 0.065,-0.194934 0.0315,-0.05253 0.0932,-0.08095 0.12996,-0.129958 0.2491,-0.332134 0.46304,-0.796134 0.64978,-1.169615 0.1639,-0.327805 0.36928,-0.82884 0.51195,-1.161739 0.27385,-0.638977 -0.11708,0.687624 0.20282,-0.592682 0.021,-0.08405 -0.0107,-0.173945 0,-0.259914 0.12811,-1.024914 0.20775,-2.261429 -0.58481,-3.053992 -0.0993,-0.09927 -0.25524,-0.280016 -0.38987,-0.324893 -0.0617,-0.02055 -0.13682,0.02906 -0.19494,0 -0.31613,-0.158067 -1.12615,-0.08671 -1.42953,0.06498 -0.0581,0.02906 -0.13681,-0.02906 -0.19493,0 -0.0194,0.0097 0.0153,0.04966 0,0.06498 -0.0412,0.04122 -0.20582,-0.02705 -0.25992,0 -0.11296,0.05648 -0.21659,0.129957 -0.32489,0.194936 z"
             id="path134010"
             sodipodi:nodetypes="cscccccccccccccccccccccsccscsccccccccscscccccscscc" />
          <path
             style="fill:#b3ff80;stroke:#000000;stroke-width:0.3;stroke-linecap:round;stroke-dasharray:none"
             d="m 157.70297,21.832797 c 0.0917,-0.241428 0.24555,-0.392374 0.38987,-0.584807 0.19832,-0.264429 0.23718,-0.7034 0.51983,-0.844722 0.17496,-0.08748 0.71285,0.395606 0.64979,0.584808 -0.066,0.198015 -0.57142,0.838025 -0.71477,0.909699 -0.0194,0.0097 -0.0497,-0.01531 -0.065,0 -0.0153,0.01532 0,0.04332 0,0.06498"
             id="path134740" />
          <path
             style="fill:#b3ff80;stroke:#000000;stroke-width:0.257414;stroke-linecap:round;stroke-dasharray:none"
             d="m 158.504,22.4288 c -0.11436,0.5471 -0.18728,1.112514 -0.33067,1.64515 -0.0653,0.242382 -0.22743,0.489878 -0.28343,0.723866 -0.0401,0.167843 -0.0563,0.366334 -0.0945,0.526448 -0.0251,0.104851 -0.1197,0.2064 -0.14171,0.329029 -0.008,0.04256 0.01,0.09 0,0.131612 -0.0539,0.225519 -0.26919,0.653534 -0.37791,0.855479 -0.10708,0.19889 -0.10488,0.06551 -0.18895,0.329029 -0.17302,0.542296 -0.27573,0.938078 -0.51963,1.447732 -0.1451,0.303197 -0.41748,0.570542 -0.61411,0.789672 -0.0359,0.03995 -0.39477,0.462983 -0.42514,0.526448 -0.0196,0.04081 -0.0223,0.09693 -0.0473,0.13161 -0.11474,0.159831 -0.0694,-0.01957 -0.14172,0.131614 -0.0196,0.04081 -0.11997,0.09693 -0.14497,0.13161 -0.28133,0.391908 0.0185,0.05519 -0.28023,0.263225 -0.0398,0.02776 -0.0575,0.09718 -0.0945,0.13161 -0.18982,0.176278 -0.40902,0.31779 -0.61411,0.460643"
             id="path134748"
             sodipodi:nodetypes="ccccccccscccccccc" />
          <path
             style="fill:#b3ff80;stroke:#000000;stroke-width:0.30849;stroke-linecap:round;stroke-dasharray:none"
             d="m 157.37199,22.126459 c -0.13221,0.349096 0.066,0.741842 0,1.099671 -0.0501,0.272141 -0.25904,0.53223 -0.30452,0.806423 -0.0119,0.07189 0.0149,0.148806 0,0.21994 -0.0179,0.08547 -0.0988,0.13634 -0.12177,0.219941 -0.0239,0.08798 0.0239,0.205283 0,0.29323 -0.0528,0.190481 -0.14862,0.308822 -0.18264,0.513178 -0.009,0.04793 0.0179,0.102929 0,0.146615 -0.0269,0.06183 -0.0961,0.08479 -0.12176,0.146615 -0.0179,0.04372 0.009,0.09919 0,0.146615 -0.0149,0.06618 -0.14385,0.31996 -0.18264,0.366556 -0.0842,0.101564 -0.18354,0.148951 -0.24353,0.29323 -0.21816,0.525077 -0.57362,1.014533 -0.79169,1.539535 -0.0466,0.112269 -0.10863,0.05734 -0.18265,0.146615 -0.21487,0.258777 -0.4182,0.579174 -0.6699,0.806422 -0.616,0.556168 0.21995,-0.202839 -0.3654,0.219941 -0.3045,0.219941 0,0.07333 -0.18265,0.219941 -0.0982,0.07875 -0.20771,0.142268 -0.30449,0.21994 -0.28591,0.229461 -0.61353,0.332642 -0.91346,0.513178 -0.0513,0.0309 -0.0704,0.115719 -0.12176,0.146615 -0.0749,0.04505 -0.16414,0.04146 -0.24353,0.07333 -0.22323,0.08956 -0.39396,0.206971 -0.60899,0.29323 -0.10713,0.043 -0.41267,-0.08971 -0.48719,0 -0.0149,0.01724 0.0149,0.05601 0,0.07333 -0.043,0.05184 -0.35867,0 -0.42629,0"
             id="path134742" />
        </g>
      </g>
    </g>
  </g>
</svg>
