<?xml version="1.0" encoding="UTF-8" standalone="no"?>
<!-- Created with Inkscape (http://www.inkscape.org/) -->

<svg
   width="100.74001mm"
   height="122.7906mm"
   viewBox="0 0 100.74001 122.7906"
   version="1.1"
   id="svg20482"
   inkscape:export-filename="qhi.svg"
   inkscape:export-xdpi="96"
   inkscape:export-ydpi="96"
   xmlns:inkscape="http://www.inkscape.org/namespaces/inkscape"
   xmlns:sodipodi="http://sodipodi.sourceforge.net/DTD/sodipodi-0.dtd"
   xmlns="http://www.w3.org/2000/svg"
   xmlns:svg="http://www.w3.org/2000/svg">
  <sodipodi:namedview
     id="namedview20484"
     pagecolor="#ffffff"
     bordercolor="#000000"
     borderopacity="0.25"
     inkscape:showpageshadow="2"
     inkscape:pageopacity="0.0"
     inkscape:pagecheckerboard="0"
     inkscape:deskcolor="#d1d1d1"
     inkscape:document-units="mm"
     showgrid="false" />
  <defs
     id="defs20479" />
  <g
     inkscape:label="圖層 1"
     inkscape:groupmode="layer"
     id="layer1"
     transform="translate(-6.3478757,-1.8988599)">
    <g
       id="g223990"
       transform="matrix(10.906927,0,0,10.906927,39.382756,-148.41272)"
       style="fill:#f4eed7">
      <g
         id="g122066"
         transform="matrix(0.78978095,0,0,0.82744422,-1.2462753,23.692869)"
         style="fill:#ffffff">
        <ellipse
           style="fill:#ffffff;stroke:#000000;stroke-width:0.3;stroke-linecap:round;stroke-dasharray:none"
           id="path118358"
           cx="3.314738"
           cy="-6.7615957"
           rx="2.9865408"
           ry="2.9405942" />
        <ellipse
           style="fill:#ffffff;stroke:#000000;stroke-width:0.274941;stroke-linecap:round;stroke-dasharray:none"
           id="path118360"
           cx="3.2826619"
           cy="-1.4936066"
           rx="3.7942712"
           ry="2.9833939" />
        <path
           style="fill:#ffcc00;stroke:#000000;stroke-width:0.3;stroke-linecap:round;stroke-dasharray:none"
           d="m 2.3039088,-7.7264783 c -0.310343,0.037954 -0.6115817,0.1824485 -0.918935,0.229734 -0.090826,0.013973 -0.184023,-0.00655 -0.2756826,0 -0.43214394,0.030867 -0.85160112,0.045947 -1.28650997,0.045947 h -0.32162746 -0.091892 c 0.36092867,0 0.76820179,0.2389124 1.10272244,0.3675742 0.37586971,0.1445654 0.77997839,0.2095638 1.14867009,0.3675743 0.2510498,0.1075925 0.3994493,0.1687824 0.6432549,0.229734 0.091189,0.022797 0.1188509,-0.085891 0.1837876,-0.1378405 0.1359508,-0.1087615 0.4866454,-0.3779303 0.4135199,-0.597308 C 2.8419207,-7.398952 2.4889615,-7.5873723 2.372828,-7.7035046"
           id="path118362"
           sodipodi:nodetypes="cscsccsssssc" />
        <path
           style="fill:#ffffff;stroke:#000000;stroke-width:0.3;stroke-linecap:round;stroke-dasharray:none"
           d="m 4.2566456,-7.7724248 c 0.3905479,0.8225931 0.7810959,0.5787505 1.1716438,0.3905475"
           id="path118372"
           sodipodi:nodetypes="cc" />
        <path
           style="fill:#ffffff;stroke:#000000;stroke-width:0.3;stroke-linecap:round;stroke-dasharray:none"
           d="m 1.2011855,-8.6454139 c 0.1738629,0.7239378 0.5991994,0.5677178 1.0108301,0.459468"
           id="path118374"
           sodipodi:nodetypes="cc" />
        <path
           style="fill:#ffffff;stroke:#000000;stroke-width:0.3;stroke-linecap:round;stroke-dasharray:none"
           d="M 6.6688537,-2.4885452 C 9.2878186,-5.1994051 9.2878186,-5.1994051 9.2878186,-5.1994051"
           id="path118376" />
        <path
           style="fill:#ffffff;stroke:#000000;stroke-width:0.3;stroke-linecap:round;stroke-dasharray:none"
           d="M 0.46603621,-2.9939597 C -2.1069838,-5.9805006 -2.1069838,-5.9805006 -2.1069838,-5.9805006"
           id="path118378" />
        <path
           style="fill:#806600;stroke:#000000;stroke-width:0.284063;stroke-linecap:round;stroke-dasharray:none"
           d="m 6.2542001,-11.02508 c -0.3589785,-0.181249 -0.592185,-0.508774 -0.9874361,-0.632562 -0.095794,-0.03001 -0.2073758,-0.0087 -0.3141848,-0.04218 -0.5456234,-0.170882 0.1669373,-0.02943 -0.359069,-0.08435 -0.2781451,-0.02903 -0.5749484,-0.0979 -0.8527885,0 -0.039622,0.01395 -0.055913,0.06048 -0.089766,0.08435 -0.1550117,0.109232 -0.2875609,0.278519 -0.4488351,0.379536 -0.027836,0.01744 -0.066112,0.01995 -0.089769,0.04218 -0.023649,0.02223 -0.026327,0.05819 -0.044881,0.08434 -0.1467385,0.206802 -0.4231699,0.403622 -0.6283695,0.548221 -0.1174601,0.08277 -0.1539006,0.244995 -0.3141849,0.295194 -0.1725354,0.05403 -0.8864632,-0.06325 -0.9874387,0 -0.02489,0.01559 0.016593,0.06095 0,0.08435 -0.018558,0.02615 -0.066112,0.01994 -0.089765,0.04218 -0.023649,0.02223 -0.02122,0.06212 -0.044884,0.08435 -0.0236491,0.02223 -0.0661116,0.01994 -0.0897686,0.04218 -0.11435592,0.1074448 -0.1112363,0.2897168 -0.13465025,0.4217081 -0.00778,0.043844 -0.0448817,0.082061 -0.0448817,0.1265123 0,0.069766 0.72633915,0.042171 0.85278585,0.042171 0.3218792,0 0.6259943,0.015131 0.9425543,0.042171 0.2712519,0.023169 0.5365774,0.098187 0.8079042,0.1265124 0.1040873,0.010867 0.2100976,-0.010867 0.3141849,0 0.1524503,0.015916 0.3002589,0.056422 0.448835,0.084342 0.1529002,0.028731 0.3466939,-0.046048 0.4937193,0 0.1043379,0.032677 0.2079549,0.1015603 0.3141847,0.1265125 0.029028,0.00683 0.061379,-0.0089 0.089766,0 0.040147,0.012572 0.054559,0.062287 0.089768,0.084342 0.027833,0.017436 0.059844,0.028114 0.089766,0.042171 0.074806,0.056228 0.1464645,0.1163669 0.2244189,0.1686832 0.06047,0.040584 0.1722717,0.077519 0.2244162,0.1265123 0.1348156,0.126668 0.2773129,0.3870648 0.4039534,0.5060495 0.064041,0.060171 0.1931063,0.1209573 0.2693005,0.1686833 0.019411,0.012161 0.2816214,0.1455347 0.3141849,0.084341 0.02308,-0.043387 0.019411,-0.2917764 0,-0.3373663 -0.062765,-0.147427 -0.091222,-0.1002186 -0.1795346,-0.2108539 -0.072916,-0.091348 -0.070522,-0.2048143 -0.1346503,-0.2951955 -0.023468,-0.033082 -0.076386,-0.046623 -0.089767,-0.084341 -0.00946,-0.026671 0.013388,-0.059196 0,-0.084342 -0.018919,-0.035561 -0.059846,-0.056228 -0.089769,-0.084342 -0.014965,-0.056228 -0.02538,-0.113699 -0.044884,-0.1686833 -0.017057,-0.048082 -0.076682,-0.077342 -0.089766,-0.1265122 -0.045959,-0.1727222 -0.00982,-0.6892184 0.044884,-0.8434174 0.052364,-0.147596 0.1720521,-0.274109 0.2244163,-0.421706 0.00946,-0.02667 -0.013388,-0.0592 0,-0.08434 0.026554,-0.04989 0.1018076,-0.04732 0.089768,-0.126511 -0.011398,-0.07494 -0.059846,-0.14057 -0.089767,-0.210855 z"
           id="path119836" />
        <ellipse
           style="fill:#ffffff;stroke:#000000;stroke-width:0.3;stroke-linecap:round;stroke-dasharray:none"
           id="path122016"
           cx="2.9127035"
           cy="-3.453428"
           rx="0.17230043"
           ry="0.13784035" />
        <ellipse
           style="fill:#ffffff;stroke:#000000;stroke-width:0.3;stroke-linecap:round;stroke-dasharray:none"
           id="path122016-7"
           cx="2.6485097"
           cy="-2.2128642"
           rx="0.17230043"
           ry="0.13784035" />
        <ellipse
           style="fill:#ffffff;stroke:#000000;stroke-width:0.3;stroke-linecap:round;stroke-dasharray:none"
           id="path122016-8"
           cx="2.257962"
           cy="-0.76554042"
           rx="0.17230043"
           ry="0.13784035" />
      </g>
    </g>
  </g>
</svg>
