<?xml version="1.0" encoding="UTF-8" standalone="no"?>
<!-- Created with Inkscape (http://www.inkscape.org/) -->

<svg
   width="100.469mm"
   height="73.169701mm"
   viewBox="0 0 100.469 73.169701"
   version="1.1"
   id="svg20482"
   inkscape:export-filename="xi.svg"
   inkscape:export-xdpi="96"
   inkscape:export-ydpi="96"
   xmlns:inkscape="http://www.inkscape.org/namespaces/inkscape"
   xmlns:sodipodi="http://sodipodi.sourceforge.net/DTD/sodipodi-0.dtd"
   xmlns="http://www.w3.org/2000/svg"
   xmlns:svg="http://www.w3.org/2000/svg">
  <sodipodi:namedview
     id="namedview20484"
     pagecolor="#ffffff"
     bordercolor="#000000"
     borderopacity="0.25"
     inkscape:showpageshadow="2"
     inkscape:pageopacity="0.0"
     inkscape:pagecheckerboard="0"
     inkscape:deskcolor="#d1d1d1"
     inkscape:document-units="mm"
     showgrid="false" />
  <defs
     id="defs20479" />
  <g
     inkscape:label="圖層 1"
     inkscape:groupmode="layer"
     id="layer1"
     transform="translate(-2.4218448,-20.937728)">
    <g
       id="g223990"
       transform="matrix(10.906927,0,0,10.906927,39.382756,-148.41272)"
       style="fill:#f4eed7">
      <g
         id="g98663"
         transform="matrix(0.8798649,0,0,0.8798649,-185.86528,29.478676)"
         style="fill:#aa87de">
        <g
           id="g122112"
           transform="translate(29.110396,-22.15769)"
           style="fill:#aa87de">
          <path
             style="fill:#aa87de;stroke:#000000;stroke-width:0.3;stroke-linecap:round"
             d="m 182.55727,7.6349811 c -0.0541,0.043319 -0.10475,0.091492 -0.16245,0.129957 -0.0928,0.061849 -0.21356,0.083605 -0.2924,0.1624465 -0.0171,0.017124 -0.0131,0.050449 -0.0325,0.064979 -0.0274,0.020547 -0.0681,0.01487 -0.0975,0.032489 -0.0637,0.038223 -0.0987,0.1242237 -0.16245,0.1624464 -0.27611,0.092037 0.0606,-0.036324 -0.16244,0.097468 -0.19611,0.1176668 -0.0138,-0.01705 -0.16245,0.032489 -0.0614,0.020468 -0.33319,0.2243868 -0.38987,0.2924038 -0.24032,0.2883844 -0.29623,0.5628579 -0.42236,0.9096996 -0.0814,0.2237706 -0.17619,0.7197656 -0.065,0.9421886 0.0602,0.120492 0.0544,0.07179 0.12996,0.162447 0.28899,0.346783 0.51046,0.361378 0.9097,0.552318 0.284,0.135826 0.55335,0.303163 0.84472,0.42236 0.48288,0.197541 0.85529,0.227425 1.36455,0.227425 0.16245,0 0.32632,0.02147 0.48734,0 0.0885,-0.0118 0.17234,-0.04746 0.25991,-0.06498 0.23754,-0.04751 0.49907,-0.06911 0.71477,-0.194936 0.0529,-0.03087 0.0842,-0.08926 0.12996,-0.129957 0.0518,-0.04607 0.12268,-0.07315 0.16244,-0.129957 0.0393,-0.05611 0.0366,-0.132582 0.065,-0.194936 0.082,-0.180289 0.19371,-0.350006 0.22743,-0.552318 0.0107,-0.06409 -0.006,-0.130224 0,-0.194935 0.0161,-0.176818 0.049,-0.338392 0.0325,-0.5198286 -0.0254,-0.2790039 -0.28677,-0.9385138 -0.45485,-1.1696141 -0.071,-0.097612 -0.39293,-0.4425916 -0.48733,-0.5198285 -0.23445,-0.1918216 -0.52292,-0.3007521 -0.77975,-0.45485 -0.0866,-0.051971 -0.27308,-0.2967918 -0.35738,-0.324893 -0.0206,-0.00685 -0.0444,0.00685 -0.065,0 -0.0291,-0.00969 -0.0353,-0.057549 -0.065,-0.064978 -0.063,-0.015759 -0.12995,0 -0.19493,0 -0.0666,0 0.20758,-0.040076 0.15367,-0.01312 -0.12896,0.064477 -0.30248,0.023388 -0.57603,0.078098 -0.0319,0.00637 -0.0684,-0.014531 -0.0975,0 -0.14874,0.074371 -0.31374,0.154082 -0.45485,0.2599145 z"
             id="path80045"
             sodipodi:nodetypes="ccccccccccccssssccsccccccccccssccccc" />
          <path
             style="fill:#aa87de;stroke:#000000;stroke-width:0.3;stroke-linecap:round"
             d="m 185.77371,11.208802 c 0.23031,0.02539 0.17977,0.112824 0.38987,0.227425 0.79875,0.435682 -0.37894,-0.241147 0.35738,0.227425 0.0613,0.039 0.13759,0.05287 0.19494,0.09747 0.0427,0.03324 0.0592,0.09167 0.0975,0.129957 0.0171,0.01712 0.0479,0.01537 0.065,0.03249 0.0342,0.03425 0.0307,0.09571 0.065,0.129957 0.0171,0.01712 0.0509,0.01278 0.065,0.03249 0.0563,0.07882 0.0993,0.16802 0.12996,0.259914 0.0296,0.08883 0.0325,0.367025 0.0325,0.45485 0,0.09747 0.0308,0.199937 0,0.292403 -0.0567,0.170223 -0.35628,0.37197 -0.45485,0.519829 -0.0427,0.06403 -0.0137,0.111162 -0.065,0.162446"
             id="path80773" />
          <path
             style="fill:#aa87de;stroke:#000000;stroke-width:0.3;stroke-linecap:round"
             d="m 186.0986,10.006698 c 0.24992,0 0.57183,-0.0022 0.77974,0.03249 0.0534,0.0089 0.0844,0.06819 0.12996,0.09747 0.10624,0.06829 0.21524,0.132275 0.32489,0.194935 0.20786,0.118774 0.42964,0.239743 0.6173,0.389872 0.0407,0.03254 0.0874,0.119869 0.0975,0.129957 0.0171,0.01712 0.0479,0.01537 0.065,0.03249 0.0956,0.09564 0.10241,0.414611 0.12995,0.552318 0.0183,0.09147 -0.0108,0.04306 -0.0325,0.129957 -0.016,0.06391 -0.0117,0.132441 -0.0325,0.194936 -0.0456,0.136765 -0.12995,0.183899 -0.12995,0.357382"
             id="path80775" />
          <path
             style="fill:#aa87de;stroke:#000000;stroke-width:0.266948;stroke-linecap:round"
             d="m 183.77589,11.907034 c -0.21423,0.439982 -0.57225,0.761123 -0.71815,1.240601 -0.0271,0.08922 -2.8e-4,0.384486 0.0131,0.47208 0.0305,0.200688 0.0145,-0.05157 0.0145,0.04232"
             id="path81503"
             sodipodi:nodetypes="cccc" />
          <path
             style="fill:#aa87de;stroke:#000000;stroke-width:0.3;stroke-linecap:round"
             d="m 181.09525,10.948888 c -0.61614,0.487834 -0.81223,1.09833 -0.81223,1.851889"
             id="path81505" />
          <path
             style="fill:#aa87de;stroke:#000000;stroke-width:0.3;stroke-linecap:round"
             d="m 180.54293,9.48687 c -0.0489,-0.085552 -0.16302,-0.045945 -0.22742,-0.097468 -0.0305,-0.024392 -0.0315,-0.077378 -0.065,-0.097468 -0.0206,-0.012337 -0.47423,-0.045599 -0.48734,-0.032489 -0.0796,0.079635 -0.0641,0.096571 -0.12996,0.1624465 -0.21362,0.2136232 0.0165,-0.061078 -0.19493,0.097468 -0.0194,0.014531 -0.018,0.045606 -0.0325,0.064979 -0.0783,0.1043718 -0.14946,0.2209321 -0.22743,0.3248927 -0.0619,0.082552 -0.22742,0.2854748 -0.22742,0.3898708"
             id="path81507" />
          <path
             style="fill:#aa87de;stroke:#000000;stroke-width:0.3;stroke-linecap:round"
             d="m 181.35517,8.2847666 c -0.34395,-0.092743 -0.59043,-0.3993976 -0.94219,-0.4873392 -0.27915,-0.069786 -0.79107,0.06936 -1.07215,0.097468 -0.13599,0.0136 -0.25823,-4.234e-4 -0.38987,0.032489 -0.20742,0.051855 -0.33733,0.2661317 -0.51983,0.357382"
             id="path81509" />
          <path
             style="fill:#aa87de;stroke:#000000;stroke-width:0.3;stroke-linecap:round"
             d="m 185.90367,8.9995308 c 0.31065,-0.1863961 0.0266,-0.042973 0.55231,-0.1624465 0.1932,0.0551 0.30005,-0.1182174 0.45485,-0.1624462 0.17525,-0.05007 0.36501,0.035537 0.51983,0.097468 0.30866,0.1234636 0.10038,0.01089 0.48734,0.1299572 0.1481,0.045567 0.1032,0.067842 0.22743,0.129957 0.0254,0.012687 0.13405,0.03659 0.16244,0.064979 0.0171,0.017124 0.0131,0.050449 0.0325,0.064979 0.0274,0.020547 0.0701,0.011941 0.0975,0.032489 0.0194,0.014531 0.0154,0.047855 0.0325,0.064978 0.0928,0.092784 0.12996,-0.024307 0.12996,0.1624465"
             id="path81511" />
          <path
             style="fill:#aa87de;stroke:#000000;stroke-width:0.3;stroke-linecap:round"
             d="m 182.06993,7.6024916 c -0.18176,-0.096938 -0.22266,-0.3201233 -0.35738,-0.4548497 -0.0861,-0.086069 -0.21582,-0.075187 -0.32489,-0.1624465 -0.0423,-0.033826 -0.0917,-0.059179 -0.12996,-0.097468 -0.0171,-0.017124 -0.0154,-0.047855 -0.0325,-0.064979 -0.0157,-0.01565 -0.24042,-0.1221591 -0.25991,-0.1299569 -0.0402,-0.016089 -0.0889,0.013697 -0.12996,0 -0.0436,-0.014531 -0.0564,-0.07692 -0.0975,-0.097468 -0.0194,-0.00969 -0.0444,0.00685 -0.065,0 -0.0745,-0.024818 -0.15565,-0.09407 -0.22742,-0.129957 -0.0648,-0.032407 -0.31163,0 -0.35738,0"
             id="path81513" />
          <ellipse
             style="fill:#aa87de;stroke:#000000;stroke-width:0.3;stroke-linecap:round"
             id="path81569"
             cx="183.67227"
             cy="10.544786"
             rx="0.045946784"
             ry="0.18378714" />
          <ellipse
             style="fill:#aa87de;stroke:#000000;stroke-width:0.3;stroke-linecap:round"
             id="path81569-2"
             cx="181.69347"
             cy="10.175655"
             rx="0.045946784"
             ry="0.18378714" />
          <path
             style="fill:#aa87de;stroke:#000000;stroke-width:0.3;stroke-linecap:round"
             d="m 182.27088,10.935334 c 0.046,0.04595 0.0919,0.09189 0.13784,0.13784 0.0271,0.02707 0.0648,0.04185 0.0919,0.06892 0.0121,0.01211 0.009,0.03645 0.023,0.04595 0.001,9.79e-4 0.43307,0.0017 0.4365,0 0.007,-0.0034 0,-0.01532 0,-0.02297"
             id="path83777" />
        </g>
      </g>
    </g>
  </g>
</svg>
