<?xml version="1.0" encoding="UTF-8" standalone="no"?>
<!-- Created with Inkscape (http://www.inkscape.org/) -->

<svg
   width="100.20461mm"
   height="132.66257mm"
   viewBox="0 0 100.20461 132.66257"
   version="1.1"
   id="svg20482"
   inkscape:export-filename="ri.svg"
   inkscape:export-xdpi="96"
   inkscape:export-ydpi="96"
   xmlns:inkscape="http://www.inkscape.org/namespaces/inkscape"
   xmlns:sodipodi="http://sodipodi.sourceforge.net/DTD/sodipodi-0.dtd"
   xmlns="http://www.w3.org/2000/svg"
   xmlns:svg="http://www.w3.org/2000/svg">
  <sodipodi:namedview
     id="namedview20484"
     pagecolor="#ffffff"
     bordercolor="#000000"
     borderopacity="0.25"
     inkscape:showpageshadow="2"
     inkscape:pageopacity="0.0"
     inkscape:pagecheckerboard="0"
     inkscape:deskcolor="#d1d1d1"
     inkscape:document-units="mm"
     showgrid="false" />
  <defs
     id="defs20479" />
  <g
     inkscape:label="圖層 1"
     inkscape:groupmode="layer"
     id="layer1"
     transform="translate(-4.3421546,-2.4305498)">
    <g
       id="g223990"
       transform="matrix(10.906927,0,0,10.906927,39.382756,-148.41272)"
       style="fill:#f4eed7">
      <g
         id="g133282"
         transform="matrix(0.73027393,0,0,0.73027393,-70.641951,-2.4494203)"
         style="fill:#d5e5ff">
        <g
           id="g133264"
           transform="matrix(2.4171088,0,0,2.4171088,-186.48902,-32.129851)"
           style="fill:#782121">
          <path
             style="fill:#782121;stroke:#000000;stroke-width:0.3;stroke-linecap:round;stroke-dasharray:none"
             d="m 118.84579,25.146703 c -0.0866,0 -1.3456,0.798244 -1.42523,0.832374 -0.0845,0.0362 1.0439,-0.692574 0.97038,-0.637438 -1.04692,0.778879 0.35784,-0.271967 0.0721,9.53e-4 -0.15217,0.0913 -0.89167,0.490802 -1.04676,0.583854 -0.35744,0.214464 -0.70916,0.289133 -1.10463,0.519829 -0.20629,0.120333 -0.72272,0.494621 -0.77975,0.779741 -0.0379,0.189783 -0.0313,0.526698 0,0.714767 0.0634,0.380158 0.68461,1.181219 1.03966,1.29957 0.0985,0.03284 0.28659,0 0.38987,0 0.0866,0 0.17772,0.0274 0.25992,0 0.0581,-0.01937 0.079,-0.09597 0.12995,-0.129958 0.0868,-0.05785 0.62177,-0.621294 0.69483,-0.694359 0.0343,-0.03425 -0.33924,0.403714 -0.30494,0.369466 0.0343,-0.03425 0.1009,-0.02622 0.12996,-0.06498 0.0411,-0.05479 0.0344,-0.133673 0.065,-0.194934 0.10306,-0.206116 0.27122,-0.387057 0.38987,-0.584806 0.17033,-0.283885 -0.056,0.04704 0.12996,-0.324895 0.0866,-0.173263 0.75618,-1.631882 0.84281,-1.805144 0.0194,-0.03875 -0.53402,1.260556 -0.51792,1.220338 0.0466,-0.116462 0.1634,-0.198745 0.19494,-0.324893 0.0363,-0.145121 0.0622,-0.319356 0.12995,-0.45485 0.0955,-0.190986 0.19494,-0.240589 0.19494,-0.45485 0,-0.110072 0.0209,-0.714764 -0.12996,-0.714764 -0.11044,0 -0.21659,0.04332 -0.32489,0.06498 z"
             id="path131745"
             sodipodi:nodetypes="cccccccccsccccccccccccsscc" />
          <path
             style="fill:#008000;stroke:#000000;stroke-width:0.229487;stroke-linecap:round;stroke-dasharray:none"
             d="m 119.26537,25.311904 c 0.55746,-0.45086 0.7523,-0.955029 0.53899,-1.613501 -0.0324,-0.09976 -0.004,-0.208888 -0.049,-0.302531 -0.0246,-0.05059 -0.30109,0.04312 -0.343,0 -0.0324,-0.03328 -0.0738,-0.679591 -0.049,-0.756329 0.0208,-0.06435 0.23352,0.216641 0.24501,0.25211 0.0103,0.03189 -0.0146,0.07078 0,0.100843 0.008,0.01503 0.0344,-0.0075 0.049,0 0.0712,0.03662 0.056,0.158408 0.098,0.201688 0.0115,0.01188 0.0375,-0.01189 0.049,0 0.0851,0.08752 -0.0645,0.403375 0,0.403375 0.0164,0 -0.0115,-0.03853 0,-0.05042 0.0115,-0.01189 0.0327,0 0.049,0 0.0164,-0.03362 0.0232,-0.07427 0.049,-0.100843 0.0164,-0.01681 0.13066,-0.03362 0.14699,-0.05042 0.0259,-0.02658 0.0186,-0.08 0.049,-0.100845 0.0489,-0.03358 0.14376,0.02688 0.196,0 0.0127,-0.0066 0.0597,-0.08984 0.098,-0.05042 0.12484,0.128468 0.0135,0.276476 -0.098,0.352954 -0.082,0.05625 -0.343,0.07102 -0.343,0.151266"
             id="path131747" />
        </g>
      </g>
    </g>
  </g>
</svg>
